<svg width="16" height="16" viewBox="0 0 16 16" fill="none" xmlns="http://www.w3.org/2000/svg">
<g clip-path="url(#clip0)">
<path d="M15.541 9.73884C15.3094 9.73884 15.1217 9.92657 15.1217 10.1582V13.8818C15.1209 14.5762 14.5582 15.1391 13.8636 15.1399H2.0968C1.40223 15.1391 0.839538 14.5762 0.838719 13.8818V2.95373C0.839538 2.25917 1.40223 1.69647 2.0968 1.69565H5.82025C6.05188 1.69565 6.23961 1.50792 6.23961 1.27629C6.23961 1.04466 6.05188 0.856934 5.82025 0.856934H2.0968C0.9393 0.858244 0.0013105 1.79623 0 2.95373V13.8818C0.0013105 15.0393 0.9393 15.9773 2.0968 15.9786H13.8636C15.0211 15.9773 15.9591 15.0393 15.9604 13.8818V10.1584C15.9604 9.92673 15.7727 9.73884 15.541 9.73884Z" fill="#2586EF"/>
<path d="M6.55762 7.53224L12.6808 1.40894L14.6555 3.38369L8.53237 9.507L6.55762 7.53224Z" fill="#2586EF"/>
<path d="M5.55859 10.5058L7.7409 9.90132L6.16306 8.32349L5.55859 10.5058Z" fill="#2586EF"/>
<path d="M15.2009 0.370987C14.7912 -0.0377248 14.1279 -0.0377248 13.7182 0.370987L13.2734 0.815737L15.2482 2.7905L15.6929 2.34574C16.1018 1.93605 16.1018 1.27277 15.6929 0.863079L15.2009 0.370987Z" fill="#2586EF"/>
</g>
<defs>
<clipPath id="clip0">
<rect width="16" height="16" fill="white"/>
</clipPath>
</defs>
</svg>
