<svg width="36" height="36" viewBox="0 0 36 36" fill="none" xmlns="http://www.w3.org/2000/svg">
<path d="M13.8001 21.6001C10.4863 21.6001 7.80005 24.2863 7.80005 27.6001C7.80005 30.9139 10.4863 33.6001 13.8001 33.6001C17.1138 33.6001 19.8001 30.9139 19.8001 27.6001C19.7965 24.2878 17.1124 21.6036 13.8001 21.6001ZM13.8001 32.4001C11.149 32.4001 9.00005 30.2512 9.00005 27.6001C9.00005 24.949 11.149 22.8001 13.8001 22.8001C16.4511 22.8001 18.6001 24.949 18.6001 27.6001C18.5971 30.2497 16.4497 32.3972 13.8001 32.4001Z" fill="#999999"/>
<path d="M13.8001 25.8C14.5329 25.8 15.0001 26.1551 15.0001 26.4H16.2001C16.2001 25.5475 15.4449 24.8569 14.4001 24.6601V24H13.2001V24.6601C12.1554 24.8555 11.4001 25.5463 11.4001 26.4C11.4001 27.4099 12.4542 28.2 13.8001 28.2C14.5329 28.2 15.0001 28.5551 15.0001 28.8C15.0001 29.0449 14.5329 29.4 13.8001 29.4C13.0674 29.4 12.6001 29.0449 12.6001 28.8H11.4001C11.4001 29.6525 12.1554 30.3431 13.2001 30.5399V31.2H14.4001V30.5399C15.4449 30.3445 16.2001 29.6537 16.2001 28.8C16.2001 27.7901 15.146 27 13.8001 27C13.0674 27 12.6001 26.6449 12.6001 26.4C12.6001 26.1551 13.0674 25.8 13.8001 25.8Z" fill="#999999"/>
<path d="M30.6 34.8H5.4V20.4H15C15.994 20.4 16.8 19.594 16.8 18.6V3.6H23.4V10.8H30.6V19.2H31.8V9.95156L24.2484 2.4H16.8V1.8C16.8 0.805957 15.994 0 15 0H1.8C0.805957 0 0 0.805957 0 1.8V18.6C0 19.594 0.805957 20.4 1.8 20.4H4.2V36H31.8V27.6H30.6V34.8ZM24.6 4.44844L29.7516 9.6H24.6V4.44844ZM1.2 18.6V1.8C1.2 1.46865 1.46865 1.2 1.8 1.2H15C15.3313 1.2 15.6 1.46865 15.6 1.8V18.6C15.6 18.9313 15.3313 19.2 15 19.2H1.8C1.46865 19.2 1.2 18.9313 1.2 18.6Z" fill="#999999"/>
<path d="M19.2 15H20.4V16.2H19.2V15Z" fill="#999999"/>
<path d="M21.5999 15H28.7999V16.2H21.5999V15Z" fill="#999999"/>
<path d="M19.2 12.6001H20.4V13.8001H19.2V12.6001Z" fill="#999999"/>
<path d="M21.5999 12.6001H28.7999V13.8001H21.5999V12.6001Z" fill="#999999"/>
<path d="M19.2 17.3999H20.4V18.5999H19.2V17.3999Z" fill="#999999"/>
<path d="M21.5999 17.3999H28.7999V18.5999H21.5999V17.3999Z" fill="#999999"/>
<path d="M19.2 19.8H20.4V21H19.2V19.8Z" fill="#999999"/>
<path d="M21.5999 19.8H28.7999V21H21.5999V19.8Z" fill="#999999"/>
<path d="M15.0001 1.80005H1.80005V6.00005H15.0001V1.80005ZM13.8001 4.80005H3.00005V3.00005H13.8001V4.80005Z" fill="#999999"/>
<path d="M4.80015 6.6001H3.60015C2.93745 6.6001 2.40015 7.1374 2.40015 7.8001V9.0001C2.40015 9.66279 2.93745 10.2001 3.60015 10.2001H4.80015C5.46284 10.2001 6.00015 9.66279 6.00015 9.0001V7.8001C6.00015 7.1374 5.46284 6.6001 4.80015 6.6001ZM3.60015 9.0001V7.8001H4.80015V9.0001H3.60015Z" fill="#999999"/>
<path d="M8.99985 6.6001H7.79985C7.13716 6.6001 6.59985 7.1374 6.59985 7.8001V9.0001C6.59985 9.66279 7.13716 10.2001 7.79985 10.2001H8.99985C9.66255 10.2001 10.1999 9.66279 10.1999 9.0001V7.8001C10.1999 7.1374 9.66255 6.6001 8.99985 6.6001ZM7.79985 9.0001V7.8001H8.99985V9.0001H7.79985Z" fill="#999999"/>
<path d="M13.2 6.6001H12C11.3374 6.6001 10.8 7.1374 10.8 7.8001V9.0001C10.8 9.66279 11.3374 10.2001 12 10.2001H13.2C13.8627 10.2001 14.4 9.66279 14.4 9.0001V7.8001C14.4 7.1374 13.8627 6.6001 13.2 6.6001ZM12 9.0001V7.8001H13.2V9.0001H12Z" fill="#999999"/>
<path d="M4.80015 10.8H3.60015C2.93745 10.8 2.40015 11.3374 2.40015 12V13.2C2.40015 13.8627 2.93745 14.4001 3.60015 14.4001H4.80015C5.46284 14.4001 6.00015 13.8627 6.00015 13.2V12C6.00015 11.3374 5.46284 10.8 4.80015 10.8ZM3.60015 13.2V12H4.80015V13.2H3.60015Z" fill="#999999"/>
<path d="M8.99985 10.8H7.79985C7.13716 10.8 6.59985 11.3374 6.59985 12V13.2C6.59985 13.8627 7.13716 14.4001 7.79985 14.4001H8.99985C9.66255 14.4001 10.1999 13.8627 10.1999 13.2V12C10.1999 11.3374 9.66255 10.8 8.99985 10.8ZM7.79985 13.2V12H8.99985V13.2H7.79985Z" fill="#999999"/>
<path d="M13.2 10.8H12C11.3374 10.8 10.8 11.3374 10.8 12V13.2C10.8 13.8627 11.3374 14.4001 12 14.4001H13.2C13.8627 14.4001 14.4 13.8627 14.4 13.2V12C14.4 11.3374 13.8627 10.8 13.2 10.8ZM12 13.2V12H13.2V13.2H12Z" fill="#999999"/>
<path d="M4.80015 15H3.60015C2.93745 15 2.40015 15.5373 2.40015 16.2V17.4C2.40015 18.0627 2.93745 18.6 3.60015 18.6H4.80015C5.46284 18.6 6.00015 18.0627 6.00015 17.4V16.2C6.00015 15.5373 5.46284 15 4.80015 15ZM3.60015 17.4V16.2H4.80015V17.4H3.60015Z" fill="#999999"/>
<path d="M8.99985 15H7.79985C7.13716 15 6.59985 15.5373 6.59985 16.2V17.4C6.59985 18.0627 7.13716 18.6 7.79985 18.6H8.99985C9.66255 18.6 10.1999 18.0627 10.1999 17.4V16.2C10.1999 15.5373 9.66255 15 8.99985 15ZM7.79985 17.4V16.2H8.99985V17.4H7.79985Z" fill="#999999"/>
<path d="M13.2 15H12C11.3374 15 10.8 15.5373 10.8 16.2V17.4C10.8 18.0627 11.3374 18.6 12 18.6H13.2C13.8627 18.6 14.4 18.0627 14.4 17.4V16.2C14.4 15.5373 13.8627 15 13.2 15ZM12 17.4V16.2H13.2V17.4H12Z" fill="#999999"/>
<path d="M35.455 19.145C34.7428 18.465 33.6222 18.465 32.91 19.145L22.6242 29.4305C22.5744 29.4809 22.5336 29.5395 22.5041 29.604L21.0556 32.7493C20.951 32.9772 20.9994 33.2465 21.1769 33.4237C21.3541 33.6012 21.6234 33.6496 21.8513 33.545L24.9966 32.0966C25.0611 32.067 25.1197 32.0265 25.1701 31.9764L35.455 21.6906C36.1582 20.9878 36.1582 19.8478 35.455 19.145ZM24.3966 31.0512L22.8246 31.7755L23.5488 30.2034L31.2178 22.5338L32.0663 23.3822L24.3966 31.0512ZM32.9165 22.5311L32.068 21.683L32.4881 21.2629L33.3366 22.1113L32.9165 22.5311ZM34.6086 20.8392L34.1844 21.2635L33.336 20.415L33.7608 19.9908C33.9978 19.764 34.3713 19.764 34.6086 19.9908C34.8427 20.2252 34.8427 20.6049 34.6086 20.8392Z" fill="#999999"/>
</svg>
