<svg width="48" height="48" viewBox="0 0 48 48" fill="none" xmlns="http://www.w3.org/2000/svg">
<circle opacity="0.2" cx="24" cy="24" r="24" fill="#2586EF"/>
<path fill-rule="evenodd" clip-rule="evenodd" d="M29.1204 15.9282V23.5526H32.9436V15.9282C32.9436 14.8783 32.082 14.0165 31.032 14.0165C29.9819 14.0165 29.1204 14.8782 29.1204 15.9282ZM19.7177 19.2559C19.4604 18.9986 19.4604 18.5812 19.7177 18.3239C19.9752 18.0664 20.3925 18.0664 20.6501 18.3239L21.0113 18.6852L22.1784 17.5183C21.3663 16.8901 20.2135 16.9651 19.4881 17.6902C18.6913 18.4871 18.6913 19.7791 19.4881 20.5761C20.2849 21.373 21.5771 21.373 22.3738 20.5761C22.8707 20.0794 23.0852 19.3519 22.9132 18.6474L21.4775 20.0834C21.2199 20.3407 20.8026 20.3407 20.5453 20.0834L19.7177 19.2559ZM23.1151 16.5815L23.9427 15.7538C24.2 15.4965 24.6175 15.4965 24.8749 15.7538C25.1321 16.0113 25.1321 16.4286 24.8749 16.6859L23.9337 17.6269C24.5859 18.9245 24.3249 20.4894 23.306 21.5081C21.9941 22.8201 19.8679 22.8201 18.5559 21.5081C17.2443 20.1965 17.2443 18.07 18.5559 16.7582C19.7964 15.5177 21.7829 15.4401 23.1151 16.5815ZM16.8157 30.3642C16.4515 30.3642 16.1565 30.6593 16.1565 31.0234C16.1565 31.3874 16.4515 31.6826 16.8157 31.6826C17.1797 31.6826 17.4749 31.3874 17.4749 31.0234C17.4749 30.6593 17.1797 30.3642 16.8157 30.3642ZM19.4524 31.6826C19.0881 31.6826 18.7933 31.3874 18.7933 31.0234C18.7933 30.6593 19.0881 30.3642 19.4524 30.3642H25.8245C26.1885 30.3642 26.4837 30.6593 26.4837 31.0234C26.4837 31.3874 26.1885 31.6826 25.8245 31.6826H19.4524ZM16.8157 27.7276C16.4515 27.7276 16.1565 28.0225 16.1565 28.3867C16.1565 28.7507 16.4515 29.0459 16.8157 29.0459C17.1797 29.0459 17.4749 28.7507 17.4749 28.3867C17.4749 28.0225 17.1797 27.7276 16.8157 27.7276ZM19.4524 29.0459C19.0881 29.0459 18.7933 28.7507 18.7933 28.3867C18.7933 28.0225 19.0881 27.7276 19.4524 27.7276H25.8245C26.1885 27.7276 26.4837 28.0225 26.4837 28.3867C26.4837 28.7507 26.1885 29.0459 25.8245 29.0459H19.4524ZM29.1204 24.8709V34.539C29.1204 34.9031 28.8253 35.1982 28.4612 35.1982H14.179C13.8147 35.1982 13.5198 34.9031 13.5198 34.539V15.8622C13.5198 14.1187 14.9402 12.6982 16.6839 12.6982H31.032C32.8098 12.6982 34.262 14.1504 34.262 15.9282V24.2117C34.262 24.5758 33.9668 24.8709 33.6028 24.8709H29.1204ZM28.4318 14.0165C28.0365 14.5524 27.8021 15.2141 27.8021 15.9282V33.8798H14.8381V15.8622C14.8381 14.8466 15.6681 14.0165 16.6839 14.0165H28.4318ZM16.8157 25.0908C16.4515 25.0908 16.1565 25.3859 16.1565 25.7499C16.1565 26.114 16.4515 26.4092 16.8157 26.4092C17.1797 26.4092 17.4749 26.114 17.4749 25.7499C17.4749 25.3859 17.1797 25.0908 16.8157 25.0908ZM19.4524 26.4092H25.8245C26.1885 26.4092 26.4837 26.114 26.4837 25.7499C26.4837 25.3859 26.1885 25.0908 25.8245 25.0908H19.4524C19.0881 25.0908 18.7933 25.3859 18.7933 25.7499C18.7933 26.114 19.0881 26.4092 19.4524 26.4092Z" fill="#2586EF"/>
</svg>
