<svg width="22" height="24" viewBox="0 0 22 24" fill="none" xmlns="http://www.w3.org/2000/svg">
<path fill-rule="evenodd" clip-rule="evenodd" d="M16.1204 3.92817V11.5526H19.9436V3.92817C19.9436 2.87834 19.082 2.01655 18.032 2.01655C16.9819 2.01655 16.1204 2.87817 16.1204 3.92817ZM6.71772 7.2559C6.46042 6.99859 6.46042 6.58125 6.71772 6.32394C6.97521 6.06637 7.39255 6.06637 7.65012 6.32394L8.0113 6.68521L9.17838 5.51831C8.36631 4.89014 7.2135 4.96505 6.48815 5.69023C5.69132 6.48715 5.69132 7.77914 6.48815 8.57614C7.28489 9.37297 8.57705 9.37297 9.3738 8.57614C9.87072 8.0794 10.0852 7.35194 9.91323 6.64745L8.47749 8.08345C8.21992 8.34067 7.80258 8.34067 7.54528 8.08345L6.71772 7.2559ZM10.1151 4.58151L10.9427 3.75378C11.2 3.49648 11.6175 3.49648 11.8749 3.75378C12.1321 4.01127 12.1321 4.42861 11.8749 4.68591L10.9337 5.62694C11.5859 6.92447 11.3249 8.48944 10.306 9.5081C8.99413 10.8201 6.8679 10.8201 5.55593 9.5081C4.24431 8.19648 4.24431 6.06998 5.55593 4.75819C6.79642 3.51769 8.78286 3.44014 10.1151 4.58151ZM3.8157 18.3642C3.45153 18.3642 3.15646 18.6593 3.15646 19.0234C3.15646 19.3874 3.45153 19.6826 3.8157 19.6826C4.1797 19.6826 4.47494 19.3874 4.47494 19.0234C4.47494 18.6593 4.1797 18.3642 3.8157 18.3642ZM6.45241 19.6826C6.08815 19.6826 5.79325 19.3874 5.79325 19.0234C5.79325 18.6593 6.08815 18.3642 6.45241 18.3642H12.8245C13.1885 18.3642 13.4837 18.6593 13.4837 19.0234C13.4837 19.3874 13.1885 19.6826 12.8245 19.6826H6.45241ZM3.8157 15.7276C3.45153 15.7276 3.15646 16.0225 3.15646 16.3867C3.15646 16.7507 3.45153 17.0459 3.8157 17.0459C4.1797 17.0459 4.47494 16.7507 4.47494 16.3867C4.47494 16.0225 4.1797 15.7276 3.8157 15.7276ZM6.45241 17.0459C6.08815 17.0459 5.79325 16.7507 5.79325 16.3867C5.79325 16.0225 6.08815 15.7276 6.45241 15.7276H12.8245C13.1885 15.7276 13.4837 16.0225 13.4837 16.3867C13.4837 16.7507 13.1885 17.0459 12.8245 17.0459H6.45241ZM16.1204 12.8709V22.539C16.1204 22.9031 15.8253 23.1982 15.4612 23.1982H1.17899C0.814731 23.1982 0.519836 22.9031 0.519836 22.539V3.86224C0.519836 2.11875 1.94017 0.698151 3.68392 0.698151H18.032C19.8098 0.698151 21.262 2.15044 21.262 3.92817V12.2117C21.262 12.5758 20.9668 12.8709 20.6028 12.8709H16.1204ZM15.4318 2.01655C15.0365 2.55238 14.8021 3.21408 14.8021 3.92817V21.8798H1.83815V3.86224C1.83815 2.84657 2.66808 2.01655 3.68392 2.01655H15.4318ZM3.8157 13.0908C3.45153 13.0908 3.15646 13.3859 3.15646 13.7499C3.15646 14.114 3.45153 14.4092 3.8157 14.4092C4.1797 14.4092 4.47494 14.114 4.47494 13.7499C4.47494 13.3859 4.1797 13.0908 3.8157 13.0908ZM6.45241 14.4092H12.8245C13.1885 14.4092 13.4837 14.114 13.4837 13.7499C13.4837 13.3859 13.1885 13.0908 12.8245 13.0908H6.45241C6.08815 13.0908 5.79325 13.3859 5.79325 13.7499C5.79325 14.114 6.08815 14.4092 6.45241 14.4092Z" fill="#2586EF"/>
</svg>
