<svg width="24" height="24" viewBox="0 0 24 24" fill="none" xmlns="http://www.w3.org/2000/svg">
<path d="M19.0909 0H1.63636C1.20252 0.000416734 0.786578 0.152264 0.479803 0.422227C0.173028 0.692189 0.000473561 1.05822 0 1.44V19.68C0.000473561 20.0618 0.173028 20.4278 0.479803 20.6978C0.786578 20.9677 1.20252 21.1196 1.63636 21.12H3.27273V22.56C3.2732 22.9418 3.44576 23.3078 3.75253 23.5778C4.05931 23.8477 4.47525 23.9996 4.90909 24H22.3636C22.7975 23.9996 23.2134 23.8477 23.5202 23.5778C23.827 23.3078 23.9995 22.9418 24 22.56V4.32C23.9995 3.93822 23.827 3.57219 23.5202 3.30223C23.2134 3.03226 22.7975 2.88042 22.3636 2.88H20.7273V1.44C20.7268 1.05822 20.5542 0.692189 20.2475 0.422227C19.9407 0.152264 19.5248 0.000416734 19.0909 0ZM1.09091 19.68V1.44C1.09101 1.31272 1.1485 1.19068 1.25078 1.10068C1.35305 1.01068 1.49173 0.960085 1.63636 0.96H3.27273V3.36C3.27273 3.86922 3.5026 4.35757 3.91177 4.71765C4.32094 5.07771 4.87589 5.28 5.45455 5.28C6.0332 5.28 6.58815 5.07771 6.99732 4.71765C7.40649 4.35757 7.63636 3.86922 7.63636 3.36V2.88C7.63636 2.7527 7.5789 2.63061 7.4766 2.54059C7.37431 2.45057 7.23557 2.4 7.09091 2.4C6.94625 2.4 6.80751 2.45057 6.70521 2.54059C6.60292 2.63061 6.54545 2.7527 6.54545 2.88V3.36C6.54545 3.61461 6.43052 3.85879 6.22593 4.03882C6.02135 4.21886 5.74387 4.32 5.45455 4.32C5.16522 4.32 4.88774 4.21886 4.68316 4.03882C4.47857 3.85879 4.36364 3.61461 4.36364 3.36V0.96H19.0909C19.2355 0.960085 19.3742 1.01068 19.4765 1.10068C19.5788 1.19068 19.6363 1.31272 19.6364 1.44V19.68C19.6363 19.8073 19.5788 19.9293 19.4765 20.0193C19.3742 20.1093 19.2355 20.1599 19.0909 20.16H1.63636C1.49173 20.1599 1.35305 20.1093 1.25078 20.0193C1.1485 19.9293 1.09101 19.8073 1.09091 19.68ZM22.3636 3.84C22.5083 3.84009 22.647 3.89068 22.7492 3.98068C22.8515 4.07068 22.909 4.19272 22.9091 4.32V22.56C22.909 22.6873 22.8515 22.8093 22.7492 22.8993C22.647 22.9893 22.5083 23.0399 22.3636 23.04H4.90909C4.76446 23.0399 4.62577 22.9893 4.5235 22.8993C4.42123 22.8093 4.36373 22.6873 4.36364 22.56V21.12H19.0909C19.5248 21.1196 19.9407 20.9677 20.2475 20.6978C20.5542 20.4278 20.7268 20.0618 20.7273 19.68V3.84H22.3636Z" fill="#F2994A"/>
<path d="M10.3638 3.35996H16.9093C17.0539 3.35996 17.1927 3.30939 17.295 3.21937C17.3973 3.12936 17.4547 3.00727 17.4547 2.87996C17.4547 2.75266 17.3973 2.63057 17.295 2.54055C17.1927 2.45053 17.0539 2.39996 16.9093 2.39996H10.3638C10.2192 2.39996 10.0804 2.45053 9.97812 2.54055C9.87583 2.63057 9.81836 2.75266 9.81836 2.87996C9.81836 3.00727 9.87583 3.12936 9.97812 3.21937C10.0804 3.30939 10.2192 3.35996 10.3638 3.35996Z" fill="#F2994A"/>
<path d="M16.9091 4.32001H12C11.8554 4.32001 11.7166 4.37058 11.6143 4.4606C11.5121 4.55061 11.4546 4.6727 11.4546 4.80001C11.4546 4.92731 11.5121 5.0494 11.6143 5.13942C11.7166 5.22944 11.8554 5.28001 12 5.28001H16.9091C17.0538 5.28001 17.1925 5.22944 17.2948 5.13942C17.3971 5.0494 17.4546 4.92731 17.4546 4.80001C17.4546 4.6727 17.3971 4.55061 17.2948 4.4606C17.1925 4.37058 17.0538 4.32001 16.9091 4.32001Z" fill="#F2994A"/>
<path d="M3.81804 8.16001H16.9089C17.0536 8.16001 17.1923 8.10944 17.2946 8.01942C17.3969 7.92941 17.4544 7.80732 17.4544 7.68001C17.4544 7.55271 17.3969 7.43062 17.2946 7.3406C17.1923 7.25058 17.0536 7.20001 16.9089 7.20001H3.81804C3.67337 7.20001 3.53464 7.25058 3.43234 7.3406C3.33005 7.43062 3.27258 7.55271 3.27258 7.68001C3.27258 7.80732 3.33005 7.92941 3.43234 8.01942C3.53464 8.10944 3.67337 8.16001 3.81804 8.16001Z" fill="#F2994A"/>
<path d="M3.81804 11.04H16.9089C17.0536 11.04 17.1923 10.9894 17.2946 10.8994C17.3969 10.8094 17.4544 10.6873 17.4544 10.56C17.4544 10.4327 17.3969 10.3106 17.2946 10.2206C17.1923 10.1306 17.0536 10.08 16.9089 10.08H3.81804C3.67337 10.08 3.53464 10.1306 3.43234 10.2206C3.33005 10.3106 3.27258 10.4327 3.27258 10.56C3.27258 10.6873 3.33005 10.8094 3.43234 10.8994C3.53464 10.9894 3.67337 11.04 3.81804 11.04Z" fill="#F2994A"/>
<path d="M3.81804 13.92H16.9089C17.0536 13.92 17.1923 13.8695 17.2946 13.7794C17.3969 13.6894 17.4544 13.5673 17.4544 13.44C17.4544 13.3127 17.3969 13.1906 17.2946 13.1006C17.1923 13.0106 17.0536 12.96 16.9089 12.96H3.81804C3.67337 12.96 3.53464 13.0106 3.43234 13.1006C3.33005 13.1906 3.27258 13.3127 3.27258 13.44C3.27258 13.5673 3.33005 13.6894 3.43234 13.7794C3.53464 13.8695 3.67337 13.92 3.81804 13.92Z" fill="#F2994A"/>
<path d="M13.6362 16.8C13.7809 16.8 13.9196 16.7495 14.0219 16.6594C14.1242 16.5694 14.1817 16.4473 14.1817 16.32C14.1817 16.1927 14.1242 16.0706 14.0219 15.9806C13.9196 15.8906 13.7809 15.84 13.6362 15.84H3.81804C3.67337 15.84 3.53464 15.8906 3.43234 15.9806C3.33005 16.0706 3.27258 16.1927 3.27258 16.32C3.27258 16.4473 3.33005 16.5694 3.43234 16.6594C3.53464 16.7495 3.67337 16.8 3.81804 16.8H13.6362Z" fill="#F2994A"/>
</svg>
