<svg width="24" height="24" viewBox="0 0 24 24" fill="none" xmlns="http://www.w3.org/2000/svg">
<path d="M11.1663 15.7642C11.5958 16.1937 12.3789 16.1937 12.8084 15.7642L17.3558 11.2168C17.8105 10.7621 17.8105 10.0295 17.3558 9.57474C16.9011 9.12 16.1684 9.12 15.7137 9.57474L12 13.2884L8.28632 9.57474C8.05895 9.34737 7.75579 9.22105 7.45263 9.22105C7.14947 9.22105 6.84632 9.34737 6.61895 9.57474C6.16421 10.0295 6.16421 10.7621 6.61895 11.2168L11.1663 15.7642Z" fill="#0059BA"/>
<path d="M12 24C18.6189 24 24 18.6189 24 12C24 5.38105 18.6189 0 12 0C5.38105 0 0 5.38105 0 12C0 18.6189 5.38105 24 12 24ZM12 2.32421C17.3305 2.32421 21.6758 6.66947 21.6758 12C21.6758 17.3305 17.3305 21.6758 12 21.6758C6.66947 21.6758 2.32421 17.3305 2.32421 12C2.32421 6.66947 6.66947 2.32421 12 2.32421Z" fill="#0059BA"/>
</svg>
