<svg width="24" height="24" viewBox="0 0 24 24" fill="none" xmlns="http://www.w3.org/2000/svg">
<path d="M22.1679 10.7984H21.0003C20.9338 10.5576 20.7907 10.3451 20.5927 10.1929C20.3946 10.0406 20.1524 9.95702 19.9027 9.95467H18.6563V6.90667C18.6577 6.84965 18.6439 6.79328 18.6163 6.74335C18.5888 6.69341 18.5484 6.65171 18.4994 6.62251L9.70674 1.54398C9.65718 1.51517 9.60088 1.5 9.54356 1.5C9.48625 1.5 9.42995 1.51517 9.38039 1.54398L0.585002 6.62251C0.535235 6.65136 0.493952 6.69281 0.465314 6.7427C0.436675 6.79259 0.421693 6.84914 0.421877 6.90667V17.0638C0.421878 17.1214 0.43704 17.178 0.465839 17.2278C0.494638 17.2777 0.536059 17.3191 0.585939 17.3479L9.38222 22.4265C9.4321 22.4553 9.48868 22.4704 9.54628 22.4704C9.60537 22.4705 9.66348 22.4553 9.71503 22.4265L14.3438 19.7566V21.6866C14.3433 21.8704 14.3793 22.0524 14.4496 22.2222C14.5199 22.3919 14.6233 22.546 14.7536 22.6756C14.8839 22.8052 15.0386 22.9076 15.2088 22.9769C15.3789 23.0463 15.5611 23.0812 15.7449 23.0797H22.1679C22.3522 23.0814 22.5349 23.0466 22.7056 22.9775C22.8764 22.9083 23.0318 22.806 23.1628 22.6765C23.2939 22.5471 23.3981 22.3929 23.4693 22.2231C23.5406 22.0532 23.5776 21.8709 23.5781 21.6866V12.2132C23.5779 11.8388 23.4294 11.4798 23.1651 11.2147C22.9008 10.9495 22.5423 10.7999 22.1679 10.7984ZM19.9143 10.6109C20.0407 10.6109 20.1618 10.6611 20.2511 10.7504C20.3404 10.8397 20.3906 10.9609 20.3906 11.0872V11.119C20.3906 11.2453 20.3404 11.3665 20.2511 11.4558C20.1618 11.5451 20.0407 11.5953 19.9143 11.5953H18.0075C17.8812 11.5953 17.7601 11.5451 17.6708 11.4558C17.5814 11.3665 17.5313 11.2453 17.5313 11.119V11.0872C17.5313 10.9609 17.5814 10.8397 17.6708 10.7504C17.7601 10.6611 17.8812 10.6109 18.0075 10.6109H19.9143ZM9.54628 2.20702L13.2013 4.31724L5.06185 9.01656L1.40686 6.90634L9.54628 2.20702ZM9.23438 21.5739L1.07813 16.8743V7.47428L9.23438 12.1739V21.5739ZM9.54628 11.6056L5.7181 9.3954L13.8576 4.69613L17.6859 6.90634L9.54628 11.6056ZM14.3438 12.2132V18.9989L9.89063 21.5739V12.1739L18 7.47428V9.95467H18.0102C17.7604 9.95701 17.5182 10.0406 17.3201 10.1928C17.1221 10.3451 16.979 10.5576 16.9125 10.7984H15.7449C15.3715 10.8002 15.0141 10.9503 14.7513 11.2156C14.4885 11.4809 14.3419 11.8398 14.3438 12.2132ZM22.9219 21.6866C22.9214 21.7847 22.9015 21.8817 22.8632 21.972C22.825 22.0623 22.7691 22.1442 22.699 22.2127C22.6289 22.2813 22.5458 22.3352 22.4546 22.3714C22.3634 22.4075 22.266 22.4252 22.1679 22.4234H15.7449C15.6473 22.4251 15.5504 22.4072 15.4598 22.3708C15.3692 22.3345 15.2868 22.2804 15.2174 22.2118C15.148 22.1431 15.093 22.0613 15.0557 21.9712C15.0184 21.881 14.9994 21.7842 15 21.6866V12.2132C14.999 12.1145 15.0175 12.0165 15.0544 11.9249C15.0913 11.8333 15.146 11.7499 15.2151 11.6795C15.2843 11.609 15.3667 11.5529 15.4576 11.5143C15.5485 11.4757 15.6461 11.4555 15.7449 11.4547H16.9253C16.9957 11.6869 17.1394 11.8901 17.335 12.0338C17.5306 12.1775 17.7675 12.2539 18.0102 12.2515H19.9027C20.1453 12.2539 20.3822 12.1775 20.5778 12.0338C20.7734 11.8901 20.9171 11.6869 20.9875 11.4547H22.1679C22.3683 11.4559 22.56 11.5364 22.7013 11.6785C22.8425 11.8206 22.9218 12.0128 22.9219 12.2132V21.6866Z" fill="white"/>
<path d="M16.1226 15.2344H16.4661C16.5531 15.2344 16.6366 15.1998 16.6981 15.1383C16.7596 15.0767 16.7942 14.9933 16.7942 14.9062C16.7942 14.8192 16.7596 14.7358 16.6981 14.6742C16.6366 14.6127 16.5531 14.5781 16.4661 14.5781H16.4531V13.6875H17.3582C17.3787 13.7535 17.4204 13.8109 17.4768 13.8509C17.5331 13.8909 17.601 13.9114 17.6701 13.9091C17.7572 13.9093 17.8409 13.875 17.9028 13.8136C17.9646 13.7522 17.9996 13.6688 18 13.5817V13.3609C17.9993 13.2734 17.964 13.1896 17.9019 13.1279C17.8398 13.0662 17.7559 13.0315 17.6683 13.0312H16.1226C16.0796 13.0315 16.037 13.0402 15.9973 13.0569C15.9576 13.0736 15.9216 13.0979 15.8914 13.1285C15.8611 13.1592 15.8372 13.1954 15.821 13.2353C15.8048 13.2752 15.7966 13.3179 15.7969 13.3609V14.9066C15.7966 14.9496 15.8049 14.9921 15.8211 15.0319C15.8374 15.0716 15.8613 15.1078 15.8916 15.1382C15.9219 15.1687 15.9579 15.1929 15.9975 15.2094C16.0372 15.2259 16.0797 15.2344 16.1226 15.2344Z" fill="white"/>
<path d="M16.125 18.2344H17.6719C17.7589 18.2344 17.8424 18.1998 17.9039 18.1383C17.9654 18.0767 18 17.9933 18 17.9062V16.3594C18 16.2724 17.9654 16.1889 17.9039 16.1274C17.8424 16.0658 17.7589 16.0312 17.6719 16.0312H16.125C16.038 16.0312 15.9545 16.0658 15.893 16.1274C15.8314 16.1889 15.7969 16.2724 15.7969 16.3594V17.9062C15.7969 17.9933 15.8314 18.0767 15.893 18.1383C15.9545 18.1998 16.038 18.2344 16.125 18.2344ZM16.4531 16.6875H17.3438V17.5781H16.4531V16.6875Z" fill="white"/>
<path d="M16.4661 20.5781H16.4531V19.6875H17.3404C17.3421 19.7738 17.3776 19.856 17.4392 19.9164C17.5008 19.9769 17.5836 20.0108 17.6699 20.0109C17.7562 20.011 17.8391 19.9772 17.9008 19.9169C17.9626 19.8566 17.9982 19.7744 18 19.6882V19.372C17.9997 19.2833 17.9649 19.1982 17.903 19.1346C17.8412 19.071 17.757 19.034 17.6683 19.0312H16.1226C16.0346 19.0342 15.9512 19.0715 15.8903 19.1352C15.8294 19.1989 15.7959 19.2839 15.7969 19.372V20.9177C15.7969 20.9601 15.8053 21.002 15.8218 21.041C15.8383 21.0801 15.8624 21.1154 15.8928 21.1449C15.9231 21.1745 15.9591 21.1976 15.9986 21.213C16.0381 21.2283 16.0803 21.2356 16.1226 21.2344H16.4661C16.5532 21.2344 16.6366 21.1998 16.6982 21.1383C16.7597 21.0767 16.7943 20.9933 16.7943 20.9063C16.7943 20.8192 16.7597 20.7358 16.6982 20.6742C16.6366 20.6127 16.5532 20.5781 16.4661 20.5781Z" fill="white"/>
<path d="M18.4238 13.434L17.4628 14.3949L17.1705 14.1026C17.1401 14.0721 17.1039 14.0479 17.0641 14.0314C17.0243 14.0149 16.9816 14.0065 16.9385 14.0065C16.8954 14.0065 16.8527 14.0149 16.8129 14.0314C16.7731 14.0479 16.7369 14.0721 16.7065 14.1026C16.676 14.133 16.6518 14.1692 16.6353 14.209C16.6188 14.2488 16.6104 14.2915 16.6104 14.3346C16.6104 14.3777 16.6188 14.4204 16.6353 14.4602C16.6518 14.5 16.676 14.5362 16.7065 14.5666L17.2309 15.091C17.2613 15.1214 17.2975 15.1456 17.3373 15.1621C17.3771 15.1786 17.4198 15.1871 17.4629 15.1871C17.506 15.1871 17.5486 15.1786 17.5885 15.1621C17.6283 15.1456 17.6644 15.1214 17.6949 15.091L18.888 13.8979C18.9495 13.8364 18.9841 13.7529 18.9841 13.6659C18.9841 13.5789 18.9495 13.4954 18.888 13.4338C18.8264 13.3723 18.743 13.3377 18.6559 13.3377C18.5689 13.3377 18.4855 13.3723 18.4239 13.4338L18.4238 13.434Z" fill="white"/>
<path d="M18.4238 19.4926L17.4628 20.4535L17.1705 20.1611C17.1401 20.1307 17.1039 20.1065 17.0641 20.09C17.0243 20.0735 16.9816 20.065 16.9385 20.065C16.8954 20.065 16.8527 20.0735 16.8129 20.09C16.7731 20.1065 16.7369 20.1307 16.7065 20.1611C16.676 20.1916 16.6518 20.2278 16.6353 20.2676C16.6188 20.3074 16.6104 20.3501 16.6104 20.3932C16.6104 20.4363 16.6188 20.4789 16.6353 20.5187C16.6518 20.5585 16.676 20.5947 16.7065 20.6252L17.2309 21.1495C17.2613 21.18 17.2975 21.2042 17.3373 21.2207C17.3771 21.2372 17.4198 21.2457 17.4629 21.2457C17.506 21.2457 17.5486 21.2372 17.5885 21.2207C17.6283 21.2042 17.6644 21.18 17.6949 21.1495L18.888 19.9565C18.9495 19.8949 18.9841 19.8115 18.9841 19.7244C18.9841 19.6374 18.9495 19.554 18.888 19.4924C18.8264 19.4309 18.743 19.3963 18.6559 19.3963C18.5689 19.3963 18.4855 19.4309 18.4239 19.4924L18.4238 19.4926Z" fill="white"/>
<path d="M21.7902 13.8281H19.7292C19.6422 13.8281 19.5588 13.8627 19.4972 13.9242C19.4357 13.9858 19.4011 14.0692 19.4011 14.1562C19.4011 14.2433 19.4357 14.3267 19.4972 14.3883C19.5588 14.4498 19.6422 14.4844 19.7292 14.4844H21.7902C21.8772 14.4844 21.9606 14.4498 22.0222 14.3883C22.0837 14.3267 22.1183 14.2433 22.1183 14.1562C22.1183 14.0692 22.0837 13.9858 22.0222 13.9242C21.9606 13.8627 21.8772 13.8281 21.7902 13.8281Z" fill="white"/>
<path d="M21.7902 16.8281H19.7292C19.6422 16.8281 19.5588 16.8627 19.4972 16.9242C19.4357 16.9858 19.4011 17.0692 19.4011 17.1562C19.4011 17.2433 19.4357 17.3267 19.4972 17.3883C19.5588 17.4498 19.6422 17.4844 19.7292 17.4844H21.7902C21.8772 17.4844 21.9606 17.4498 22.0222 17.3883C22.0837 17.3267 22.1183 17.2433 22.1183 17.1562C22.1183 17.0692 22.0837 16.9858 22.0222 16.9242C21.9606 16.8627 21.8772 16.8281 21.7902 16.8281Z" fill="white"/>
<path d="M21.7902 19.8281H19.7292C19.6422 19.8281 19.5588 19.8627 19.4972 19.9242C19.4357 19.9858 19.4011 20.0692 19.4011 20.1562C19.4011 20.2433 19.4357 20.3267 19.4972 20.3883C19.5588 20.4498 19.6422 20.4844 19.7292 20.4844H21.7902C21.8772 20.4844 21.9606 20.4498 22.0222 20.3883C22.0837 20.3267 22.1183 20.2433 22.1183 20.1562C22.1183 20.0692 22.0837 19.9858 22.0222 19.9242C21.9606 19.8627 21.8772 19.8281 21.7902 19.8281Z" fill="white"/>
</svg>
