<svg width="72" height="72" viewBox="0 0 72 72" fill="none" xmlns="http://www.w3.org/2000/svg">
<path d="M27.5999 43.2001C20.9723 43.2001 15.5999 48.5725 15.5999 55.2001C15.5999 61.8276 20.9723 67.2001 27.5999 67.2001C34.2274 67.2001 39.5999 61.8276 39.5999 55.2001C39.5928 48.5755 34.2245 43.2071 27.5999 43.2001ZM27.5999 64.8001C22.2977 64.8001 17.9999 60.5022 17.9999 55.2001C17.9999 49.8979 22.2977 45.6001 27.5999 45.6001C32.902 45.6001 37.1999 49.8979 37.1999 55.2001C37.194 60.4993 32.8991 64.7942 27.5999 64.8001Z" fill="#999999"/>
<path d="M27.5999 51.6C29.0654 51.6 29.9999 52.3102 29.9999 52.8H32.3999C32.3999 51.0949 30.8894 49.7139 28.7999 49.3201V48H26.3999V49.3201C24.3105 49.7109 22.7999 51.0926 22.7999 52.8C22.7999 54.8197 24.9081 56.4 27.5999 56.4C29.0654 56.4 29.9999 57.1102 29.9999 57.6C29.9999 58.0898 29.0654 58.8 27.5999 58.8C26.1345 58.8 25.1999 58.0898 25.1999 57.6H22.7999C22.7999 59.3051 24.3105 60.6861 26.3999 61.0799V62.4H28.7999V61.0799C30.8894 60.6891 32.3999 59.3074 32.3999 57.6C32.3999 55.5803 30.2917 54 27.5999 54C26.1345 54 25.1999 53.2898 25.1999 52.8C25.1999 52.3102 26.1345 51.6 27.5999 51.6Z" fill="#999999"/>
<path d="M61.2 69.6H10.8V40.8H30C31.9881 40.8 33.6 39.1881 33.6 37.2V7.2H46.8V21.6H61.2V38.4H63.6V19.9031L48.4969 4.8H33.6V3.6C33.6 1.61191 31.9881 0 30 0H3.6C1.61191 0 0 1.61191 0 3.6V37.2C0 39.1881 1.61191 40.8 3.6 40.8H8.4V72H63.6V55.2H61.2V69.6ZM49.2 8.89688L59.5031 19.2H49.2V8.89688ZM2.4 37.2V3.6C2.4 2.9373 2.9373 2.4 3.6 2.4H30C30.6627 2.4 31.2 2.9373 31.2 3.6V37.2C31.2 37.8627 30.6627 38.4 30 38.4H3.6C2.9373 38.4 2.4 37.8627 2.4 37.2Z" fill="#999999"/>
<path d="M38.4001 30H40.8001V32.4H38.4001V30Z" fill="#999999"/>
<path d="M43.2001 30H57.6001V32.4H43.2001V30Z" fill="#999999"/>
<path d="M38.4001 25.2001H40.8001V27.6001H38.4001V25.2001Z" fill="#999999"/>
<path d="M43.2001 25.2001H57.6001V27.6001H43.2001V25.2001Z" fill="#999999"/>
<path d="M38.4001 34.7999H40.8001V37.1999H38.4001V34.7999Z" fill="#999999"/>
<path d="M43.2001 34.7999H57.6001V37.1999H43.2001V34.7999Z" fill="#999999"/>
<path d="M38.4001 39.6H40.8001V42H38.4001V39.6Z" fill="#999999"/>
<path d="M43.2001 39.6H57.6001V42H43.2001V39.6Z" fill="#999999"/>
<path d="M29.9999 3.59998H3.59985V12H29.9999V3.59998ZM27.5999 9.59997H5.99985V5.99997H27.5999V9.59997Z" fill="#999999"/>
<path d="M9.59993 13.2001H7.19993C5.87454 13.2001 4.79993 14.2747 4.79993 15.6001V18.0001C4.79993 19.3255 5.87454 20.4001 7.19993 20.4001H9.59993C10.9253 20.4001 11.9999 19.3255 11.9999 18.0001V15.6001C11.9999 14.2747 10.9253 13.2001 9.59993 13.2001ZM7.19993 18.0001V15.6001H9.59993V18.0001H7.19993Z" fill="#999999"/>
<path d="M18.0001 13.2001H15.6001C14.2747 13.2001 13.2001 14.2747 13.2001 15.6001V18.0001C13.2001 19.3255 14.2747 20.4001 15.6001 20.4001H18.0001C19.3255 20.4001 20.4001 19.3255 20.4001 18.0001V15.6001C20.4001 14.2747 19.3255 13.2001 18.0001 13.2001ZM15.6001 18.0001V15.6001H18.0001V18.0001H15.6001Z" fill="#999999"/>
<path d="M26.3999 13.2001H23.9999C22.6745 13.2001 21.5999 14.2747 21.5999 15.6001V18.0001C21.5999 19.3255 22.6745 20.4001 23.9999 20.4001H26.3999C27.7252 20.4001 28.7999 19.3255 28.7999 18.0001V15.6001C28.7999 14.2747 27.7252 13.2001 26.3999 13.2001ZM23.9999 18.0001V15.6001H26.3999V18.0001H23.9999Z" fill="#999999"/>
<path d="M9.59993 21.6H7.19993C5.87454 21.6 4.79993 22.6746 4.79993 24V26.4C4.79993 27.7254 5.87454 28.8 7.19993 28.8H9.59993C10.9253 28.8 11.9999 27.7254 11.9999 26.4V24C11.9999 22.6746 10.9253 21.6 9.59993 21.6ZM7.19993 26.4V24H9.59993V26.4H7.19993Z" fill="#999999"/>
<path d="M18.0001 21.6H15.6001C14.2747 21.6 13.2001 22.6746 13.2001 24V26.4C13.2001 27.7254 14.2747 28.8 15.6001 28.8H18.0001C19.3255 28.8 20.4001 27.7254 20.4001 26.4V24C20.4001 22.6746 19.3255 21.6 18.0001 21.6ZM15.6001 26.4V24H18.0001V26.4H15.6001Z" fill="#999999"/>
<path d="M26.3999 21.6H23.9999C22.6745 21.6 21.5999 22.6746 21.5999 24V26.4C21.5999 27.7254 22.6745 28.8 23.9999 28.8H26.3999C27.7252 28.8 28.7999 27.7254 28.7999 26.4V24C28.7999 22.6746 27.7252 21.6 26.3999 21.6ZM23.9999 26.4V24H26.3999V26.4H23.9999Z" fill="#999999"/>
<path d="M9.59993 30H7.19993C5.87454 30 4.79993 31.0746 4.79993 32.4V34.8C4.79993 36.1254 5.87454 37.2 7.19993 37.2H9.59993C10.9253 37.2 11.9999 36.1254 11.9999 34.8V32.4C11.9999 31.0746 10.9253 30 9.59993 30ZM7.19993 34.8V32.4H9.59993V34.8H7.19993Z" fill="#999999"/>
<path d="M18.0001 30H15.6001C14.2747 30 13.2001 31.0746 13.2001 32.4V34.8C13.2001 36.1254 14.2747 37.2 15.6001 37.2H18.0001C19.3255 37.2 20.4001 36.1254 20.4001 34.8V32.4C20.4001 31.0746 19.3255 30 18.0001 30ZM15.6001 34.8V32.4H18.0001V34.8H15.6001Z" fill="#999999"/>
<path d="M26.3999 30H23.9999C22.6745 30 21.5999 31.0746 21.5999 32.4V34.8C21.5999 36.1254 22.6745 37.2 23.9999 37.2H26.3999C27.7252 37.2 28.7999 36.1254 28.7999 34.8V32.4C28.7999 31.0746 27.7252 30 26.3999 30ZM23.9999 34.8V32.4H26.3999V34.8H23.9999Z" fill="#999999"/>
<path d="M70.9101 38.2899C69.4856 36.9299 67.2444 36.9299 65.82 38.2899L45.2483 58.861C45.1487 58.9618 45.0673 59.0789 45.0081 59.2078L42.1112 65.4985C41.902 65.9543 41.9987 66.4928 42.3538 66.8473C42.7083 67.2024 43.2468 67.2991 43.7026 67.0899L49.9933 64.193C50.1222 64.1338 50.2394 64.053 50.3401 63.9528L70.9101 43.3811C72.3163 41.9754 72.3163 39.6955 70.9101 38.2899ZM48.7933 62.1024L45.6491 63.5508L47.0976 60.4067L62.4356 45.0674L64.1325 46.7643L48.7933 62.1024ZM65.8329 45.0621L64.136 43.3658L64.9763 42.5256L66.6731 44.2225L65.8329 45.0621ZM69.2173 41.6783L68.3688 42.5268L66.672 40.8299L67.5216 39.9815C67.9956 39.528 68.7427 39.528 69.2173 39.9815C69.6854 40.4502 69.6854 41.2096 69.2173 41.6783Z" fill="#999999"/>
</svg>
