<svg width="72" height="72" viewBox="0 0 72 72" fill="none" xmlns="http://www.w3.org/2000/svg">
<path d="M66.5038 32.3952H63.001C62.8014 31.6729 62.3722 31.0353 61.7781 30.5786C61.1839 30.1219 60.4573 29.8711 59.708 29.864H55.9688V20.72C55.973 20.5489 55.9316 20.3798 55.8489 20.23C55.7663 20.0802 55.6452 19.9551 55.4982 19.8675L29.1202 4.63193C28.9715 4.54552 28.8026 4.5 28.6307 4.5C28.4587 4.5 28.2898 4.54552 28.1412 4.63193L1.755 19.8675C1.60571 19.9541 1.48186 20.0784 1.39594 20.2281C1.31002 20.3778 1.26508 20.5474 1.26563 20.72V51.1913C1.26563 51.3641 1.31112 51.5339 1.39752 51.6835C1.48391 51.8331 1.60818 51.9574 1.75782 52.0438L28.1467 67.2794C28.2963 67.3658 28.4661 67.4113 28.6388 67.4113C28.8161 67.4114 28.9904 67.366 29.1451 67.2794L43.0313 59.2698V65.0599C43.0298 65.6112 43.1377 66.1572 43.3488 66.6665C43.5598 67.1758 43.8698 67.6381 44.2607 68.0268C44.6516 68.4155 45.1158 68.7227 45.6263 68.9308C46.1367 69.1389 46.6834 69.2436 47.2347 69.239H66.5038C67.0565 69.2441 67.6047 69.1399 68.1169 68.9324C68.6292 68.7248 69.0953 68.418 69.4885 68.0296C69.8817 67.6412 70.1942 67.1788 70.408 66.6692C70.6218 66.1595 70.7327 65.6126 70.7344 65.0599V36.6396C70.7337 35.5165 70.2882 34.4394 69.4954 33.644C68.7025 32.8486 67.6269 32.3996 66.5038 32.3952ZM59.743 31.8327C60.122 31.8327 60.4854 31.9833 60.7534 32.2513C61.0213 32.5192 61.1719 32.8827 61.1719 33.2616V33.357C61.1719 33.7359 61.0213 34.0994 60.7534 34.3674C60.4854 34.6353 60.122 34.7859 59.743 34.7859H54.0226C53.6437 34.7859 53.2802 34.6353 53.0123 34.3674C52.7443 34.0994 52.5938 33.7359 52.5938 33.357V33.2616C52.5938 32.8827 52.7443 32.5192 53.0123 32.2513C53.2802 31.9833 53.6437 31.8327 54.0226 31.8327H59.743ZM28.6388 6.62107L39.6039 12.9517L15.1855 27.0497L4.22058 20.719L28.6388 6.62107ZM27.7031 64.7218L3.23438 50.6229V22.4228L27.7031 36.5217V64.7218ZM28.6388 34.8168L17.1543 28.1862L41.5727 14.0884L53.0578 20.719L28.6388 34.8168ZM43.0313 36.6396V56.9966L29.6719 64.7218V36.5217L54 22.4228V29.864H54.0305C53.2812 29.871 52.5545 30.1219 51.9604 30.5785C51.3663 31.0352 50.937 31.6729 50.7375 32.3952H47.2347C46.1144 32.4007 45.0422 32.8509 44.2539 33.6469C43.4656 34.4428 43.0258 35.5194 43.0313 36.6396ZM68.7656 65.0599C68.7643 65.3541 68.7045 65.6452 68.5897 65.9161C68.4749 66.187 68.3074 66.4325 68.097 66.6381C67.8866 66.8438 67.6373 67.0056 67.3638 67.1141C67.0903 67.2226 66.798 67.2757 66.5038 67.2703H47.2347C46.9419 67.2752 46.6511 67.2216 46.3793 67.1125C46.1076 67.0035 45.8604 66.8413 45.6522 66.6354C45.444 66.4294 45.2791 66.184 45.1671 65.9135C45.0551 65.6429 44.9983 65.3527 45 65.0599V36.6396C44.997 36.3434 45.0525 36.0495 45.1633 35.7747C45.274 35.4999 45.4379 35.2497 45.6454 35.0384C45.853 34.827 46.1002 34.6586 46.3729 34.5429C46.6456 34.4272 46.9384 34.3664 47.2347 34.364H50.7759C50.987 35.0608 51.4183 35.6704 52.0051 36.1014C52.5918 36.5324 53.3025 36.7616 54.0305 36.7546H59.708C60.436 36.7616 61.1466 36.5324 61.7334 36.1014C62.3202 35.6704 62.7514 35.0608 62.9625 34.364H66.5038C67.1049 34.3678 67.6801 34.6092 68.1038 35.0355C68.5276 35.4619 68.7655 36.0385 68.7656 36.6396V65.0599Z" fill="#999999"/>
<path d="M48.368 45.7031H49.3983C49.6594 45.7031 49.9098 45.5994 50.0944 45.4148C50.279 45.2302 50.3827 44.9798 50.3827 44.7188C50.3827 44.4577 50.279 44.2073 50.0944 44.0227C49.9098 43.8381 49.6594 43.7344 49.3983 43.7344H49.3595V41.0625H52.0746C52.1364 41.2604 52.2614 41.4326 52.4304 41.5527C52.5995 41.6728 52.8032 41.7341 53.0104 41.7272C53.2718 41.7279 53.5228 41.6249 53.7084 41.4408C53.8939 41.2567 53.9989 41.0065 54.0002 40.7451V40.0828C53.9979 39.8201 53.8922 39.5689 53.7059 39.3837C53.5196 39.1986 53.2678 39.0944 53.0051 39.0938H48.368C48.2388 39.0944 48.1111 39.1205 47.9921 39.1706C47.873 39.2207 47.7651 39.2938 47.6743 39.3856C47.5835 39.4775 47.5118 39.5863 47.4631 39.706C47.4145 39.8256 47.3899 39.9536 47.3908 40.0828V44.7199C47.39 44.8487 47.4147 44.9764 47.4635 45.0957C47.5122 45.2149 47.5841 45.3234 47.6749 45.4147C47.7657 45.5061 47.8737 45.5786 47.9926 45.6281C48.1116 45.6776 48.2391 45.7031 48.368 45.7031Z" fill="#999999"/>
<path d="M48.375 54.7031H53.0156C53.2767 54.7031 53.5271 54.5994 53.7117 54.4148C53.8963 54.2302 54 53.9798 54 53.7188V49.0781C54 48.8171 53.8963 48.5667 53.7117 48.3821C53.5271 48.1975 53.2767 48.0938 53.0156 48.0938H48.375C48.1139 48.0938 47.8635 48.1975 47.6789 48.3821C47.4943 48.5667 47.3906 48.8171 47.3906 49.0781V53.7188C47.3906 53.9798 47.4943 54.2302 47.6789 54.4148C47.8635 54.5994 48.1139 54.7031 48.375 54.7031ZM49.3594 50.0625H52.0312V52.7344H49.3594V50.0625Z" fill="#999999"/>
<path d="M49.3984 61.7344H49.3594V59.0625H52.0213C52.0264 59.3214 52.1328 59.5679 52.3175 59.7493C52.5023 59.9307 52.7508 60.0324 53.0097 60.0327C53.2687 60.0329 53.5174 59.9317 53.7025 59.7507C53.8877 59.5697 53.9945 59.3233 54.0001 59.0645V58.116C53.9991 57.8498 53.8948 57.5945 53.7091 57.4038C53.5235 57.2131 53.271 57.1019 53.005 57.0938H48.3679C48.1037 57.1026 47.8535 57.2146 47.6709 57.4056C47.4883 57.5967 47.3877 57.8517 47.3907 58.116V62.7531C47.3906 62.8802 47.416 63.006 47.4654 63.1231C47.5148 63.2402 47.5872 63.3462 47.6783 63.4348C47.7694 63.5234 47.8774 63.5928 47.9959 63.6389C48.1143 63.685 48.2408 63.7068 48.3679 63.7031H49.3984C49.6595 63.7031 49.9099 63.5994 50.0945 63.4148C50.2791 63.2302 50.3828 62.9798 50.3828 62.7188C50.3828 62.4577 50.2791 62.2073 50.0945 62.0227C49.9099 61.8381 49.6595 61.7344 49.3984 61.7344Z" fill="#999999"/>
<path d="M55.2713 40.3019L52.3885 43.1848L51.5116 42.3077C51.4202 42.2163 51.3116 42.1438 51.1922 42.0943C51.0728 42.0448 50.9448 42.0193 50.8155 42.0193C50.6862 42.0193 50.5582 42.0448 50.4388 42.0943C50.3193 42.1438 50.2108 42.2163 50.1194 42.3077C50.028 42.3991 49.9555 42.5076 49.906 42.627C49.8565 42.7465 49.8311 42.8745 49.8311 43.0038C49.8311 43.133 49.8565 43.2611 49.906 43.3805C49.9555 43.4999 50.028 43.6085 50.1194 43.6999L51.6926 45.2729C51.784 45.3643 51.8925 45.4368 52.0119 45.4863C52.1314 45.5358 52.2594 45.5612 52.3887 45.5612C52.5179 45.5612 52.6459 45.5358 52.7654 45.4863C52.8848 45.4368 52.9933 45.3643 53.0847 45.2729L56.6639 41.6937C56.8486 41.5091 56.9523 41.2587 56.9523 40.9976C56.9523 40.7365 56.8486 40.4861 56.6639 40.3015C56.4793 40.1169 56.2289 40.0132 55.9678 40.0132C55.7068 40.0132 55.4564 40.1169 55.2718 40.3015L55.2713 40.3019Z" fill="#999999"/>
<path d="M55.2713 58.4776L52.3885 61.3604L51.5116 60.4833C51.4202 60.3919 51.3116 60.3194 51.1922 60.2699C51.0728 60.2205 50.9448 60.195 50.8155 60.195C50.6862 60.195 50.5582 60.2205 50.4388 60.2699C50.3193 60.3194 50.2108 60.3919 50.1194 60.4833C50.028 60.5747 49.9555 60.6833 49.906 60.8027C49.8565 60.9221 49.8311 61.0501 49.8311 61.1794C49.8311 61.3087 49.8565 61.4367 49.906 61.5561C49.9555 61.6756 50.028 61.7841 50.1194 61.8755L51.6926 63.4485C51.784 63.54 51.8925 63.6125 52.0119 63.662C52.1314 63.7114 52.2594 63.7369 52.3887 63.7369C52.5179 63.7369 52.6459 63.7114 52.7654 63.662C52.8848 63.6125 52.9933 63.54 53.0847 63.4485L56.6639 59.8694C56.8486 59.6847 56.9523 59.4344 56.9523 59.1733C56.9523 58.9122 56.8486 58.6618 56.6639 58.4772C56.4793 58.2926 56.2289 58.1888 55.9678 58.1888C55.7068 58.1888 55.4564 58.2926 55.2718 58.4772L55.2713 58.4776Z" fill="#999999"/>
<path d="M65.3702 41.4844H59.1875C58.9264 41.4844 58.676 41.5881 58.4914 41.7727C58.3068 41.9573 58.2031 42.2077 58.2031 42.4688C58.2031 42.7298 58.3068 42.9802 58.4914 43.1648C58.676 43.3494 58.9264 43.4531 59.1875 43.4531H65.3702C65.6313 43.4531 65.8817 43.3494 66.0663 43.1648C66.2509 42.9802 66.3546 42.7298 66.3546 42.4688C66.3546 42.2077 66.2509 41.9573 66.0663 41.7727C65.8817 41.5881 65.6313 41.4844 65.3702 41.4844Z" fill="#999999"/>
<path d="M65.3702 50.4844H59.1875C58.9264 50.4844 58.676 50.5881 58.4914 50.7727C58.3068 50.9573 58.2031 51.2077 58.2031 51.4688C58.2031 51.7298 58.3068 51.9802 58.4914 52.1648C58.676 52.3494 58.9264 52.4531 59.1875 52.4531H65.3702C65.6313 52.4531 65.8817 52.3494 66.0663 52.1648C66.2509 51.9802 66.3546 51.7298 66.3546 51.4688C66.3546 51.2077 66.2509 50.9573 66.0663 50.7727C65.8817 50.5881 65.6313 50.4844 65.3702 50.4844Z" fill="#999999"/>
<path d="M65.3702 59.4844H59.1875C58.9264 59.4844 58.676 59.5881 58.4914 59.7727C58.3068 59.9573 58.2031 60.2077 58.2031 60.4688C58.2031 60.7298 58.3068 60.9802 58.4914 61.1648C58.676 61.3494 58.9264 61.4531 59.1875 61.4531H65.3702C65.6313 61.4531 65.8817 61.3494 66.0663 61.1648C66.2509 60.9802 66.3546 60.7298 66.3546 60.4688C66.3546 60.2077 66.2509 59.9573 66.0663 59.7727C65.8817 59.5881 65.6313 59.4844 65.3702 59.4844Z" fill="#999999"/>
</svg>
