<svg width="36" height="36" viewBox="0 0 36 36" fill="none" xmlns="http://www.w3.org/2000/svg">
<path d="M33.2519 16.1976H31.5005C31.4007 15.8365 31.1861 15.5176 30.889 15.2893C30.592 15.0609 30.2286 14.9355 29.854 14.932H27.9844V10.36C27.9865 10.2745 27.9658 10.1899 27.9245 10.115C27.8831 10.0401 27.8226 9.97756 27.7491 9.93376L14.5601 2.31597C14.4858 2.27276 14.4013 2.25 14.3153 2.25C14.2294 2.25 14.1449 2.27276 14.0706 2.31597L0.877502 9.93376C0.802853 9.97704 0.740928 10.0392 0.69797 10.1141C0.655012 10.1889 0.632539 10.2737 0.632815 10.36V25.5957C0.632817 25.6821 0.65556 25.7669 0.698759 25.8417C0.741957 25.9166 0.804089 25.9787 0.878909 26.0219L14.0733 33.6397C14.1482 33.6829 14.233 33.7056 14.3194 33.7056C14.4081 33.7057 14.4952 33.683 14.5725 33.6397L21.5156 29.6349V32.53C21.5149 32.8056 21.5689 33.0786 21.6744 33.3333C21.7799 33.5879 21.9349 33.8191 22.1304 34.0134C22.3258 34.2077 22.5579 34.3614 22.8131 34.4654C23.0684 34.5694 23.3417 34.6218 23.6173 34.6195H33.2519C33.5282 34.6221 33.8024 34.57 34.0585 34.4662C34.3146 34.3624 34.5477 34.209 34.7443 34.0148C34.9409 33.8206 35.0971 33.5894 35.204 33.3346C35.3109 33.0798 35.3664 32.8063 35.3672 32.53V18.3198C35.3669 17.7583 35.1441 17.2197 34.7477 16.822C34.3513 16.4243 33.8134 16.1998 33.2519 16.1976ZM29.8715 15.9164C30.061 15.9164 30.2427 15.9916 30.3767 16.1256C30.5107 16.2596 30.5859 16.4413 30.5859 16.6308V16.6785C30.5859 16.868 30.5107 17.0497 30.3767 17.1837C30.2427 17.3177 30.061 17.3929 29.8715 17.3929H27.0113C26.8218 17.3929 26.6401 17.3177 26.5061 17.1837C26.3721 17.0497 26.2969 16.868 26.2969 16.6785V16.6308C26.2969 16.4413 26.3721 16.2596 26.5061 16.1256C26.6401 15.9916 26.8218 15.9164 27.0113 15.9164H29.8715ZM14.3194 3.31054L19.802 6.47586L7.59277 13.5248L2.11029 10.3595L14.3194 3.31054ZM13.8516 32.3609L1.61719 25.3115V11.2114L13.8516 18.2609V32.3609ZM14.3194 17.4084L8.57714 14.0931L20.7863 7.0442L26.5289 10.3595L14.3194 17.4084ZM21.5156 18.3198V28.4983L14.8359 32.3609V18.2609L27 11.2114V14.932H27.0153C26.6406 14.9355 26.2773 15.0609 25.9802 15.2893C25.6831 15.5176 25.4685 15.8365 25.3688 16.1976H23.6173C23.0572 16.2003 22.5211 16.4255 22.127 16.8234C21.7328 17.2214 21.5129 17.7597 21.5156 18.3198ZM34.3828 32.53C34.3821 32.6771 34.3522 32.8226 34.2948 32.9581C34.2375 33.0935 34.1537 33.2162 34.0485 33.3191C33.9433 33.4219 33.8187 33.5028 33.6819 33.557C33.5452 33.6113 33.399 33.6378 33.2519 33.6351H23.6173C23.471 33.6376 23.3256 33.6108 23.1897 33.5563C23.0538 33.5018 22.9302 33.4206 22.8261 33.3177C22.722 33.2147 22.6395 33.092 22.5835 32.9567C22.5275 32.8215 22.4991 32.6764 22.5 32.53V18.3198C22.4985 18.1717 22.5263 18.0247 22.5816 17.8874C22.637 17.75 22.7189 17.6249 22.8227 17.5192C22.9265 17.4135 23.0501 17.3293 23.1864 17.2715C23.3228 17.2136 23.4692 17.1832 23.6173 17.182H25.3879C25.4935 17.5304 25.7091 17.8352 26.0025 18.0507C26.2959 18.2662 26.6512 18.3808 27.0153 18.3773H29.854C30.218 18.3808 30.5733 18.2662 30.8667 18.0507C31.1601 17.8352 31.3757 17.5304 31.4812 17.182H33.2519C33.5525 17.1839 33.84 17.3046 34.0519 17.5178C34.2638 17.7309 34.3827 18.0192 34.3828 18.3198V32.53Z" fill="#999999"/>
<path d="M24.1839 22.8516H24.6991C24.8296 22.8516 24.9548 22.7997 25.0471 22.7074C25.1394 22.6151 25.1913 22.4899 25.1913 22.3594C25.1913 22.2288 25.1394 22.1036 25.0471 22.0113C24.9548 21.919 24.8296 21.8672 24.6991 21.8672H24.6797V20.5312H26.0372C26.0681 20.6302 26.1306 20.7163 26.2151 20.7763C26.2997 20.8364 26.4015 20.867 26.5052 20.8636C26.6359 20.864 26.7614 20.8125 26.8541 20.7204C26.9469 20.6283 26.9994 20.5033 27 20.3726V20.0414C26.9989 19.9101 26.946 19.7845 26.8529 19.6919C26.7597 19.5993 26.6338 19.5472 26.5025 19.5469H24.1839C24.1194 19.5472 24.0555 19.5603 23.996 19.5853C23.9365 19.6103 23.8825 19.6469 23.8371 19.6928C23.7917 19.7387 23.7558 19.7932 23.7315 19.853C23.7072 19.9128 23.6949 19.9768 23.6953 20.0414V22.3599C23.6949 22.4244 23.7073 22.4882 23.7317 22.5478C23.756 22.6075 23.792 22.6617 23.8374 22.7074C23.8828 22.7531 23.9368 22.7893 23.9963 22.8141C24.0557 22.8388 24.1195 22.8516 24.1839 22.8516Z" fill="#999999"/>
<path d="M24.1875 27.3516H26.5078C26.6383 27.3516 26.7635 27.2997 26.8558 27.2074C26.9481 27.1151 27 26.9899 27 26.8594V24.5391C27 24.4085 26.9481 24.2833 26.8558 24.191C26.7635 24.0987 26.6383 24.0469 26.5078 24.0469H24.1875C24.057 24.0469 23.9318 24.0987 23.8395 24.191C23.7472 24.2833 23.6953 24.4085 23.6953 24.5391V26.8594C23.6953 26.9899 23.7472 27.1151 23.8395 27.2074C23.9318 27.2997 24.057 27.3516 24.1875 27.3516ZM24.6797 25.0312H26.0156V26.3672H24.6797V25.0312Z" fill="#999999"/>
<path d="M24.6992 30.8672H24.6797V29.5313H26.0107C26.0132 29.6607 26.0664 29.784 26.1588 29.8747C26.2512 29.9653 26.3754 30.0162 26.5049 30.0163C26.6343 30.0165 26.7587 29.9658 26.8513 29.8753C26.9438 29.7848 26.9972 29.6617 27 29.5322V29.058C26.9995 28.9249 26.9474 28.7972 26.8546 28.7019C26.7617 28.6065 26.6355 28.551 26.5025 28.5469H24.1839C24.0519 28.5513 23.9268 28.6073 23.8355 28.7028C23.7441 28.7983 23.6938 28.9258 23.6953 29.058V31.3765C23.6953 31.4401 23.708 31.503 23.7327 31.5616C23.7574 31.6201 23.7936 31.6731 23.8392 31.7174C23.8847 31.7617 23.9387 31.7964 23.9979 31.8195C24.0572 31.8425 24.1204 31.8534 24.1839 31.8516H24.6992C24.8297 31.8516 24.9549 31.7997 25.0472 31.7074C25.1395 31.6151 25.1914 31.4899 25.1914 31.3594C25.1914 31.2288 25.1395 31.1037 25.0472 31.0113C24.9549 30.919 24.8297 30.8672 24.6992 30.8672Z" fill="#999999"/>
<path d="M27.6357 20.151L26.1943 21.5924L25.7558 21.1538C25.7101 21.1081 25.6558 21.0719 25.5961 21.0471C25.5364 21.0224 25.4724 21.0097 25.4077 21.0097C25.3431 21.0097 25.2791 21.0224 25.2194 21.0471C25.1597 21.0719 25.1054 21.1081 25.0597 21.1538C25.014 21.1995 24.9777 21.2538 24.953 21.3135C24.9283 21.3732 24.9155 21.4372 24.9155 21.5019C24.9155 21.5665 24.9283 21.6305 24.953 21.6902C24.9777 21.75 25.014 21.8042 25.0597 21.8499L25.8463 22.6364C25.892 22.6822 25.9462 22.7184 26.006 22.7432C26.0657 22.7679 26.1297 22.7806 26.1943 22.7806C26.259 22.7806 26.323 22.7679 26.3827 22.7432C26.4424 22.7184 26.4967 22.6822 26.5424 22.6364L28.332 20.8469C28.4243 20.7545 28.4761 20.6293 28.4761 20.4988C28.4761 20.3683 28.4243 20.2431 28.332 20.1508C28.2397 20.0584 28.1145 20.0066 27.9839 20.0066C27.8534 20.0066 27.7282 20.0584 27.6359 20.1508L27.6357 20.151Z" fill="#999999"/>
<path d="M27.6357 29.2389L26.1943 30.6803L25.7558 30.2417C25.7101 30.196 25.6558 30.1598 25.5961 30.135C25.5364 30.1103 25.4724 30.0976 25.4077 30.0976C25.3431 30.0976 25.2791 30.1103 25.2194 30.135C25.1597 30.1598 25.1054 30.196 25.0597 30.2417C25.014 30.2874 24.9777 30.3417 24.953 30.4014C24.9283 30.4611 24.9155 30.5251 24.9155 30.5898C24.9155 30.6544 24.9283 30.7184 24.953 30.7781C24.9777 30.8379 25.014 30.8921 25.0597 30.9378L25.8463 31.7243C25.892 31.77 25.9462 31.8063 26.006 31.831C26.0657 31.8558 26.1297 31.8685 26.1943 31.8685C26.259 31.8685 26.323 31.8558 26.3827 31.831C26.4424 31.8063 26.4967 31.77 26.5424 31.7243L28.332 29.9347C28.4243 29.8424 28.4761 29.7172 28.4761 29.5867C28.4761 29.4562 28.4243 29.331 28.332 29.2387C28.2397 29.1463 28.1145 29.0945 27.9839 29.0945C27.8534 29.0945 27.7282 29.1463 27.6359 29.2387L27.6357 29.2389Z" fill="#999999"/>
<path d="M32.6851 20.7422H29.5937C29.4632 20.7422 29.338 20.794 29.2457 20.8863C29.1534 20.9786 29.1016 21.1038 29.1016 21.2344C29.1016 21.3649 29.1534 21.4901 29.2457 21.5824C29.338 21.6747 29.4632 21.7266 29.5937 21.7266H32.6851C32.8156 21.7266 32.9408 21.6747 33.0331 21.5824C33.1254 21.4901 33.1773 21.3649 33.1773 21.2344C33.1773 21.1038 33.1254 20.9786 33.0331 20.8863C32.9408 20.794 32.8156 20.7422 32.6851 20.7422Z" fill="#999999"/>
<path d="M32.6851 25.2422H29.5937C29.4632 25.2422 29.338 25.294 29.2457 25.3863C29.1534 25.4786 29.1016 25.6038 29.1016 25.7344C29.1016 25.8649 29.1534 25.9901 29.2457 26.0824C29.338 26.1747 29.4632 26.2266 29.5937 26.2266H32.6851C32.8156 26.2266 32.9408 26.1747 33.0331 26.0824C33.1254 25.9901 33.1773 25.8649 33.1773 25.7344C33.1773 25.6038 33.1254 25.4786 33.0331 25.3863C32.9408 25.294 32.8156 25.2422 32.6851 25.2422Z" fill="#999999"/>
<path d="M32.6851 29.7422H29.5937C29.4632 29.7422 29.338 29.794 29.2457 29.8863C29.1534 29.9786 29.1016 30.1038 29.1016 30.2344C29.1016 30.3649 29.1534 30.4901 29.2457 30.5824C29.338 30.6747 29.4632 30.7266 29.5937 30.7266H32.6851C32.8156 30.7266 32.9408 30.6747 33.0331 30.5824C33.1254 30.4901 33.1773 30.3649 33.1773 30.2344C33.1773 30.1038 33.1254 29.9786 33.0331 29.8863C32.9408 29.794 32.8156 29.7422 32.6851 29.7422Z" fill="#999999"/>
</svg>
