<svg width="72" height="63" viewBox="0 0 72 63" fill="none" xmlns="http://www.w3.org/2000/svg">
<path d="M16.4493 14.0487C17.0318 14.0487 17.504 13.5765 17.504 12.994C17.504 12.4115 17.0318 11.9393 16.4493 11.9393C15.8669 11.9393 15.3946 12.4115 15.3946 12.994C15.3946 13.5765 15.8667 14.0487 16.4493 14.0487ZM8.01183 14.0487C8.5943 14.0487 9.06652 13.5765 9.06652 12.994C9.06652 12.4115 8.5943 11.9393 8.01183 11.9393C7.42936 11.9393 6.95714 12.4115 6.95714 12.994C6.95714 13.5765 7.42922 14.0487 8.01183 14.0487ZM12.2306 14.0487C12.813 14.0487 13.2853 13.5765 13.2853 12.994C13.2853 12.4115 12.813 11.9393 12.2306 11.9393C11.6481 11.9393 11.1759 12.4115 11.1759 12.994C11.1759 13.5765 11.648 14.0487 12.2306 14.0487ZM11.9993 25.2218C12.0057 25.2219 12.0122 25.2219 12.0187 25.2219L21.5543 25.2243H21.5549C22.2137 25.2243 22.773 24.7975 22.9469 24.1622C23.121 23.5265 22.8568 22.8742 22.2898 22.5388L20.8395 21.6807C23.1705 19.3704 24.4815 16.2181 24.4607 12.9154C24.419 6.31051 19.0131 0.860024 12.4102 0.764961C5.56805 0.666664 0 6.20124 0 12.9943C0 19.5084 5.36738 25.0807 11.9993 25.2218ZM5.12578 5.78584C7.07063 3.86884 9.64125 2.83595 12.3799 2.87406C17.8436 2.95266 22.3168 7.46307 22.3514 12.9286C22.3701 15.8774 21.1056 18.6816 18.882 20.6219C18.5102 20.9462 18.3154 21.4329 18.3604 21.9238C18.4054 22.4145 18.6857 22.8572 19.1097 23.1079L19.1202 23.1141L12.0291 23.1124C6.54722 23.0072 2.10938 18.4912 2.10938 12.9943C2.10938 10.2632 3.18066 7.70326 5.12578 5.78584ZM70.9453 70.6543H69.8906V54.9479C69.8906 50.833 67.4591 47.0963 63.6841 45.423L58.1258 43.0406C59.4783 42.6138 60.7002 41.8528 61.6944 40.7971C63.1945 39.2045 64.0547 37.0435 64.0547 34.8682C64.0547 32.8694 63.3563 30.9827 62.0349 29.4118C60.382 27.4491 59.4717 24.9547 59.4717 22.3877V17.3337C59.4717 12.9071 57.7478 8.74627 54.6178 5.61779C51.4877 2.48748 47.3265 0.763696 42.9005 0.763696C33.7638 0.763696 26.3306 8.19685 26.3306 17.3335V22.2231C26.3312 24.8792 25.2873 27.4145 23.5911 29.4582C21.4563 32.0303 21.0128 35.5078 22.4338 38.5336C23.4885 40.7797 25.3908 42.3933 27.6682 43.0764L22.1487 45.4765C18.2763 47.1061 15.774 50.8736 15.774 55.0746V67.4904C15.774 68.0729 16.2461 68.5451 16.8287 68.5451C17.4113 68.5451 17.8834 68.0729 17.8834 67.4904V55.0746C17.8834 51.7247 19.8787 48.7202 22.9784 47.4159L29.8969 44.4074V50.7559H26.7183C25.8225 50.7559 24.9652 51.1378 24.366 51.8038C23.7669 52.4698 23.4775 53.3627 23.572 54.2534L25.3105 70.6543H1.05469C0.472078 70.6543 0 71.1265 0 71.709C0 72.2915 0.472078 72.7637 1.05469 72.7637H70.9453C71.5279 72.7637 72 72.2915 72 71.709C72 71.1265 71.5279 70.6543 70.9453 70.6543ZM60.4211 30.77C61.4183 31.9555 61.9453 33.3725 61.9453 34.8681C61.9453 36.5116 61.2942 38.1453 60.159 39.3508C58.9569 40.627 57.3055 41.3298 55.509 41.3298H54.1346L52.3291 40.5559C50.752 39.8795 49.6731 38.4295 49.4526 36.7605C52.7068 35.0083 54.924 31.5694 54.924 27.6217V19.6928C55.2327 19.7138 55.5411 19.7252 55.8487 19.7252C56.3559 19.7252 56.8612 19.6963 57.3625 19.6395V22.3876C57.3623 25.451 58.4488 28.428 60.4211 30.77ZM43.1568 47.4201C39.3837 47.4869 35.639 47.0088 32.0063 46.0012V43.4901L32.3113 43.3575C32.3137 43.3565 32.316 43.3554 32.3186 43.3544L34.2001 42.5362C36.2946 41.6257 37.7747 39.7607 38.2234 37.5813C39.1418 37.8483 40.1112 37.9943 41.1147 37.9943H44.5514C45.5587 37.9943 46.5317 37.8472 47.4532 37.5782C47.9167 39.7476 49.4024 41.5959 51.4979 42.4947L53.506 43.3554C53.5073 43.3559 53.5085 43.3565 53.5098 43.3569L53.6586 43.4206V45.7939C50.2452 46.8109 46.7163 47.358 43.1568 47.4201ZM53.6583 47.9899V50.756H32.0063V48.1854C35.4254 49.0819 38.936 49.5355 42.4703 49.5355C42.7113 49.5355 42.9525 49.5334 43.1937 49.5292C46.736 49.4673 50.2494 48.9497 53.6583 47.9899ZM57.3623 17.5127C54.4572 17.9052 51.1824 17.127 48.9263 15.3789C48.466 15.0222 47.8035 15.106 47.4466 15.5666C47.0898 16.027 47.1739 16.6895 47.6343 17.0462C49.1093 18.189 50.8884 18.9939 52.8147 19.3997V25.1416C52.3079 26.2967 51.7437 27.2573 50.4717 28.3067C49.9362 28.7485 49.3501 29.1154 48.7223 29.4065C48.2098 28.4062 47.1687 27.7197 45.9697 27.7197H43.4981C41.7933 27.7197 40.4065 29.1067 40.4065 30.8113C40.4065 32.516 41.7933 33.903 43.4981 33.903H45.9697C47.4044 33.903 48.6138 32.9206 48.961 31.5933C50.3719 31.0557 52.6724 29.1379 52.6729 29.1372C51.9587 32.9716 48.5899 35.8844 44.5515 35.8844H41.1145C36.5583 35.8844 32.8514 32.1776 32.8514 27.6212V19.4687C36.4335 18.9071 39.8177 17.6949 42.9213 15.8592C47.6468 13.064 50.678 9.41143 52.5073 6.52566C55.6372 9.31327 57.4176 13.3097 57.3623 17.5127ZM46.9517 30.8143C46.9502 31.3547 46.5103 31.7939 45.9696 31.7939H43.498C42.9563 31.7939 42.5157 31.3532 42.5157 30.8116C42.5157 30.2701 42.9564 29.8293 43.498 29.8293H45.9696C46.5102 29.8293 46.9499 30.2682 46.9517 30.8084V30.8143ZM28.44 17.3335C28.44 9.35996 34.9269 2.87307 42.9005 2.87307C45.7601 2.87307 48.4927 3.69854 50.8278 5.23529C49.1444 7.93374 46.3109 11.4038 41.8473 14.0442C38.7852 15.8554 35.4264 17.0118 31.8638 17.4812H31.798C31.7976 17.4812 31.7971 17.4812 31.7966 17.4812C31.796 17.4812 31.7957 17.4812 31.7952 17.4812H28.4399V17.3335H28.44ZM24.3429 37.637C23.2734 35.3591 23.6073 32.7414 25.2129 30.807C27.2277 28.3796 28.4423 25.3804 28.44 22.2231V19.5906H30.742V27.6217C30.742 31.5717 32.9621 35.0122 36.2192 36.7634C36.0155 38.4452 34.9398 39.9143 33.3589 40.6016L31.6844 41.3298H30.1556C27.6398 41.3298 25.4126 39.9148 24.3429 37.637ZM61.0582 54.0312L59.2961 70.6543H27.4317L25.6695 54.0312C25.6376 53.7298 25.7316 53.4399 25.9342 53.2147C26.1368 52.9894 26.4154 52.8654 26.7183 52.8654H60.0095C60.3124 52.8654 60.591 52.9894 60.7936 53.2147C60.9962 53.4399 61.0902 53.7298 61.0582 54.0312ZM67.7812 70.6543H61.4173L63.1558 54.2537C63.2503 53.3628 62.9608 52.47 62.3618 51.804C61.7626 51.138 60.9054 50.756 60.0095 50.756H55.7677V44.3248L62.8412 47.3566C65.8422 48.6869 67.7812 51.6666 67.7812 54.9479V70.6543ZM43.3638 57.752C41.1539 57.752 39.356 59.5499 39.356 61.7598C39.356 63.9697 41.1539 65.7676 43.3638 65.7676C45.5737 65.7676 47.3716 63.9697 47.3716 61.7598C47.3716 59.5499 45.5737 57.752 43.3638 57.752ZM43.3638 63.6582C42.317 63.6582 41.4654 62.8066 41.4654 61.7598C41.4654 60.713 42.317 59.8614 43.3638 59.8614C44.4106 59.8614 45.2623 60.713 45.2623 61.7598C45.2623 62.8066 44.4108 63.6582 43.3638 63.6582Z" fill="#999999"/>
</svg>
