<svg width="36" height="36" viewBox="0 0 36 36" fill="none" xmlns="http://www.w3.org/2000/svg">
<g clip-path="url(#clip0)">
<path d="M8.22466 11.1425C8.5159 11.1425 8.75201 10.9064 8.75201 10.6152C8.75201 10.3239 8.5159 10.0878 8.22466 10.0878C7.93343 10.0878 7.69732 10.3239 7.69732 10.6152C7.69732 10.9064 7.93336 11.1425 8.22466 11.1425ZM4.00591 11.1425C4.29715 11.1425 4.53326 10.9064 4.53326 10.6152C4.53326 10.3239 4.29715 10.0878 4.00591 10.0878C3.71468 10.0878 3.47857 10.3239 3.47857 10.6152C3.47857 10.9064 3.71461 11.1425 4.00591 11.1425ZM6.11529 11.1425C6.40652 11.1425 6.64263 10.9064 6.64263 10.6152C6.64263 10.3239 6.40652 10.0878 6.11529 10.0878C5.82405 10.0878 5.58795 10.3239 5.58795 10.6152C5.58795 10.9064 5.82398 11.1425 6.11529 11.1425ZM5.99963 16.729C6.00286 16.7291 6.00609 16.7291 6.00933 16.7291L10.7771 16.7303H10.7774C11.1068 16.7303 11.3865 16.5169 11.4735 16.1992C11.5605 15.8814 11.4284 15.5552 11.1449 15.3876L10.4198 14.9585C11.5852 13.8033 12.2408 12.2272 12.2304 10.5759C12.2095 7.27342 9.50653 4.54818 6.20508 4.50064C2.78402 4.4515 0 7.21879 0 10.6153C0 13.8724 2.68369 16.6585 5.99963 16.729ZM2.56289 7.01108C3.53531 6.05258 4.82063 5.53614 6.18996 5.55519C8.92181 5.5945 11.1584 7.8497 11.1757 10.5825C11.185 12.0568 10.5528 13.459 9.441 14.4291C9.25509 14.5913 9.15771 14.8346 9.18021 15.0801C9.20271 15.3254 9.34284 15.5467 9.55484 15.6721L9.56011 15.6752L6.01453 15.6744C3.27361 15.6218 1.05469 13.3637 1.05469 10.6153C1.05469 9.24976 1.59033 7.96979 2.56289 7.01108ZM35.4727 39.4453H34.9453V31.5921C34.9453 29.5346 33.7295 27.6663 31.8421 26.8296L29.0629 25.6385C29.7392 25.4251 30.3501 25.0446 30.8472 24.5167C31.5972 23.7204 32.0273 22.6399 32.0273 21.5523C32.0273 20.5528 31.6782 19.6095 31.0174 18.8241C30.191 17.8427 29.7359 16.5955 29.7359 15.312V12.785C29.7359 10.5717 28.8739 8.4913 27.3089 6.92706C25.7439 5.3619 23.6632 4.50001 21.4502 4.50001C16.8819 4.50001 13.1653 8.21659 13.1653 12.7849V15.2297C13.1656 16.5578 12.6437 17.8254 11.7956 18.8473C10.7281 20.1333 10.5064 21.8721 11.2169 23.385C11.7442 24.508 12.6954 25.3148 13.8341 25.6563L11.0744 26.8564C9.13816 27.6712 7.88702 29.555 7.88702 31.6555V37.8634C7.88702 38.1546 8.12306 38.3907 8.41437 38.3907C8.70567 38.3907 8.94171 38.1546 8.94171 37.8634V31.6555C8.94171 29.9805 9.93937 28.4783 11.4892 27.8261L14.9484 26.3219V29.4961H13.3592C12.9113 29.4961 12.4826 29.6871 12.183 30.0201C11.8834 30.3531 11.7387 30.7995 11.786 31.2449L12.6553 39.4453H0.527344C0.236039 39.4453 0 39.6814 0 39.9727C0 40.2639 0.236039 40.5 0.527344 40.5H35.4727C35.764 40.5 36 40.2639 36 39.9727C36 39.6814 35.764 39.4453 35.4727 39.4453ZM30.2105 19.5032C30.7091 20.0959 30.9727 20.8044 30.9727 21.5522C30.9727 22.3739 30.6471 23.1908 30.0795 23.7936C29.4784 24.4316 28.6528 24.7831 27.7545 24.7831H27.0673L26.1645 24.3961C25.376 24.0579 24.8366 23.3329 24.7263 22.4984C26.3534 21.6223 27.462 19.9029 27.462 17.929V13.9646C27.6164 13.975 27.7706 13.9807 27.9243 13.9807C28.1779 13.9807 28.4306 13.9663 28.6812 13.9379V15.312C28.6812 16.8437 29.2244 18.3322 30.2105 19.5032ZM21.5784 27.8282C19.6919 27.8616 17.8195 27.6226 16.0031 27.1188V25.8632L16.1556 25.7969C16.1568 25.7964 16.158 25.7958 16.1593 25.7954L17.1001 25.3863C18.1473 24.931 18.8873 23.9985 19.1117 22.9088C19.5709 23.0423 20.0556 23.1153 20.5573 23.1153H22.2757C22.7794 23.1153 23.2658 23.0418 23.7266 22.9073C23.9584 23.992 24.7012 24.9161 25.7489 25.3655L26.753 25.7958C26.7536 25.7961 26.7543 25.7964 26.7549 25.7966L26.8293 25.8285V27.0151C25.1226 27.5236 23.3582 27.7971 21.5784 27.8282ZM26.8291 28.1131V29.4962H16.0031V28.2109C17.7127 28.6591 19.468 28.8859 21.2351 28.8859C21.3557 28.8859 21.4762 28.8849 21.5968 28.8828C23.368 28.8518 25.1247 28.593 26.8291 28.1131ZM28.6812 12.8745C27.2286 13.0708 25.5912 12.6816 24.4631 11.8076C24.233 11.6293 23.9018 11.6712 23.7233 11.9015C23.5449 12.1317 23.587 12.4629 23.8172 12.6413C24.5547 13.2126 25.4442 13.6151 26.4073 13.818V16.689C26.1539 17.2665 25.8718 17.7468 25.2359 18.2715C24.9681 18.4924 24.675 18.6759 24.3612 18.8214C24.1049 18.3213 23.5844 17.978 22.9849 17.978H21.7491C20.8967 17.978 20.2032 18.6715 20.2032 19.5238C20.2032 20.3762 20.8967 21.0696 21.7491 21.0696H22.9849C23.7022 21.0696 24.3069 20.5784 24.4805 19.9148C25.1859 19.646 26.3362 18.6871 26.3365 18.6868C25.9793 20.604 24.2949 22.0603 22.2758 22.0603H20.5573C18.2791 22.0603 16.4257 20.207 16.4257 17.9288V13.8525C18.2168 13.5717 19.9088 12.9656 21.4606 12.0478C23.8234 10.6502 25.339 8.82388 26.2536 7.381C27.8186 8.7748 28.7088 10.773 28.6812 12.8745ZM23.4759 19.5253C23.4751 19.7955 23.2552 20.0151 22.9848 20.0151H21.749C21.4781 20.0151 21.2579 19.7947 21.2579 19.524C21.2579 19.2532 21.4782 19.0328 21.749 19.0328H22.9848C23.2551 19.0328 23.475 19.2523 23.4759 19.5223V19.5253ZM14.22 12.7849C14.22 8.79815 17.4634 5.5547 21.4502 5.5547C22.88 5.5547 24.2464 5.96743 25.4139 6.73581C24.5722 8.08504 23.1555 9.82007 20.9237 11.1403C19.3926 12.0459 17.7132 12.6241 15.9319 12.8588H15.899C15.8988 12.8588 15.8986 12.8588 15.8983 12.8588C15.898 12.8588 15.8979 12.8588 15.8976 12.8588H14.2199V12.7849H14.22ZM12.1714 22.9367C11.6367 21.7977 11.8036 20.4889 12.6065 19.5216C13.6138 18.308 14.2211 16.8084 14.22 15.2297V13.9135H15.371V17.929C15.371 19.904 16.481 21.6243 18.1096 22.4999C18.0077 23.3407 17.4699 24.0753 16.6795 24.419L15.8422 24.7831H15.0778C13.8199 24.7831 12.7063 24.0756 12.1714 22.9367ZM30.5291 31.1338L29.648 39.4453H13.7159L12.8348 31.1338C12.8188 30.9831 12.8658 30.8381 12.9671 30.7255C13.0684 30.6129 13.2077 30.5509 13.3592 30.5509H30.0047C30.1562 30.5509 30.2955 30.6129 30.3968 30.7255C30.4981 30.8381 30.5451 30.9831 30.5291 31.1338ZM33.8906 39.4453H30.7086L31.5779 31.245C31.6252 30.7996 31.4804 30.3531 31.1809 30.0201C30.8813 29.6871 30.4527 29.4962 30.0047 29.4962H27.8838V26.2806L31.4206 27.7964C32.9211 28.4616 33.8906 29.9515 33.8906 31.5921V39.4453ZM21.6819 32.9942C20.577 32.9942 19.678 33.8931 19.678 34.9981C19.678 36.103 20.577 37.002 21.6819 37.002C22.7869 37.002 23.6858 36.103 23.6858 34.9981C23.6858 33.8931 22.7869 32.9942 21.6819 32.9942ZM21.6819 35.9473C21.1585 35.9473 20.7327 35.5215 20.7327 34.9981C20.7327 34.4747 21.1585 34.0488 21.6819 34.0488C22.2053 34.0488 22.6311 34.4747 22.6311 34.9981C22.6311 35.5215 22.2054 35.9473 21.6819 35.9473Z" fill="#999999"/>
</g>
<defs>
<clipPath id="clip0">
<rect width="36" height="36" fill="white"/>
</clipPath>
</defs>
</svg>
