<svg width="18" height="23" viewBox="0 0 18 23" fill="none" xmlns="http://www.w3.org/2000/svg">
<path d="M2 22.1864H0V21.0621C0.00440864 16.7174 3.13583 13.1966 7 13.1916H11C14.8642 13.1966 17.9956 16.7174 18 21.0621V22.1864H16V21.0621C15.9967 17.9588 13.7601 15.444 11 15.4403H7C4.23995 15.444 2.00331 17.9588 2 21.0621V22.1864ZM9 12.0673C6.23858 12.0673 4 9.55031 4 6.44549C4 3.34068 6.23858 0.82373 9 0.82373C11.7614 0.82373 14 3.34068 14 6.44549C13.9967 9.54876 11.7601 12.0635 9 12.0673ZM9 3.07244C7.34315 3.07244 6 4.5826 6 6.44549C6 8.30838 7.34315 9.81855 9 9.81855C10.6569 9.81855 12 8.30838 12 6.44549C12 4.5826 10.6569 3.07244 9 3.07244Z" fill="#666666"/>
</svg>
