<svg width="16" height="23" viewBox="0 0 16 23" fill="none" xmlns="http://www.w3.org/2000/svg">
<path d="M14 22.375H2C0.89543 22.375 0 21.3816 0 20.1562V2.40625C0 1.18087 0.89543 0.1875 2 0.1875H9C9.0109 0.188024 9.02167 0.190265 9.032 0.194156C9.04177 0.197504 9.05182 0.199734 9.062 0.200812C9.15019 0.207084 9.23726 0.226104 9.321 0.257391L9.349 0.267375C9.37167 0.275897 9.39373 0.28628 9.415 0.298437C9.52394 0.352157 9.62321 0.42733 9.708 0.520313L15.708 7.17656C15.7918 7.27062 15.8596 7.38075 15.908 7.50161C15.918 7.52602 15.925 7.55153 15.933 7.57705L15.942 7.60589C15.9699 7.6984 15.9864 7.79469 15.991 7.89211C15.9926 7.9023 15.9949 7.91232 15.998 7.92206C15.9998 7.93229 16.0004 7.94272 16.0001 7.95312V20.1562C16.0001 21.3816 15.1046 22.375 14 22.375ZM2 2.40625V20.1562H14V9.0625H9C8.44772 9.0625 8 8.56582 8 7.95312V2.40625H2ZM10 3.97491V6.84375H12.586L10 3.97491Z" fill="#666666"/>
</svg>
