<svg width="12" height="6" viewBox="0 0 12 6" fill="none" xmlns="http://www.w3.org/2000/svg">
<path d="M4.31578 4.00535C4.00102 3.78089 3.73031 3.53474 3.41193 3.31216M4.31578 4.00535C4.78479 4.3398 5.34554 4.62197 5.90317 4.90228M4.31578 4.00535L5.90317 1.05517M4.31578 4.00535L9 1.00387M3.41193 3.31216C3.05494 3.06257 2.634 2.83835 2.24018 2.60486M3.41193 3.31216L5.84053 1.05637M1.06814 1.61814C0.961049 1.43705 0.953707 1.18559 1.24239 1.10494C1.34587 1.07602 1.46462 1.07783 1.57856 1.07989C1.95665 1.08674 2.33475 1.09021 2.71286 1.0911M1.06814 1.61814C1.29786 2.00662 1.74784 2.31298 2.24018 2.60486M1.06814 1.61814L2.71286 1.0911M10.3753 1.00157C10.6074 1.00302 10.8914 1.02591 10.9772 1.1563M10.3753 1.00157C9.91688 0.998701 9.45843 0.99994 9 1.00387M10.3753 1.00157L6.55499 4.86993M10.9772 1.1563C11.0293 1.23542 10.9831 1.32491 10.9279 1.40325C10.7681 1.63003 10.5348 1.8347 10.2977 2.03524C9.1347 3.01922 7.84406 3.94518 6.55499 4.86993M10.9772 1.1563L2.24018 2.60486M6.55499 4.86993C6.47356 4.92834 6.37943 4.99102 6.25382 4.99912M6.25382 4.99912C6.12235 5.0076 6.00484 4.95339 5.90317 4.90228M6.25382 4.99912L9 1.00387M6.25382 4.99912L5.90317 1.05517M6.25382 4.99912L2.71286 1.0911M6.25382 4.99912L7.77163 1.01983M5.90317 4.90228L5.84053 1.05637M9 1.00387C8.59053 1.00738 8.18107 1.01303 7.77163 1.01983M5.90317 1.05517C5.88229 1.05557 5.86141 1.05597 5.84053 1.05637M5.90317 1.05517C6.52596 1.04312 7.14878 1.03016 7.77163 1.01983M2.71286 1.0911L2.24018 2.60486M2.71286 1.0911C3.75534 1.09356 4.7979 1.07642 5.84053 1.05637M2.24018 2.60486L5.84053 1.05637" stroke="#2586EF" stroke-width="2" stroke-linejoin="round"/>
</svg>
