<svg width="12" height="12" viewBox="0 0 12 12" fill="none" xmlns="http://www.w3.org/2000/svg">
<g clip-path="url(#clip0)">
<path d="M11.6558 7.30401C11.4821 7.30401 11.3413 7.4448 11.3413 7.61853V10.4112C11.3406 10.932 10.9186 11.3542 10.3977 11.3548H1.5726C1.05168 11.3542 0.629654 10.932 0.629039 10.4112V2.21518C0.629654 1.69425 1.05168 1.27223 1.5726 1.27162H4.36519C4.53891 1.27162 4.67971 1.13082 4.67971 0.957098C4.67971 0.783375 4.53891 0.642578 4.36519 0.642578H1.5726C0.704475 0.643561 0.000982874 1.34705 0 2.21518V10.4112C0.000982874 11.2794 0.704475 11.9829 1.5726 11.9838H10.3977C11.2658 11.9829 11.9693 11.2794 11.9703 10.4112V7.61865C11.9703 7.44493 11.8295 7.30401 11.6558 7.30401Z" fill="#2586EF"/>
<path d="M4.91809 5.64912L9.51045 1.05664L10.9915 2.53771L6.39916 7.13019L4.91809 5.64912Z" fill="#2586EF"/>
<path d="M4.16876 7.8794L5.80549 7.42605L4.62211 6.24268L4.16876 7.8794Z" fill="#2586EF"/>
<path d="M11.4009 0.27824C11.0937 -0.0282936 10.5962 -0.0282936 10.2889 0.27824L9.95538 0.611803L11.4365 2.09287L11.77 1.75931C12.0767 1.45204 12.0767 0.95458 11.77 0.647309L11.4009 0.27824Z" fill="#2586EF"/>
</g>
<defs>
<clipPath id="clip0">
<rect width="12" height="12" fill="white"/>
</clipPath>
</defs>
</svg>
