<svg width="24" height="28" viewBox="0 0 24 28" fill="none" xmlns="http://www.w3.org/2000/svg">
<path d="M18 25.375H6C4.89543 25.375 4 24.3816 4 23.1562V5.40625C4 4.18087 4.89543 3.1875 6 3.1875H13C13.0109 3.18802 13.0217 3.19027 13.032 3.19416C13.0418 3.1975 13.0518 3.19973 13.062 3.20081C13.1502 3.20708 13.2373 3.2261 13.321 3.25739L13.349 3.26737C13.3717 3.2759 13.3937 3.28628 13.415 3.29844C13.5239 3.35216 13.6232 3.42733 13.708 3.52031L19.708 10.1766C19.7918 10.2706 19.8596 10.3807 19.908 10.5016C19.918 10.526 19.925 10.5515 19.933 10.577L19.942 10.6059C19.9699 10.6984 19.9864 10.7947 19.991 10.8921C19.9926 10.9023 19.9949 10.9123 19.998 10.9221C19.9998 10.9323 20.0004 10.9427 20.0001 10.9531V23.1562C20.0001 24.3816 19.1046 25.375 18 25.375ZM6 5.40625V23.1562H18V12.0625H13C12.4477 12.0625 12 11.5658 12 10.9531V5.40625H6ZM14 6.97491V9.84375H16.586L14 6.97491Z" fill="#666666"/>
</svg>
