<svg width="24" height="24" viewBox="0 0 24 24" fill="none" xmlns="http://www.w3.org/2000/svg">
<path d="M10.1025 5.52377C9.31328 4.94822 8.21784 5.03169 7.52368 5.72568C6.74638 6.50307 6.74638 7.7634 7.52369 8.54088C8.3009 9.31818 9.56141 9.31818 10.3386 8.54088L10.3386 8.54087C10.8027 8.07696 11.0142 7.40678 10.8843 6.74743L9.51304 8.11889L9.51301 8.11892C9.23593 8.39562 8.78695 8.39565 8.51011 8.1189L8.5101 8.1189L7.68255 7.29134C7.40572 7.01451 7.40572 6.56552 7.68255 6.28868L10.1025 5.52377ZM10.1025 5.52377L9.01149 6.61459L8.68566 6.28868L8.68566 6.28868C8.40857 6.01159 7.95956 6.01158 7.68255 6.28868L10.1025 5.52377ZM12.9104 3.71854L12.9104 3.71851C12.6335 3.44169 12.1844 3.44168 11.9076 3.71852L11.9429 3.75388L11.9075 3.71852L11.1124 4.51373C9.76076 3.3867 7.76877 3.47491 6.52076 4.72292L6.55611 4.75828L6.52075 4.72292C5.18961 6.05424 5.18961 8.2124 6.52076 9.54354C7.85225 10.875 10.0101 10.875 11.3416 9.54355C12.3671 8.51822 12.6362 6.94749 11.9946 5.63699L12.9104 4.72136L12.9104 4.72136C13.1871 4.44452 13.1871 3.99554 12.9104 3.71854ZM20.8938 3.92826V11.5026H17.1705V3.92826C17.1705 2.90587 18.0097 2.06664 19.0322 2.06664C20.0546 2.06664 20.8938 2.90605 20.8938 3.92826ZM4.81588 18.3143C4.42409 18.3143 4.10664 18.6318 4.10664 19.0235C4.10664 19.4151 4.4241 19.7327 4.81588 19.7327C5.20748 19.7327 5.52513 19.4151 5.52513 19.0235C5.52513 18.6318 5.20749 18.3143 4.81588 18.3143ZM6.74343 19.0235C6.74343 19.4151 7.0607 19.7327 7.45259 19.7327H13.8247C14.2163 19.7327 14.5338 19.4151 14.5338 19.0235C14.5338 18.6318 14.2163 18.3143 13.8247 18.3143H7.45259C7.0607 18.3143 6.74343 18.6318 6.74343 19.0235ZM4.81588 15.6776C4.4241 15.6776 4.10664 15.995 4.10664 16.3868C4.10664 16.7784 4.4241 17.096 4.81588 17.096C5.20748 17.096 5.52513 16.7784 5.52513 16.3868C5.52513 15.995 5.20748 15.6776 4.81588 15.6776ZM6.74343 16.3868C6.74343 16.7784 7.0607 17.096 7.45259 17.096H13.8247C14.2163 17.096 14.5338 16.7784 14.5338 16.3868C14.5338 15.995 14.2163 15.6776 13.8247 15.6776H7.45259C7.06071 15.6776 6.74343 15.995 6.74343 16.3868ZM17.1705 22.5391V12.921H21.6029C21.9946 12.921 22.3122 12.6035 22.3122 12.2118V3.92826C22.3122 2.12292 20.8376 0.648242 19.0322 0.648242H4.6841C2.91274 0.648242 1.47002 2.09123 1.47002 3.86233V22.5391C1.47002 22.9308 1.78729 23.2482 2.17917 23.2482H16.4614C16.8531 23.2482 17.1705 22.9308 17.1705 22.5391ZM16.3348 2.06664C15.9679 2.59604 15.7522 3.23807 15.7522 3.92826V21.8299H2.88833V3.86233C2.88833 2.87427 3.69587 2.06664 4.6841 2.06664H16.3348ZM4.81588 13.0408C4.4241 13.0408 4.10664 13.3584 4.10664 13.75C4.10664 14.1417 4.42409 14.4592 4.81588 14.4592C5.20749 14.4592 5.52513 14.1417 5.52513 13.75C5.52513 13.3584 5.20748 13.0408 4.81588 13.0408ZM7.45259 14.4592H13.8247C14.2163 14.4592 14.5338 14.1417 14.5338 13.75C14.5338 13.3584 14.2163 13.0408 13.8247 13.0408H7.45259C7.0607 13.0408 6.74343 13.3584 6.74343 13.75C6.74343 14.1417 7.0607 14.4592 7.45259 14.4592Z" fill="#666666" stroke="#666666" stroke-width="0.1"/>
</svg>
