<svg width="25" height="18" viewBox="0 0 25 18" fill="none" xmlns="http://www.w3.org/2000/svg">
<path d="M1.15279 10.6013C0.594902 10.0434 0.594902 9.13887 1.15279 8.58098C1.71069 8.02309 2.61521 8.02309 3.1731 8.58098L9.59352 15.0014C10.1514 15.5593 10.1514 16.4638 9.59352 17.0217C9.03563 17.5796 8.1311 17.5796 7.57321 17.0217L1.15279 10.6013Z" fill="#5FC068"/>
<path d="M9.79612 17.0806C9.23823 17.6385 8.33371 17.6385 7.77582 17.0806C7.21793 16.5227 7.21793 15.6182 7.77582 15.0603L21.918 0.918175C22.4758 0.360283 23.3804 0.360283 23.9383 0.918175C24.4961 1.47607 24.4961 2.38059 23.9383 2.93848L9.79612 17.0806Z" fill="#5FC068"/>
</svg>
