<svg width="24" height="25" viewBox="0 0 24 25" fill="none" xmlns="http://www.w3.org/2000/svg">
<g clip-path="url(#clip0)">
<path d="M12 8.56763C11.4039 8.56763 10.98 8.81935 10.98 9.19027V14.2375C10.98 14.5554 11.4039 14.8733 12 14.8733C12.5697 14.8733 13.0333 14.5554 13.0333 14.2375V9.19027C13.0333 8.81935 12.5697 8.56763 12 8.56763Z" fill="#666666"/>
<path d="M11.9999 5.45435C11.3905 5.45435 10.9136 5.8915 10.9136 6.3949C10.9136 6.89829 11.3905 7.34871 11.9999 7.34871C12.596 7.34871 13.0729 6.89829 13.0729 6.3949C13.0729 5.89155 12.596 5.45435 11.9999 5.45435Z" fill="#666666"/>
<path d="M12 0C6.29991 0 1.6875 4.61006 1.6875 10.3065C1.6875 14.958 4.74998 18.8203 8.87892 20.132L11.2242 23.5889C11.3986 23.846 11.6892 24 12 24C12.3108 24 12.6014 23.846 12.7758 23.5889L15.1211 20.132C19.2518 18.8197 22.3125 14.956 22.3125 10.3065C22.3125 4.60645 17.6964 0 12 0ZM14.2802 18.4265C14.0667 18.4862 13.8813 18.6196 13.7569 18.8031L12 21.3926L10.2432 18.8031C10.1187 18.6197 9.93328 18.4862 9.71977 18.4266C6.20517 17.4438 3.5625 14.2116 3.5625 10.3065C3.5625 5.65734 7.34756 1.875 12 1.875C16.6524 1.875 20.4375 5.65734 20.4375 10.3065C20.4375 14.2155 17.7909 17.4449 14.2802 18.4265Z" fill="#666666"/>
</g>
<defs>
<clipPath id="clip0">
<rect width="24" height="24" fill="white" transform="translate(0 0.1875)"/>
</clipPath>
</defs>
</svg>
