<svg width="22" height="24" viewBox="0 0 22 24" fill="none" xmlns="http://www.w3.org/2000/svg">
<path d="M0.35 21.625L0.35 21.6252C0.351266 22.7429 1.25707 23.6487 2.37483 23.65H2.375H16.25C19.2321 23.6503 21.6498 21.2331 21.6501 18.251C21.6503 16.1968 20.4853 14.3235 18.65 13.4133V5.875C18.65 5.73575 18.5947 5.60221 18.4962 5.50376L13.9962 1.00376C13.8978 0.905317 13.7642 0.85 13.625 0.85L2.375 0.85L2.37483 0.85C1.25707 0.851266 0.351266 1.75707 0.35 2.87483V2.875L0.35 21.625ZM13.1 1.9L13.1 4.375L13.1 4.37517C13.1013 5.49293 14.0071 6.39873 15.1248 6.4H15.125H17.6V13.0212C14.8013 12.2961 11.9088 13.9118 11.0753 16.705C10.4185 18.9065 11.229 21.2619 13.0522 22.6H2.37517C1.83691 22.5994 1.40066 22.1632 1.4 21.6249V2.87507C1.40066 2.33683 1.83691 1.90061 2.37517 1.9L13.1 1.9ZM20.6 18.2502C20.5999 20.6525 18.6524 22.6 16.25 22.6C13.8476 22.6 11.9 20.6524 11.9 18.25C11.9 15.8476 13.8475 13.9001 16.2498 13.9C18.6513 13.9027 20.5973 15.8487 20.6 18.2502ZM14.15 4.37483V2.64243L16.8576 5.35H15.1252C14.5868 5.34939 14.1506 4.91317 14.15 4.37483Z" fill="#666666" stroke="#666666" stroke-width="0.3"/>
<path d="M6.35 8.125C6.35 8.41494 6.58506 8.65 6.875 8.65H15.875C16.1649 8.65 16.4 8.41494 16.4 8.125C16.4 7.83506 16.1649 7.6 15.875 7.6H6.875C6.58506 7.6 6.35 7.83506 6.35 8.125Z" fill="#666666" stroke="#666666" stroke-width="0.3"/>
<path d="M3.125 10.9H10.625C10.9149 10.9 11.15 10.6649 11.15 10.375C11.15 10.0851 10.9149 9.85 10.625 9.85H3.125C2.83506 9.85 2.6 10.0851 2.6 10.375C2.6 10.6649 2.83506 10.9 3.125 10.9Z" fill="#666666" stroke="#666666" stroke-width="0.3"/>
<path d="M12.125 12.1H9.125C8.83506 12.1 8.6 12.3351 8.6 12.625C8.6 12.9149 8.83506 13.15 9.125 13.15H12.125C12.4149 13.15 12.65 12.9149 12.65 12.625C12.65 12.3351 12.4149 12.1 12.125 12.1Z" fill="#666666" stroke="#666666" stroke-width="0.3"/>
<path d="M3.125 15.4H9.875C10.1649 15.4 10.4 15.1649 10.4 14.875C10.4 14.5851 10.1649 14.35 9.875 14.35H3.125C2.83506 14.35 2.6 14.5851 2.6 14.875C2.6 15.1649 2.83506 15.4 3.125 15.4Z" fill="#666666" stroke="#666666" stroke-width="0.3"/>
<path d="M3.125 8.65H5.375C5.66494 8.65 5.9 8.41494 5.9 8.125C5.9 7.83506 5.66494 7.6 5.375 7.6H3.125C2.83506 7.6 2.6 7.83506 2.6 8.125C2.6 8.41494 2.83506 8.65 3.125 8.65Z" fill="#666666" stroke="#666666" stroke-width="0.3"/>
<path d="M15.875 9.85H12.125C11.8351 9.85 11.6 10.0851 11.6 10.375C11.6 10.6649 11.8351 10.9 12.125 10.9H15.875C16.1649 10.9 16.4 10.6649 16.4 10.375C16.4 10.0851 16.1649 9.85 15.875 9.85Z" fill="#666666" stroke="#666666" stroke-width="0.3"/>
<path d="M3.125 13.15H7.625C7.91494 13.15 8.15 12.9149 8.15 12.625C8.15 12.3351 7.91494 12.1 7.625 12.1H3.125C2.83506 12.1 2.6 12.3351 2.6 12.625C2.6 12.9149 2.83506 13.15 3.125 13.15Z" fill="#666666" stroke="#666666" stroke-width="0.3"/>
<path d="M9.125 18.85H7.625C7.33506 18.85 7.1 19.0851 7.1 19.375C7.1 19.6649 7.33506 19.9 7.625 19.9H9.125C9.41494 19.9 9.65 19.6649 9.65 19.375C9.65 19.0851 9.41494 18.85 9.125 18.85Z" fill="#666666" stroke="#666666" stroke-width="0.3"/>
<path d="M3.125 19.9H6.125C6.41494 19.9 6.65 19.6649 6.65 19.375C6.65 19.0851 6.41494 18.85 6.125 18.85H3.125C2.83506 18.85 2.6 19.0851 2.6 19.375C2.6 19.6649 2.83506 19.9 3.125 19.9Z" fill="#666666" stroke="#666666" stroke-width="0.3"/>
<path d="M3.125 17.65H5.375C5.66494 17.65 5.9 17.4149 5.9 17.125C5.9 16.8351 5.66494 16.6 5.375 16.6H3.125C2.83506 16.6 2.6 16.8351 2.6 17.125C2.6 17.4149 2.83506 17.65 3.125 17.65Z" fill="#666666" stroke="#666666" stroke-width="0.3"/>
<path d="M3.125 6.4H7.625C7.91494 6.4 8.15 6.16494 8.15 5.875C8.15 5.58506 7.91494 5.35 7.625 5.35H3.125C2.83506 5.35 2.6 5.58506 2.6 5.875C2.6 6.16494 2.83506 6.4 3.125 6.4Z" fill="#666666" stroke="#666666" stroke-width="0.3"/>
<path d="M9.125 16.6H6.875C6.58506 16.6 6.35 16.8351 6.35 17.125C6.35 17.4149 6.58506 17.65 6.875 17.65H9.125C9.41494 17.65 9.65 17.4149 9.65 17.125C9.65 16.8351 9.41494 16.6 9.125 16.6Z" fill="#666666" stroke="#666666" stroke-width="0.3"/>
<path d="M16.1913 18.7718L16.1912 18.7717C16.0144 18.7489 15.9084 18.6599 15.8455 18.5847M16.1913 18.7718L15.8455 18.5847M16.1913 18.7718C16.2138 18.7747 16.2345 18.775 16.25 18.775M16.1913 18.7718L16.25 18.775M15.8455 18.5847C15.6195 18.3146 15.151 17.7524 14.7391 17.2579L14.2009 16.6115L14.0336 16.4106L13.9877 16.3554L13.9757 16.341L13.9731 16.3379C13.9722 16.3368 13.9713 16.3356 13.9703 16.3345M15.8455 18.5847L13.9703 16.3345M13.9703 16.3345C13.7862 16.1118 13.8167 15.7819 14.039 15.5967L13.9703 16.3345ZM16.25 18.775H18.875M16.25 18.775H18.875M18.875 18.775C19.165 18.775 19.4 18.54 19.4 18.25M18.875 18.775L19.4 18.25M19.4 18.25C19.4 17.9601 19.165 17.725 18.875 17.725M19.4 18.25L18.875 17.725M18.875 17.725H16.4959M18.875 17.725H16.4959M16.4959 17.725L14.7784 15.6639C14.7784 15.6639 14.7784 15.6639 14.7784 15.6639C14.5928 15.4412 14.2618 15.4111 14.039 15.5967L16.4959 17.725Z" fill="#666666" stroke="#666666" stroke-width="0.3"/>
</svg>
