<svg width="30" height="40" viewBox="0 0 30 40" fill="none" xmlns="http://www.w3.org/2000/svg">
<path fill-rule="evenodd" clip-rule="evenodd" d="M0.9375 2.75C0.9375 1.92157 1.60907 1.25 2.4375 1.25H27.5625C28.3909 1.25 29.0625 1.92157 29.0625 2.75V37.25C29.0625 38.0784 28.3909 38.75 27.5625 38.75H2.4375C1.60907 38.75 0.9375 38.0784 0.9375 37.25V2.75Z" stroke="#6B6B6B" stroke-width="1.5" stroke-linecap="round" stroke-linejoin="round"/>
<path d="M6.5625 28.75L10.89 21.0566C11.2161 20.4766 11.7149 20.1138 12.2572 20.0623C12.7995 20.0108 13.3318 20.2757 13.7163 20.7883L15 22.5L19.125 15.1666C19.4791 14.5371 20.0348 14.1666 20.625 14.1666C21.2152 14.1666 21.7709 14.5371 22.125 15.1666L25.4625 21.1" stroke="#6B6B6B" stroke-width="1.5" stroke-linecap="round" stroke-linejoin="round"/>
<path fill-rule="evenodd" clip-rule="evenodd" d="M7.96875 13.75C9.26317 13.75 10.3125 12.3509 10.3125 10.625C10.3125 8.89911 9.26317 7.5 7.96875 7.5C6.67433 7.5 5.625 8.89911 5.625 10.625C5.625 12.3509 6.67433 13.75 7.96875 13.75Z" stroke="#6B6B6B" stroke-width="1.5" stroke-linecap="round" stroke-linejoin="round"/>
<path d="M0.9375 28.75H29.0625" stroke="#6B6B6B" stroke-width="1.5" stroke-linecap="round" stroke-linejoin="round"/>
</svg>
