<svg width="24" height="24" viewBox="0 0 24 24" fill="none" xmlns="http://www.w3.org/2000/svg">
<g clip-path="url(#clip0)">
<path d="M13.1516 5.61448C14.7781 5.61448 16.0966 4.35764 16.0966 2.80724C16.0966 1.25684 14.7781 0 13.1516 0C11.5251 0 10.2065 1.25684 10.2065 2.80724C10.2065 4.35764 11.5251 5.61448 13.1516 5.61448Z" fill="white"/>
<path d="M13.1516 24.0009C14.1274 24.0009 14.9184 23.2469 14.9184 22.3167C14.9184 21.3866 14.1274 20.6326 13.1516 20.6326C12.1758 20.6326 11.3848 21.3866 11.3848 22.3167C11.3848 23.2469 12.1758 24.0009 13.1516 24.0009Z" fill="white"/>
<path d="M5.9149 8.19036C7.37886 8.19036 8.56564 7.05912 8.56564 5.66366C8.56564 4.2682 7.37886 3.13696 5.9149 3.13696C4.45094 3.13696 3.26416 4.2682 3.26416 5.66366C3.26416 7.05912 4.45094 8.19036 5.9149 8.19036Z" fill="white"/>
<path d="M20.3881 20.8622C21.2013 20.8622 21.8606 20.2338 21.8606 19.4586C21.8606 18.6834 21.2013 18.0549 20.3881 18.0549C19.5748 18.0549 18.9155 18.6834 18.9155 19.4586C18.9155 20.2338 19.5748 20.8622 20.3881 20.8622Z" fill="white"/>
<path d="M2.91748 14.8077C4.21837 14.8077 5.27295 13.8025 5.27295 12.5625C5.27295 11.3224 4.21837 10.3172 2.91748 10.3172C1.61659 10.3172 0.562012 11.3224 0.562012 12.5625C0.562012 13.8025 1.61659 14.8077 2.91748 14.8077Z" fill="white"/>
<path d="M23.3848 13.6837C24.035 13.6837 24.562 13.1813 24.562 12.5615C24.562 11.9417 24.035 11.4393 23.3848 11.4393C22.7346 11.4393 22.2075 11.9417 22.2075 12.5615C22.2075 13.1813 22.7346 13.6837 23.3848 13.6837Z" fill="white"/>
<path d="M4.45767 18.0712C3.65213 18.8391 3.65213 20.0815 4.45767 20.8493C5.26226 21.6172 6.56756 21.6172 7.37215 20.8493C8.17769 20.0815 8.17769 18.8391 7.37215 18.0712C6.56756 17.3025 5.26322 17.2952 4.45767 18.0712Z" fill="white"/>
<path d="M20.3873 6.50528C20.875 6.50528 21.2703 6.12847 21.2703 5.66365C21.2703 5.19883 20.875 4.82202 20.3873 4.82202C19.8997 4.82202 19.5044 5.19883 19.5044 5.66365C19.5044 6.12847 19.8997 6.50528 20.3873 6.50528Z" fill="white"/>
</g>
<defs>
<clipPath id="clip0">
<rect width="24" height="24.0009" fill="white"/>
</clipPath>
</defs>
</svg>
