<svg width="19" height="16" viewBox="0 0 19 16" fill="none" xmlns="http://www.w3.org/2000/svg">
<path d="M14.103 1.85829C12.8833 0.668446 11.2289 -1.2537e-08 9.50398 0C7.77902 1.2537e-08 6.1247 0.668446 4.90497 1.85829C3.68524 3.04813 3 4.6619 3 6.34458C3 8.02727 3.68524 9.64104 4.90497 10.8309L8.94443 14.7788C9.01569 14.8489 9.10047 14.9045 9.19387 14.9425C9.28728 14.9805 9.38746 15 9.48865 15C9.58984 15 9.69002 14.9805 9.78343 14.9425C9.87683 14.9045 9.96161 14.8489 10.0329 14.7788L14.103 10.7935C15.3176 9.60861 16 8.00156 16 6.32589C16 4.65022 15.3176 3.04318 14.103 1.85829ZM13.0069 9.72426L9.50398 13.1563L6.00107 9.72426C5.30903 9.04856 4.83788 8.18789 4.64719 7.25103C4.4565 6.31418 4.55483 5.3432 4.92973 4.46085C5.30464 3.57849 5.9393 2.82437 6.75349 2.29381C7.56768 1.76325 8.52484 1.48008 9.50398 1.48008C10.4831 1.48008 11.4403 1.76325 12.2545 2.29381C13.0687 2.82437 13.7033 3.57849 14.0782 4.46085C14.4531 5.3432 14.5515 6.31418 14.3608 7.25103C14.1701 8.18789 13.6989 9.04856 13.0069 9.72426ZM7.20448 4.04909C6.58569 4.65457 6.23822 5.47467 6.23822 6.32963C6.23822 7.18459 6.58569 8.00469 7.20448 8.61017C7.66419 9.05938 8.24967 9.36617 8.88744 9.49202C9.52522 9.61788 10.1869 9.55721 10.7895 9.31762C11.392 9.07803 11.9086 8.67019 12.2745 8.14527C12.6403 7.62035 12.8391 7.00173 12.8459 6.36702C12.8494 5.94321 12.7657 5.52304 12.5998 5.13133C12.4339 4.73962 12.1892 4.38434 11.8801 4.08648C11.5763 3.78334 11.2141 3.5418 10.8143 3.37575C10.4144 3.2097 9.98484 3.12243 9.55028 3.11896C9.11572 3.11548 8.68474 3.19587 8.28216 3.3555C7.87957 3.51514 7.51332 3.75085 7.20448 4.04909ZM10.7994 7.54841C10.5089 7.83609 10.125 8.01641 9.71333 8.05854C9.30166 8.10067 8.88776 8.002 8.54241 7.7794C8.19706 7.55679 7.94169 7.22408 7.81998 6.83814C7.69827 6.4522 7.71776 6.037 7.87513 5.66353C8.0325 5.29006 8.31797 4.98151 8.68274 4.79063C9.04751 4.59976 9.46891 4.53841 9.87492 4.61707C10.2809 4.69574 10.6463 4.90954 10.9086 5.22191C11.1709 5.53429 11.3138 5.92584 11.3129 6.32963C11.3018 6.79117 11.1033 7.22953 10.761 7.54841H10.7994Z" fill="#88889D"/>
</svg>
