<svg width="94" height="74" viewBox="0 0 94 74" fill="none" xmlns="http://www.w3.org/2000/svg">
<path d="M35.0887 51.55C30.8421 51.55 27.4103 56.3566 27.4103 62.2836C27.4103 68.1929 30.8421 73 35.0887 73C39.3353 73 42.7671 68.1929 42.7671 62.2836C42.767 56.3566 39.3353 51.55 35.0887 51.55ZM35.0887 67.6418C32.9653 67.6418 31.2494 65.2295 31.2494 62.2832C31.2494 59.3201 32.9653 56.925 35.0887 56.925C37.2119 56.925 38.9279 59.3201 38.9279 62.2832C38.9278 65.2295 37.2119 67.6418 35.0887 67.6418ZM93 43.6216V55.0646C93 57.919 91.3421 60.2332 89.2966 60.2332H85.3339C84.6179 53.3759 80.3838 48.1039 75.273 48.1039C70.1748 48.1039 65.9404 53.3761 65.2244 60.2332H45.1397C44.4237 53.3759 40.1894 48.1039 35.0911 48.1039C29.9928 48.1039 25.7585 53.3761 25.0427 60.2332H20.0801C18.0347 60.2332 16.3768 57.9192 16.3768 55.0646V43.6216H93ZM75.2829 51.55C71.0364 51.55 67.5922 56.3566 67.5922 62.2836C67.5922 68.1929 71.0365 73 75.2829 73C79.517 73 82.9612 68.1929 82.9612 62.2836C82.9612 56.3566 79.517 51.55 75.2829 51.55ZM75.2829 67.6418C73.1596 67.6418 71.4437 65.2295 71.4437 62.2832C71.4437 59.3201 73.1596 56.925 75.2829 56.925C77.3938 56.925 79.1221 59.3201 79.1221 62.2832C79.1221 65.2295 77.3938 67.6418 75.2829 67.6418ZM91.5408 32.0983L76.9866 12.0093C76.0607 10.7343 74.8139 10.0107 73.5176 10.0107H66.1727V6.16854C66.1727 3.30869 64.5185 1 62.4694 1H20.0775C18.0406 1 16.3742 3.3089 16.3742 6.16854V6.97839L1.34575 9.39576L27.9755 14.2355L1 17.9755L27.8805 23.3094L1 26.5622L16.3751 30.6093L16.3741 40.7645H92.9974V36.9912C92.9974 35.1476 92.4666 33.3905 91.5408 32.0983ZM85.1956 32.7701H71.1105C70.7895 32.7701 70.5302 32.4084 70.5302 31.9605V16.7817C70.5302 16.3338 70.7895 15.9719 71.1105 15.9719H73.7893C73.9374 15.9719 74.0856 16.0581 74.1967 16.196L85.5908 31.3747C85.9733 31.8743 85.714 32.7701 85.1956 32.7701Z" stroke="#666666" stroke-width="1.5"/>
</svg>
