<svg width="46" height="36" viewBox="0 0 46 36" fill="none" xmlns="http://www.w3.org/2000/svg">
<path d="M8.18709 19.3823L8.18756 14.8047L8.1876 14.4193L7.81484 14.3211L2.65638 12.9633L13.5003 11.6511L13.5376 10.6643L3.00983 8.57525L13.5564 7.11303L13.5772 6.12583L3.13443 4.22793L7.76652 3.48285L8.18711 3.41519V2.98919V2.58427C8.18711 1.96232 8.36906 1.42092 8.63714 1.0476C8.90606 0.673124 9.23218 0.5 9.53876 0.5H30.7347C31.0449 0.5 31.3707 0.673643 31.6383 1.04713C31.9055 1.42004 32.0863 1.96144 32.0863 2.58427V4.50535V5.00535H32.5863H36.2588C36.7098 5.00535 37.1958 5.25731 37.5887 5.79845L44.864 15.8404C44.8642 15.8408 44.8645 15.8411 44.8648 15.8415C45.2583 16.3913 45.4987 17.1641 45.4987 17.9956V19.3823H8.18709ZM36.9982 7.29781L36.993 7.29092L36.9876 7.28422C36.8684 7.13622 36.6635 6.98594 36.3946 6.98594H35.0552C34.7728 6.98594 34.5632 7.14625 34.4436 7.3132C34.3235 7.48079 34.2651 7.68667 34.2651 7.89086V15.4802C34.2651 15.6844 34.3235 15.8903 34.4436 16.0579C34.5633 16.2249 34.7729 16.3851 35.0552 16.3851H42.0978C42.5578 16.3851 42.7796 16.0005 42.8463 15.7672C42.9197 15.5102 42.9058 15.1639 42.6942 14.8857C42.6936 14.885 42.693 14.8842 42.6924 14.8834L36.9982 7.29781ZM13.7052 30.6418C13.7052 29.2522 14.1082 28.015 14.7353 27.1379C15.3629 26.26 16.1857 25.775 17.0444 25.775C17.903 25.775 18.7258 26.26 19.3534 27.1379C19.9805 28.015 20.3835 29.2522 20.3836 30.6418C20.3836 32.0267 19.9807 33.2617 19.3536 34.1379C18.7259 35.0149 17.9031 35.5 17.0444 35.5C16.1856 35.5 15.3628 35.0149 14.7351 34.1379C14.1081 33.2617 13.7052 32.0267 13.7052 30.6418ZM14.6247 30.6416C14.6247 31.4709 14.8654 32.245 15.2796 32.8244C15.6932 33.4029 16.3099 33.8209 17.0444 33.8209C17.7787 33.8209 18.3955 33.4029 18.809 32.8244C19.2232 32.245 19.4639 31.4709 19.464 30.6416C19.464 29.8086 19.2235 29.0342 18.8087 28.4552C18.3944 27.877 17.7774 27.4625 17.0444 27.4625C16.3112 27.4625 15.6943 27.877 15.2799 28.4552C14.8651 29.0342 14.6247 29.8086 14.6247 30.6416ZM45.5 21.8108V27.0323C45.5 27.6534 45.3189 28.1949 45.0512 28.5684C44.783 28.9428 44.457 29.1166 44.1483 29.1166H42.6074C42.3652 27.4992 41.7451 26.0559 40.8621 24.9811C39.8977 23.8071 38.5979 23.052 37.1365 23.052C35.6779 23.052 34.3797 23.8075 33.4162 24.9813C32.5341 26.0561 31.914 27.4993 31.6718 29.1166H22.5103C22.2681 27.4992 21.648 26.056 20.7659 24.9813C19.8024 23.8075 18.5042 23.052 17.0456 23.052C15.5869 23.052 14.2887 23.8075 13.3252 24.9814C12.4431 26.0561 11.823 27.4993 11.5809 29.1166H9.54004C9.23138 29.1166 8.90541 28.9429 8.63715 28.5685C8.36951 28.1949 8.18839 27.6534 8.18839 27.0323V21.8108H45.5ZM33.7961 30.6418C33.7961 29.2526 34.2005 28.0155 34.829 27.1383C35.4582 26.2602 36.2826 25.775 37.1415 25.775C37.9968 25.775 38.8197 26.2597 39.4483 27.1381C40.0762 28.0154 40.4806 29.2526 40.4806 30.6418C40.4806 32.0263 40.0764 33.2613 39.4485 34.1377C38.8198 35.0151 37.9968 35.5 37.1415 35.5C36.2826 35.5 35.4581 35.0147 34.8289 34.1375C34.2003 33.2612 33.7961 32.0263 33.7961 30.6418ZM34.7219 30.6416C34.7219 31.4708 34.9625 32.245 35.3768 32.8244C35.7903 33.4029 36.4071 33.8209 37.1415 33.8209C37.8733 33.8209 38.4898 33.4024 38.9035 32.8249C39.3184 32.2458 39.5611 31.4717 39.5611 30.6416C39.5611 29.8078 39.3186 29.0333 38.9032 28.4548C38.4886 27.8775 37.872 27.4625 37.1415 27.4625C36.4083 27.4625 35.7914 27.877 35.3771 28.4552C34.9623 29.0342 34.7219 29.8086 34.7219 30.6416Z" stroke="#999999"/>
</svg>
