<svg width="24" height="24" viewBox="0 0 24 24" fill="none" xmlns="http://www.w3.org/2000/svg">
<path d="M16.9219 18.375V20.25C16.9219 22.3178 15.2397 24 13.1719 24H3.75C1.68219 24 0 22.3178 0 20.25V3.75C0 1.68219 1.68219 0 3.75 0H13.1719C15.2397 0 16.9219 1.68219 16.9219 3.75V5.625C16.9219 6.14282 16.5022 6.5625 15.9844 6.5625C15.4666 6.5625 15.0469 6.14282 15.0469 5.625V3.75C15.0469 2.71619 14.2057 1.875 13.1719 1.875H3.75C2.71619 1.875 1.875 2.71619 1.875 3.75V20.25C1.875 21.2838 2.71619 22.125 3.75 22.125H13.1719C14.2057 22.125 15.0469 21.2838 15.0469 20.25V18.375C15.0469 17.8572 15.4666 17.4375 15.9844 17.4375C16.5022 17.4375 16.9219 17.8572 16.9219 18.375ZM23.3135 10.3896L21.2142 8.29028C20.848 7.92407 20.2544 7.92407 19.8884 8.29028C19.5222 8.65631 19.5222 9.24994 19.8884 9.61597L21.3816 11.1094H10.125C9.60718 11.1094 9.1875 11.5291 9.1875 12.0469C9.1875 12.5647 9.60718 12.9844 10.125 12.9844H21.3816L19.8884 14.4778C19.5222 14.8438 19.5222 15.4374 19.8884 15.8035C20.0715 15.9866 20.3113 16.0781 20.5512 16.0781C20.7913 16.0781 21.0311 15.9866 21.2142 15.8035L23.3135 13.7042C24.2274 12.7903 24.2274 11.3035 23.3135 10.3896Z" fill="#666666"/>
</svg>
