<svg width="24" height="24" viewBox="0 0 24 24" fill="none" xmlns="http://www.w3.org/2000/svg">
<path d="M16.9226 18.375V20.25C16.9226 22.3178 15.2404 24 13.1725 24H3.75016C1.68226 24 0 22.3178 0 20.25V3.75C0 1.68219 1.68226 0 3.75016 0H13.1725C15.2404 0 16.9226 1.68219 16.9226 3.75V5.625C16.9226 6.14282 16.5029 6.5625 15.9851 6.5625C15.4672 6.5625 15.0475 6.14282 15.0475 5.625V3.75C15.0475 2.71619 14.2063 1.875 13.1725 1.875H3.75016C2.71631 1.875 1.87508 2.71619 1.87508 3.75V20.25C1.87508 21.2838 2.71631 22.125 3.75016 22.125H13.1725C14.2063 22.125 15.0475 21.2838 15.0475 20.25V18.375C15.0475 17.8572 15.4672 17.4375 15.9851 17.4375C16.5029 17.4375 16.9226 17.8572 16.9226 18.375ZM23.3146 10.3896L21.2152 8.29028C20.8489 7.92407 20.2553 7.92407 19.8892 8.29028C19.523 8.65631 19.523 9.24994 19.8892 9.61597L21.3825 11.1094H10.1254C9.6076 11.1094 9.1879 11.5291 9.1879 12.0469C9.1879 12.5647 9.6076 12.9844 10.1254 12.9844H21.3825L19.8892 14.4778C19.523 14.8438 19.523 15.4374 19.8892 15.8035C20.0724 15.9866 20.3122 16.0781 20.5521 16.0781C20.7922 16.0781 21.0321 15.9866 21.2152 15.8035L23.3146 13.7042C24.2285 12.7903 24.2285 11.3035 23.3146 10.3896Z" fill="#666666"/>
</svg>
