<svg width="36" height="36" viewBox="0 0 36 36" fill="none" xmlns="http://www.w3.org/2000/svg">
<g clip-path="url(#clip0)">
<path d="M11.518 12.0715C9.97649 12.1234 8.52673 12.4915 7.22978 13.2259L7.22968 13.226C6.41476 13.6877 5.70189 14.2735 5.08517 14.9606C4.82784 14.4196 3.58247 11.9835 2.16478 9.9178C0.741184 7.84348 -0.748338 5.2074 -0.978416 4.78589L-0.978631 4.7855C-0.978348 4.78602 -0.978475 4.78564 -0.978913 4.78436C-0.982558 4.77367 -1.00777 4.69972 -0.99765 4.54891C-0.98713 4.39216 -0.939462 4.18073 -0.819974 3.93429C-0.582841 3.4452 -0.0582981 2.81123 1.01998 2.2205C2.16112 1.59532 3.67284 0.879738 5.00433 0.609518C5.67079 0.474261 6.24493 0.460829 6.68901 0.588561C7.10832 0.709166 7.42714 0.957793 7.62406 1.41623L7.6241 1.41632C8.36219 3.13367 9.46916 6.48462 10.2268 8.77823C10.5304 9.69719 10.7779 10.4464 10.9232 10.8528C11.055 11.2224 11.2692 11.6439 11.518 12.0715Z" stroke="#999999"/>
<path d="M14.437 15.4814L14.0623 15.8124C13.8185 15.5365 13.1105 14.6345 12.453 13.6522C10.8196 13.6153 9.32725 13.9463 8.03082 14.6803C7.14465 15.1824 6.38902 15.8547 5.7549 16.671C5.8524 17.0245 5.95571 17.4161 6.0483 17.7671C6.05857 17.8061 6.06872 17.8445 6.07871 17.8824C6.20518 18.3615 6.29714 18.704 6.32787 18.7873C6.36656 18.8912 6.44337 19.029 6.53523 19.1412C6.58018 19.1961 6.6204 19.2346 6.65105 19.2578C6.66178 19.266 6.66933 19.2707 6.67367 19.2732C6.93134 19.3287 7.11877 19.4695 7.2311 19.5756C7.29059 19.6318 7.33636 19.6852 7.36815 19.7257C7.38421 19.7462 7.39717 19.764 7.40696 19.778L7.41941 19.7963L7.42392 19.8032L7.42576 19.806L7.42657 19.8073L7.42694 19.8079L7.42713 19.8082C7.42722 19.8083 7.42731 19.8084 7.00466 20.0756L7.42731 19.8084L7.43954 19.8278L7.44996 19.8482C7.51737 19.9802 7.65778 20.0902 7.85045 20.1736L5.20679 16.5673C5.9076 15.6124 6.76258 14.8242 7.78434 14.2453C9.24241 13.4197 10.9184 13.0794 12.7277 13.1613C13.4121 14.2091 14.1943 15.2066 14.437 15.4814ZM14.437 15.4814C14.8338 15.9321 14.5887 16.3713 14.5887 16.3713M14.437 15.4814L14.0617 15.8118C14.1617 15.9253 14.1663 16.0116 14.1629 16.0603C14.1608 16.0907 14.154 16.1158 14.1486 16.1313C14.1474 16.1346 14.1464 16.1373 14.1457 16.1392M14.5887 16.3713L14.1521 16.1276L14.1519 16.1281C14.152 16.1278 14.1521 16.1276 14.5887 16.3713ZM14.5887 16.3713C14.1717 16.647 14.1715 16.6468 14.1714 16.6466L14.1717 16.647L14.5887 16.3713ZM14.5887 16.3713C14.5887 16.3713 15.0754 17.1073 14.6336 17.8596C14.6015 17.8153 14.5623 17.7661 14.5149 17.7143C14.4472 17.6404 14.3636 17.562 14.2616 17.4855M14.2616 17.4855C14.3243 17.3278 14.327 17.1816 14.3106 17.0576C14.2943 16.9341 14.2567 16.8254 14.222 16.7468C14.205 16.7082 14.1896 16.679 14.1797 16.6612C14.1747 16.6524 14.1712 16.6466 14.1697 16.6441L14.1699 16.6443L14.169 16.6429C14.1687 16.6425 14.1689 16.6428 14.1695 16.6438L14.0039 16.3933L14.1457 16.1392M14.2616 17.4855C14.13 17.3868 13.968 17.2914 13.7706 17.2131C13.0653 16.9332 11.9968 16.9035 10.3952 17.5397L14.2616 17.4855ZM14.1457 16.1392C14.1447 16.1415 14.1442 16.1427 14.1442 16.1426L14.1461 16.1389L14.1485 16.1342L14.1502 16.1312L14.1511 16.1295L14.1457 16.1392Z" stroke="#999999"/>
<path d="M18.936 31.9319C18.7996 30.7843 18.829 30.1262 18.9891 29.1075L18.9891 29.1075C19.1028 28.3837 19.0949 28.0329 19.075 27.8827C19.0729 27.8668 19.0707 27.8542 19.0689 27.8444C17.8568 26.2367 16.5287 23.9426 15.5095 22.0648C14.9958 21.1185 14.5572 20.2714 14.2469 19.6608C14.0917 19.3554 13.9685 19.109 13.884 18.9388C13.8418 18.8536 13.8092 18.7875 13.7871 18.7425L13.7684 18.7043C13.6895 18.5994 13.4168 18.4183 12.8322 18.3822C12.2549 18.3465 11.477 18.4648 10.5904 18.846C9.69219 19.2325 9.33352 19.6638 9.18633 19.9405C9.11087 20.0823 9.08337 20.1975 9.07325 20.2678C9.07127 20.2816 9.06994 20.2938 9.06906 20.3041L12.3621 29.6589C12.365 29.6618 12.3692 29.6657 12.375 29.6706C12.4018 29.6932 12.4429 29.7195 12.4957 29.746C12.5468 29.7716 12.5976 29.7916 12.6362 29.8052C12.6551 29.8119 12.6699 29.8167 12.6791 29.8195L12.6875 29.822L12.6881 29.8222L12.6888 29.8224L12.6893 29.8225C14.3517 30.2844 15.8337 31.3142 16.9279 32.2639C17.1847 32.4867 17.4224 32.7071 17.6383 32.9175L15.1392 27.5241C14.7935 27.3681 14.5025 27.066 14.3256 26.7003L14.3255 26.7001C14.165 26.3679 14.1054 26.0024 14.1651 25.669C14.2248 25.3353 14.4168 24.9947 14.7853 24.8294C15.1497 24.666 15.5316 24.7438 15.8238 24.9083C16.1184 25.0742 16.368 25.3483 16.5286 25.6807L18.936 31.9319ZM18.936 31.9319L16.6343 26.9202C16.7736 26.529 16.7159 26.0681 16.5287 25.6809L18.936 31.9319ZM32.9923 34.7213C32.4737 34.8271 31.9907 34.9213 31.5351 35.0043C31.6218 34.981 31.7083 34.9569 31.7947 34.9318L32.873 34.6192L31.9193 34.0268C30.7615 33.3077 29.3902 33.0314 28.1145 32.7744C28.059 32.7632 28.0037 32.7521 27.9487 32.741C26.5919 32.4666 25.3416 32.1914 24.3047 31.495C24.3026 31.4891 24.2999 31.4772 24.3007 31.4601C24.3017 31.4401 24.3071 31.4229 24.3131 31.4117C24.3156 31.407 24.3176 31.4045 24.3185 31.4034C25.3038 30.7923 26.4722 30.4259 27.7118 30.0371C27.8401 29.9968 27.9692 29.9563 28.0989 29.9153C28.474 29.7967 28.8542 29.6736 29.2318 29.538C28.3003 29.9438 27.3696 30.3064 26.5713 30.6174C26.1806 30.7697 25.8216 30.9095 25.5098 31.036L24.4242 31.4765L25.4933 31.9556C26.5032 32.4082 27.6145 32.622 28.6523 32.8217C28.9548 32.8799 29.251 32.9369 29.5367 32.9982C30.8402 33.2782 31.997 33.6543 32.9264 34.5684L32.9266 34.5685C32.9484 34.59 32.9675 34.6195 32.9796 34.6533C32.9894 34.6807 32.9924 34.7044 32.9923 34.7213ZM31.6486 28.3463C31.7648 28.264 31.8785 28.1779 31.9894 28.0876L31.9895 28.0876C32.7856 27.439 33.1993 26.7521 33.1139 26.014C33.0333 25.3177 32.5217 24.7688 31.9911 24.3418C31.4973 23.9445 30.8841 23.574 30.3174 23.2317C30.2582 23.1959 30.1996 23.1605 30.1416 23.1254C29.5039 22.7389 28.9583 22.394 28.6088 22.0524C28.2482 21.7001 28.101 21.3873 28.082 21.1312C28.0641 20.8896 28.1532 20.6037 28.4758 20.2755C28.9577 19.7851 29.5533 19.3079 30.1948 18.7939C30.2354 18.7614 30.2761 18.7287 30.317 18.6959C30.9935 18.1535 31.7093 17.5718 32.3172 16.9277C32.7992 16.4169 33.2283 15.8516 33.5224 15.2132C33.4994 15.3875 33.4651 15.5578 33.4198 15.7244C33.1901 16.5694 32.6622 17.3691 31.7766 18.1384L31.7766 18.1384C31.5839 18.3059 31.3158 18.4909 30.9964 18.7113C30.9 18.7779 30.7988 18.8477 30.6936 18.9213C30.2638 19.2219 29.7831 19.5747 29.4176 19.9638C29.0617 20.3427 28.7281 20.8473 28.7786 21.4459C28.8305 22.0596 29.266 22.5727 29.9664 23.0106C30.4378 23.3054 30.9611 23.5403 31.4478 23.7588C31.5146 23.7888 31.5807 23.8184 31.6459 23.8479C32.2028 24.0998 32.7046 24.3418 33.1245 24.6583C33.5911 25.0099 33.8277 25.3236 33.9306 25.5849C34.028 25.8319 34.0214 26.0703 33.9205 26.3251C33.6989 26.8846 33.0303 27.5007 32.0143 28.1283C31.8954 28.2018 31.7733 28.2744 31.6486 28.3463Z" stroke="#999999"/>
</g>
<defs>
<clipPath id="clip0">
<rect width="36" height="36" fill="white"/>
</clipPath>
</defs>
</svg>
