<svg width="31" height="32" viewBox="0 0 31 32" fill="none" xmlns="http://www.w3.org/2000/svg">
<path d="M9.7387 13.4057C9.87021 13.5562 10.0355 13.7119 10.2177 13.866C9.35762 14.2765 8.61217 14.8383 8.02362 15.5656L8.02354 15.5657C7.67101 16.0016 7.39212 16.4778 7.18035 16.9849C6.68603 16.5435 5.49819 15.5298 4.29645 14.718C2.9396 13.8016 1.40952 12.5648 1.1217 12.3259C1.11678 12.3178 1.10318 12.2942 1.08852 12.2482C1.06372 12.1703 1.04353 12.0491 1.05592 11.8868C1.08038 11.5663 1.23354 11.0768 1.74032 10.4681C2.29297 9.8044 3.04272 9.00723 3.78069 8.52847C4.1503 8.28869 4.47683 8.15558 4.74567 8.12991C4.98884 8.10669 5.19703 8.16784 5.39368 8.36623L5.39375 8.3663C6.26581 9.24574 7.75714 11.0369 8.78691 12.2737C9.20364 12.7742 9.54478 13.1839 9.7387 13.4057ZM9.7387 13.4057L10.1153 13.0767M9.7387 13.4057C9.73876 13.4057 9.73882 13.4058 9.73887 13.4059L10.1153 13.0767M10.1153 13.0767C9.93481 12.8704 9.60738 12.4772 9.20246 11.9909C8.17113 10.7523 6.63712 8.9101 5.74879 8.01424L10.7346 13.6427C10.4878 13.4476 10.2698 13.2537 10.1153 13.0767Z" stroke="#333333"/>
<path d="M10.0041 19.5868L10.0011 19.5842L9.98266 19.5706L9.68734 19.9741C9.98266 19.5706 9.98252 19.5705 9.98239 19.5704L9.98211 19.5702L9.98155 19.5698L9.98038 19.569L9.97781 19.5671L9.9718 19.5629L9.9563 19.5523C9.94449 19.5445 9.9295 19.535 9.91164 19.5245C9.87639 19.5038 9.82749 19.478 9.7677 19.454C9.66283 19.4119 9.49509 19.3638 9.29769 19.3874C9.28614 19.3828 9.26978 19.3753 9.24912 19.3637C9.18011 19.3252 9.11333 19.2698 9.07667 19.2289L10.0041 19.5868ZM10.0041 19.5868C10.0036 19.5832 10.0031 19.5795 10.0026 19.5759C9.92238 18.9758 10.1932 18.2609 11.0568 17.4511C11.9132 16.6478 12.6221 16.3773 13.185 16.3787C13.2347 16.3788 13.2826 16.381 13.3286 16.3851C13.2991 16.3354 13.2636 16.2941 13.2335 16.2643C13.2177 16.2487 13.205 16.2378 13.198 16.2321C13.1964 16.2308 13.1952 16.2298 13.1943 16.2291L12.9503 16.0581L12.9872 15.784C12.9867 15.7827 12.9862 15.7817 12.9849 15.78C12.9841 15.7791 12.9754 15.768 12.947 15.7534C12.9469 15.7534 12.9468 15.7533 12.9467 15.7533L10.0041 19.5868ZM9.1351 16.4817C9.72177 15.7567 10.5122 15.2126 11.4743 14.8451L9.1351 16.4817ZM8.26411 18.1352C8.45299 17.5246 8.74014 16.97 9.13502 16.4817L8.26411 18.1352Z" stroke="#333333"/>
<path d="M27.6297 17.7615C27.705 17.574 27.7425 17.4105 27.7428 17.2733C27.743 17.1289 27.7022 17.0214 27.613 16.9257C27.5133 16.8188 27.3215 16.694 26.9639 16.5949L27.6297 17.7615ZM27.6297 17.7615C27.6228 17.5658 27.5753 17.3775 27.4801 17.1993C27.3182 16.8961 27.0519 16.692 26.7656 16.5482C26.8333 16.5615 26.8993 16.5769 26.9639 16.5948L27.6297 17.7615ZM24.6765 16.0246C24.2438 15.9486 23.8888 15.8745 23.6354 15.7677C23.5521 15.7327 23.4821 15.6964 23.4236 15.66M24.6765 16.0246L24.3953 12.7086M24.6765 16.0246L24.7077 15.8562L24.6765 16.0246ZM23.4236 15.66C23.4076 15.6334 23.3925 15.6059 23.3785 15.5776C23.2348 15.2873 23.2388 14.9839 23.2984 14.7138M23.4236 15.66C23.2799 15.5707 23.2049 15.4808 23.1689 15.4062C23.1247 15.3144 23.1012 15.1669 23.2074 14.9168M23.4236 15.66C23.471 15.7387 23.527 15.8099 23.5905 15.8742C23.8373 16.124 24.1984 16.2702 24.6165 16.3478C24.6165 16.3478 24.6165 16.3478 24.6165 16.3478L24.6765 16.0246L23.2074 14.9168M23.2984 14.7138C23.4639 14.3622 23.6752 13.9931 23.9047 13.5922C23.9213 13.5632 23.938 13.5341 23.9548 13.5047C24.1007 13.2496 24.2522 12.9829 24.3953 12.7086M23.2984 14.7138C23.2663 14.7821 23.2359 14.8497 23.2074 14.9168M23.2984 14.7138L23.2074 14.9168M24.3953 12.7086C24.4082 12.6859 24.4202 12.6639 24.4314 12.6426L24.4314 12.6425C24.4665 12.5751 24.4993 12.5086 24.5298 12.4428C24.4861 12.5321 24.4411 12.6208 24.3953 12.7086ZM18.9447 21.9645C18.9861 22.0453 19.0676 22.2469 19.1651 22.6843L19.1651 22.6843C19.2494 23.0621 19.3322 23.362 19.4508 23.669L17.4947 21.7912C17.4633 21.4863 17.2948 21.2019 17.0773 21.0012C16.874 20.8135 16.6215 20.6877 16.3612 20.6517C16.1037 20.6161 15.7889 20.6665 15.5557 20.9051C15.3194 21.1469 15.2797 21.4662 15.332 21.7267C15.3842 21.9869 15.5307 22.2293 15.7338 22.4167L15.7339 22.4169C15.9406 22.6075 16.206 22.7387 16.4808 22.7681L18.7123 24.8959C17.8151 24.595 16.688 24.3489 15.5776 24.4651L15.5775 24.4651L15.575 24.4653C15.5707 24.4656 15.5626 24.4661 15.5518 24.4665C15.5293 24.4673 15.5001 24.4672 15.4708 24.4646C15.4606 24.4637 15.4519 24.4627 15.4445 24.4615L11.176 19.5329C11.17 19.5004 11.1649 19.4476 11.173 19.3761C11.1916 19.2131 11.2871 18.8914 11.7283 18.4536C12.1696 18.0158 12.6013 17.768 12.9395 17.6583C13.2643 17.553 13.4183 17.5966 13.4512 17.6086L13.4562 17.6131C13.481 17.6358 13.5176 17.669 13.5648 17.7116C13.6591 17.7969 13.7961 17.92 13.9674 18.0719C14.3099 18.3756 14.7902 18.7948 15.3414 19.2575C16.4217 20.1641 17.7961 21.2557 18.9447 21.9645Z" stroke="#333333"/>
</svg>
