<svg width="6" height="21" viewBox="0 0 6 21" fill="none" xmlns="http://www.w3.org/2000/svg">
<path d="M2.99295 8.72187C4.18343 8.72187 5.13581 9.69748 5.13581 10.917C5.13581 12.1365 4.18343 13.1121 2.99295 13.1121C1.80248 13.1121 0.850098 12.1365 0.850098 10.917C0.850098 9.69748 1.80248 8.72187 2.99295 8.72187ZM0.850098 3.11211C0.850098 4.33163 1.80248 5.30724 2.99295 5.30724C4.18343 5.30724 5.13581 4.33163 5.13581 3.11211C5.13581 1.8926 4.18343 0.916992 2.99295 0.916992C1.80248 0.916992 0.850098 1.8926 0.850098 3.11211ZM0.850098 18.7219C0.850098 19.9414 1.80248 20.917 2.99295 20.917C4.18343 20.917 5.13581 19.9414 5.13581 18.7219C5.13581 17.5024 4.18343 16.5267 2.99295 16.5267C1.80248 16.5267 0.850098 17.5024 0.850098 18.7219Z" fill="#90A4AE"/>
</svg>
