<svg width="48" height="48" viewBox="0 0 48 48" fill="none" xmlns="http://www.w3.org/2000/svg">
<circle opacity="0.2" cx="24" cy="24" r="24" fill="#F2994A"/>
<g clip-path="url(#clip0)">
<path d="M15.0247 24.6547C15.3517 29.3124 19.2465 33.0033 23.9862 33.0033C26.3869 33.0033 28.6416 32.069 30.3403 30.3719L15.0247 24.6547ZM15.0247 24.6547L16.4586 26.0905L16.4593 26.0912C16.6816 26.312 17.0399 26.3121 17.2621 26.0911L17.2621 26.0911L17.2637 26.0895C17.4827 25.8676 17.4836 25.5091 17.2632 25.2873L17.2626 25.2868L14.7662 22.7893L14.5894 22.6124L14.4126 22.7893L11.9173 25.2862C11.9172 25.2863 11.9171 25.2864 11.917 25.2865C11.6941 25.5083 11.6947 25.8681 11.9162 26.0901C12.0279 26.2028 12.1748 26.2566 12.3176 26.2566C12.4626 26.2566 12.6092 26.2016 12.7196 26.0902C12.7198 26.09 12.72 26.0898 12.7201 26.0896L13.9111 24.8981C14.3591 30.0677 18.6987 34.1401 23.9832 34.1401C26.6869 34.1401 29.2295 33.0867 31.1418 31.1752L31.1419 31.1751C31.3628 30.9541 31.3636 30.5955 31.1435 30.3737C30.9228 30.1469 30.5607 30.1515 30.3403 30.3718L15.0247 24.6547Z" fill="#F2994A" stroke="#F2994A" stroke-width="0.5"/>
<path d="M35.2799 21.9095L34.0894 23.1011C33.6399 17.9315 29.3004 13.8599 24.0166 13.8599C21.3114 13.8599 18.7698 14.9132 16.8574 16.8246C16.6349 17.046 16.6345 17.406 16.8569 17.6277C17.0781 17.8508 17.439 17.85 17.6602 17.628C19.358 15.9309 21.6135 14.9966 24.0142 14.9966C28.7533 14.9966 32.6489 18.6869 32.9772 23.3454L31.5418 21.9093L31.5417 21.9093C31.3198 21.6874 30.9603 21.688 30.7383 21.9088L30.7367 21.9104C30.5177 22.1323 30.5169 22.4907 30.7373 22.7126L30.7379 22.7131L33.2345 25.2098L33.4114 25.3866L33.5881 25.2098L36.084 22.7131C36.084 22.7131 36.084 22.7131 36.084 22.7131C36.3058 22.4913 36.3051 22.1316 36.0833 21.9096C35.8617 21.687 35.5019 21.6886 35.2804 21.9089L35.2799 21.9095Z" fill="#F2994A" stroke="#F2994A" stroke-width="0.5"/>
</g>
<defs>
<clipPath id="clip0">
<rect width="24" height="24" fill="white" transform="translate(12 12)"/>
</clipPath>
</defs>
</svg>
