<svg width="24" height="24" viewBox="0 0 24 24" fill="none" xmlns="http://www.w3.org/2000/svg">
<path d="M11.8994 1.9462C13.6674 1.9462 15.4382 2.44805 17.0204 3.39763C18.0239 4.00143 18.9257 4.76028 19.6918 5.6464L17.0485 5.55921C16.7381 5.54884 16.4781 5.79229 16.4679 6.1029C16.4577 6.41333 16.701 6.67349 17.0116 6.68351L20.6687 6.80427C20.8788 6.89075 21.1203 6.84241 21.281 6.68157C21.4415 6.52073 21.4895 6.27921 21.4026 6.06915L21.2822 2.4129C21.2752 2.10229 21.0177 1.8562 20.7071 1.86305C20.3966 1.87009 20.1502 2.1276 20.1572 2.43803C20.1572 2.44225 20.1572 2.44612 20.1576 2.45016L20.2272 4.55954C19.4534 3.73266 18.569 3.01671 17.5993 2.43259C15.8423 1.37842 13.8713 0.821198 11.8994 0.821198C8.74937 0.821198 5.84511 2.12005 3.72273 4.47833C1.84257 6.56749 0.720032 9.37947 0.720032 12.0005C0.720032 12.3111 0.97175 12.563 1.28253 12.563C1.59331 12.563 1.84503 12.3111 1.84503 12.0005C1.84503 9.64982 2.85947 7.11909 4.55892 5.23103C6.46544 3.11304 9.0721 1.9462 11.8994 1.9462Z" fill="#F2994A" stroke="#F2994A" stroke-width="0.5"/>
<path d="M22.6575 11.438C22.3467 11.438 22.095 11.6898 22.095 12.0005C22.095 14.3511 21.0806 16.882 19.3811 18.7702C17.4746 20.8882 14.8679 22.0547 12.0407 22.0547C10.2727 22.0547 8.50185 21.5532 6.91964 20.6036C5.9161 19.9996 5.01435 19.2408 4.24829 18.3548L6.89151 18.442C7.20194 18.452 7.46193 18.2086 7.47212 17.8982C7.48232 17.5877 7.23903 17.3278 6.92843 17.3174L3.2713 17.1968C3.06124 17.1103 2.81972 17.1588 2.65905 17.3195C2.49857 17.4803 2.45058 17.7217 2.53741 17.9317L2.65782 21.588C2.66485 21.8988 2.92237 22.145 3.23298 22.138C3.54341 22.1311 3.78985 21.8736 3.78282 21.563C3.78282 21.559 3.78282 21.5551 3.78247 21.5509L3.71286 19.4415C4.48665 20.2686 5.37101 20.9842 6.34079 21.5686C8.09773 22.623 10.0688 23.18 12.0407 23.18C15.1907 23.18 18.0949 21.8814 20.2173 19.5231C22.0975 17.4337 23.22 14.6218 23.22 12.0005C23.22 11.6898 22.9683 11.438 22.6575 11.438Z" fill="#F2994A" stroke="#F2994A" stroke-width="0.5"/>
</svg>
