<svg width="24" height="22" viewBox="0 0 24 22" fill="none" xmlns="http://www.w3.org/2000/svg">
<path d="M3.02467 11.6547C3.35172 16.3124 7.24652 20.0033 11.9862 20.0033C14.3869 20.0033 16.6416 19.069 18.3403 17.3719L3.02467 11.6547ZM3.02467 11.6547L4.45861 13.0905L4.4593 13.0912C4.68156 13.312 5.03987 13.3121 5.26213 13.0911L5.26213 13.0911L5.26375 13.0895C5.48275 12.8676 5.48356 12.5091 5.26318 12.2873L5.26264 12.2868L2.76623 9.7893L2.5894 9.61239L2.41259 9.78931L-0.082655 12.2862C-0.0827632 12.2863 -0.0828712 12.2864 -0.0829792 12.2865C-0.305918 12.5083 -0.305333 12.8681 -0.0837536 13.0901C0.0278793 13.2028 0.174821 13.2566 0.31757 13.2566C0.462625 13.2566 0.609153 13.2016 0.719625 13.0902C0.719796 13.09 0.719967 13.0898 0.720138 13.0896L1.91108 11.8981C2.35908 17.0677 6.69867 21.1401 11.9832 21.1401C14.6869 21.1401 17.2295 20.0867 19.1418 18.1752L19.1419 18.1751C19.3628 17.9541 19.3636 17.5955 19.1435 17.3737C18.9228 17.1469 18.5607 17.1515 18.3403 17.3718L3.02467 11.6547Z" fill="#F2994A" stroke="#F2994A" stroke-width="0.5"/>
<path d="M23.2799 8.90947L22.0894 10.1011C21.6399 4.93154 17.3004 0.859894 12.0166 0.859894C9.31139 0.859894 6.76977 1.91321 4.85744 3.82458C4.63486 4.04602 4.63451 4.40601 4.8569 4.62771C5.0781 4.8508 5.43902 4.85005 5.66017 4.62799C7.35802 2.93092 9.6135 1.99656 12.0142 1.99656C16.7533 1.99656 20.6489 5.6869 20.9772 10.3454L19.5418 8.90929L19.5417 8.90925C19.3198 8.68735 18.9603 8.68804 18.7383 8.90878L18.7367 8.91041C18.5177 9.13227 18.5169 9.49073 18.7373 9.71255L18.7379 9.71313L21.2345 12.2098L21.4114 12.3866L21.5881 12.2098L24.084 9.71313C24.084 9.71312 24.084 9.71311 24.084 9.7131C24.3058 9.49128 24.3051 9.13155 24.0833 8.90963C23.8617 8.68698 23.5019 8.6886 23.2804 8.90891L23.2799 8.90947Z" fill="#F2994A" stroke="#F2994A" stroke-width="0.5"/>
</svg>
