<svg width="28" height="24" viewBox="0 0 28 24" fill="none" xmlns="http://www.w3.org/2000/svg">
<path d="M14.3665 14C13.9189 14 13.4813 14.1173 13.1091 14.3371C12.7369 14.5568 12.4468 14.8692 12.2755 15.2346C12.1042 15.6001 12.0594 16.0022 12.1467 16.3902C12.234 16.7781 12.4496 17.1345 12.7661 17.4142C13.0827 17.6939 13.4859 17.8844 13.925 17.9616C14.364 18.0387 14.8191 17.9991 15.2327 17.8478C15.6462 17.6964 15.9997 17.44 16.2484 17.1111C16.4971 16.7822 16.6299 16.3956 16.6299 16C16.6299 15.4696 16.3914 14.9609 15.9669 14.5858C15.5425 14.2107 14.9668 14 14.3665 14Z" fill="#88889D"/>
<path d="M15.624 9.66294C15.2518 9.8827 14.8142 10 14.3665 10C13.7663 10 13.1906 9.78929 12.7661 9.41421C12.3417 9.03914 12.1032 8.53043 12.1032 8C12.1032 7.60444 12.236 7.21776 12.4846 6.88886C12.7333 6.55996 13.0868 6.30362 13.5004 6.15224C13.914 6.00087 14.369 5.96126 14.8081 6.03843C15.2471 6.1156 15.6504 6.30608 15.9669 6.58579C16.2835 6.86549 16.499 7.22186 16.5864 7.60982C16.6737 7.99778 16.6289 8.39992 16.4576 8.76537C16.2863 9.13082 15.9962 9.44318 15.624 9.66294Z" fill="#88889D"/>
</svg>
