<svg width="24" height="24" viewBox="0 0 24 24" fill="none" xmlns="http://www.w3.org/2000/svg">
<path fill-rule="evenodd" clip-rule="evenodd" d="M17.1204 3.92817V11.5526H20.9436V3.92817C20.9436 2.87834 20.082 2.01655 19.032 2.01655C17.9819 2.01655 17.1204 2.87817 17.1204 3.92817ZM7.71772 7.2559C7.46042 6.99859 7.46042 6.58125 7.71772 6.32394C7.97521 6.06637 8.39255 6.06637 8.65012 6.32394L9.0113 6.68521L10.1784 5.51831C9.36631 4.89014 8.2135 4.96505 7.48815 5.69023C6.69132 6.48715 6.69132 7.77914 7.48815 8.57614C8.28489 9.37297 9.57705 9.37297 10.3738 8.57614C10.8707 8.0794 11.0852 7.35194 10.9132 6.64745L9.47749 8.08345C9.21992 8.34067 8.80258 8.34067 8.54528 8.08345L7.71772 7.2559ZM11.1151 4.58151L11.9427 3.75378C12.2 3.49648 12.6175 3.49648 12.8749 3.75378C13.1321 4.01127 13.1321 4.42861 12.8749 4.68591L11.9337 5.62694C12.5859 6.92447 12.3249 8.48944 11.306 9.5081C9.99413 10.8201 7.8679 10.8201 6.55593 9.5081C5.24431 8.19648 5.24431 6.06998 6.55593 4.75819C7.79642 3.51769 9.78286 3.44014 11.1151 4.58151ZM4.8157 18.3642C4.45153 18.3642 4.15646 18.6593 4.15646 19.0234C4.15646 19.3874 4.45153 19.6826 4.8157 19.6826C5.1797 19.6826 5.47494 19.3874 5.47494 19.0234C5.47494 18.6593 5.1797 18.3642 4.8157 18.3642ZM7.45241 19.6826C7.08815 19.6826 6.79325 19.3874 6.79325 19.0234C6.79325 18.6593 7.08815 18.3642 7.45241 18.3642H13.8245C14.1885 18.3642 14.4837 18.6593 14.4837 19.0234C14.4837 19.3874 14.1885 19.6826 13.8245 19.6826H7.45241ZM4.8157 15.7276C4.45153 15.7276 4.15646 16.0225 4.15646 16.3867C4.15646 16.7507 4.45153 17.0459 4.8157 17.0459C5.1797 17.0459 5.47494 16.7507 5.47494 16.3867C5.47494 16.0225 5.1797 15.7276 4.8157 15.7276ZM7.45241 17.0459C7.08815 17.0459 6.79325 16.7507 6.79325 16.3867C6.79325 16.0225 7.08815 15.7276 7.45241 15.7276H13.8245C14.1885 15.7276 14.4837 16.0225 14.4837 16.3867C14.4837 16.7507 14.1885 17.0459 13.8245 17.0459H7.45241ZM17.1204 12.8709V22.539C17.1204 22.9031 16.8253 23.1982 16.4612 23.1982H2.17899C1.81473 23.1982 1.51984 22.9031 1.51984 22.539V3.86224C1.51984 2.11875 2.94017 0.698151 4.68392 0.698151H19.032C20.8098 0.698151 22.262 2.15044 22.262 3.92817V12.2117C22.262 12.5758 21.9668 12.8709 21.6028 12.8709H17.1204ZM16.4318 2.01655C16.0365 2.55238 15.8021 3.21408 15.8021 3.92817V21.8798H2.83815V3.86224C2.83815 2.84657 3.66808 2.01655 4.68392 2.01655H16.4318ZM4.8157 13.0908C4.45153 13.0908 4.15646 13.3859 4.15646 13.7499C4.15646 14.114 4.45153 14.4092 4.8157 14.4092C5.1797 14.4092 5.47494 14.114 5.47494 13.7499C5.47494 13.3859 5.1797 13.0908 4.8157 13.0908ZM7.45241 14.4092H13.8245C14.1885 14.4092 14.4837 14.114 14.4837 13.7499C14.4837 13.3859 14.1885 13.0908 13.8245 13.0908H7.45241C7.08815 13.0908 6.79325 13.3859 6.79325 13.7499C6.79325 14.114 7.08815 14.4092 7.45241 14.4092Z" fill="#333333"/>
</svg>
