<svg width="24" height="25" viewBox="0 0 24 25" fill="none" xmlns="http://www.w3.org/2000/svg">
<path d="M8.66771 1.60718H3.33285C2.67639 1.60786 2.04702 1.869 1.58291 2.33327C1.1188 2.79754 0.857876 3.427 0.857422 4.08346V9.41661C0.857876 10.0731 1.1188 10.7025 1.58291 11.1668C2.04702 11.6311 2.67639 11.8922 3.33285 11.8929H8.66771C9.32417 11.8922 9.95354 11.6311 10.4177 11.1668C10.8818 10.7025 11.1427 10.0731 11.1431 9.41661V4.08346C11.1427 3.427 10.8818 2.79754 10.4177 2.33327C9.95354 1.869 9.32417 1.60786 8.66771 1.60718ZM9.42885 9.41661C9.42885 9.61855 9.34869 9.81224 9.20597 9.95512C9.06325 10.098 8.86965 10.1784 8.66771 10.1786H3.33285C3.1309 10.1784 2.93731 10.098 2.79459 9.95512C2.65187 9.81224 2.57171 9.61855 2.57171 9.41661V4.08346C2.57171 3.88152 2.65187 3.68783 2.79459 3.54495C2.93731 3.40207 3.1309 3.32169 3.33285 3.32146H8.66771C8.86965 3.32169 9.06325 3.40207 9.20597 3.54495C9.34869 3.68783 9.42885 3.88152 9.42885 4.08346V9.41661Z" fill="#666665"/>
<path d="M20.6677 1.60718H15.3329C14.6764 1.60786 14.047 1.869 13.5829 2.33327C13.1188 2.79754 12.8579 3.427 12.8574 4.08346V9.41661C12.8579 10.0731 13.1188 10.7025 13.5829 11.1668C14.047 11.6311 14.6764 11.8922 15.3329 11.8929H20.6677C21.3242 11.8922 21.9535 11.6311 22.4177 11.1668C22.8818 10.7025 23.1427 10.0731 23.1431 9.41661V4.08346C23.1427 3.427 22.8818 2.79754 22.4177 2.33327C21.9535 1.869 21.3242 1.60786 20.6677 1.60718ZM21.4289 9.41661C21.4289 9.61855 21.3487 9.81224 21.206 9.95512C21.0633 10.098 20.8697 10.1784 20.6677 10.1786H15.3329C15.1309 10.1784 14.9373 10.098 14.7946 9.95512C14.6519 9.81224 14.5717 9.61855 14.5717 9.41661V4.08346C14.5717 3.88152 14.6519 3.68783 14.7946 3.54495C14.9373 3.40207 15.1309 3.32169 15.3329 3.32146H20.6677C20.8697 3.32169 21.0633 3.40207 21.206 3.54495C21.3487 3.68783 21.4289 3.88152 21.4289 4.08346V9.41661Z" fill="#666666"/>
<path d="M20.6677 13.6072H15.3329C14.6764 13.6079 14.047 13.869 13.5829 14.3333C13.1188 14.7975 12.8579 15.427 12.8574 16.0835V21.4166C12.8579 22.0731 13.1188 22.7025 13.5829 23.1668C14.047 23.6311 14.6764 23.8922 15.3329 23.8929H20.6677C21.3242 23.8922 21.9535 23.6311 22.4177 23.1668C22.8818 22.7025 23.1427 22.0731 23.1431 21.4166V16.0835C23.1427 15.427 22.8818 14.7975 22.4177 14.3333C21.9535 13.869 21.3242 13.6079 20.6677 13.6072ZM21.4289 21.4166C21.4289 21.6186 21.3487 21.8122 21.206 21.9551C21.0633 22.098 20.8697 22.1784 20.6677 22.1786H15.3329C15.1309 22.1784 14.9373 22.098 14.7946 21.9551C14.6519 21.8122 14.5717 21.6186 14.5717 21.4166V16.0835C14.5717 15.8815 14.6519 15.6878 14.7946 15.545C14.9373 15.4021 15.1309 15.3217 15.3329 15.3215H20.6677C20.8697 15.3217 21.0633 15.4021 21.206 15.545C21.3487 15.6878 21.4289 15.8815 21.4289 16.0835V21.4166Z" fill="#666666"/>
<path d="M8.66771 13.6072H3.33285C2.67639 13.6079 2.04702 13.869 1.58291 14.3333C1.1188 14.7975 0.857876 15.427 0.857422 16.0835V21.4166C0.857876 22.0731 1.1188 22.7025 1.58291 23.1668C2.04702 23.6311 2.67639 23.8922 3.33285 23.8929H8.66771C9.32417 23.8922 9.95354 23.6311 10.4177 23.1668C10.8818 22.7025 11.1427 22.0731 11.1431 21.4166V16.0835C11.1427 15.427 10.8818 14.7975 10.4177 14.3333C9.95354 13.869 9.32417 13.6079 8.66771 13.6072ZM9.42885 21.4166C9.42885 21.6186 9.34869 21.8122 9.20597 21.9551C9.06325 22.098 8.86965 22.1784 8.66771 22.1786H3.33285C3.1309 22.1784 2.93731 22.098 2.79459 21.9551C2.65187 21.8122 2.57171 21.6186 2.57171 21.4166V16.0835C2.57171 15.8815 2.65187 15.6878 2.79459 15.545C2.93731 15.4021 3.1309 15.3217 3.33285 15.3215H8.66771C8.86965 15.3217 9.06325 15.4021 9.20597 15.545C9.34869 15.6878 9.42885 15.8815 9.42885 16.0835V21.4166Z" fill="#666666"/>
</svg>
