<svg width="24" height="28" viewBox="0 0 24 28" fill="none" xmlns="http://www.w3.org/2000/svg">
<path d="M8.66746 1.70093H3.33261C2.67614 1.70168 2.04677 1.99138 1.58266 2.50644C1.11855 3.02149 0.857632 3.71979 0.857178 4.44806V10.3645C0.857632 11.0928 1.11855 11.7911 1.58266 12.3061C2.04677 12.8212 2.67614 13.1109 3.33261 13.1116H8.66746C9.32393 13.1109 9.9533 12.8212 10.4174 12.3061C10.8815 11.7911 11.1424 11.0928 11.1429 10.3645V4.44806C11.1424 3.71979 10.8815 3.02149 10.4174 2.50644C9.9533 1.99138 9.32393 1.70168 8.66746 1.70093ZM9.42861 10.3645C9.42861 10.5885 9.34844 10.8034 9.20572 10.9619C9.06301 11.1204 8.86941 11.2096 8.66746 11.2099H3.33261C3.13066 11.2096 2.93706 11.1204 2.79435 10.9619C2.65163 10.8034 2.57146 10.5885 2.57146 10.3645V4.44806C2.57146 4.22402 2.65163 4.00915 2.79435 3.85064C2.93706 3.69214 3.13066 3.60297 3.33261 3.60271H8.66746C8.86941 3.60297 9.06301 3.69214 9.20572 3.85064C9.34844 4.00915 9.42861 4.22402 9.42861 4.44806V10.3645Z" fill="white"/>
<path d="M20.6675 1.70093H15.3326C14.6761 1.70168 14.0468 1.99138 13.5827 2.50644C13.1186 3.02149 12.8576 3.71979 12.8572 4.44806V10.3645C12.8576 11.0928 13.1186 11.7911 13.5827 12.3061C14.0468 12.8212 14.6761 13.1109 15.3326 13.1116H20.6675C21.3239 13.1109 21.9533 12.8212 22.4174 12.3061C22.8815 11.7911 23.1424 11.0928 23.1429 10.3645V4.44806C23.1424 3.71979 22.8815 3.02149 22.4174 2.50644C21.9533 1.99138 21.3239 1.70168 20.6675 1.70093ZM21.4286 10.3645C21.4286 10.5885 21.3484 10.8034 21.2057 10.9619C21.063 11.1204 20.8694 11.2096 20.6675 11.2099H15.3326C15.1307 11.2096 14.9371 11.1204 14.7943 10.9619C14.6516 10.8034 14.5715 10.5885 14.5715 10.3645V4.44806C14.5715 4.22402 14.6516 4.00915 14.7943 3.85064C14.9371 3.69214 15.1307 3.60297 15.3326 3.60271H20.6675C20.8694 3.60297 21.063 3.69214 21.2057 3.85064C21.3484 4.00915 21.4286 4.22402 21.4286 4.44806V10.3645Z" fill="white"/>
<path d="M20.6675 15.0134H15.3326C14.6761 15.0142 14.0468 15.3039 13.5827 15.8189C13.1186 16.334 12.8576 17.0323 12.8572 17.7606V23.677C12.8576 24.4053 13.1186 25.1036 13.5827 25.6186C14.0468 26.1337 14.6761 26.4234 15.3326 26.4241H20.6675C21.3239 26.4234 21.9533 26.1337 22.4174 25.6186C22.8815 25.1036 23.1424 24.4053 23.1429 23.677V17.7606C23.1424 17.0323 22.8815 16.334 22.4174 15.8189C21.9533 15.3039 21.3239 15.0142 20.6675 15.0134ZM21.4286 23.677C21.4286 23.901 21.3484 24.1159 21.2057 24.2744C21.063 24.4329 20.8694 24.5221 20.6675 24.5224H15.3326C15.1307 24.5221 14.9371 24.4329 14.7943 24.2744C14.6516 24.1159 14.5715 23.901 14.5715 23.677V17.7606C14.5715 17.5365 14.6516 17.3216 14.7943 17.1631C14.9371 17.0046 15.1307 16.9155 15.3326 16.9152H20.6675C20.8694 16.9155 21.063 17.0046 21.2057 17.1631C21.3484 17.3216 21.4286 17.5365 21.4286 17.7606V23.677Z" fill="white"/>
<path d="M8.66746 15.0134H3.33261C2.67614 15.0142 2.04677 15.3039 1.58266 15.8189C1.11855 16.334 0.857632 17.0323 0.857178 17.7606V23.677C0.857632 24.4053 1.11855 25.1036 1.58266 25.6186C2.04677 26.1337 2.67614 26.4234 3.33261 26.4241H8.66746C9.32393 26.4234 9.9533 26.1337 10.4174 25.6186C10.8815 25.1036 11.1424 24.4053 11.1429 23.677V17.7606C11.1424 17.0323 10.8815 16.334 10.4174 15.8189C9.9533 15.3039 9.32393 15.0142 8.66746 15.0134ZM9.42861 23.677C9.42861 23.901 9.34844 24.1159 9.20572 24.2744C9.06301 24.4329 8.86941 24.5221 8.66746 24.5224H3.33261C3.13066 24.5221 2.93706 24.4329 2.79435 24.2744C2.65163 24.1159 2.57146 23.901 2.57146 23.677V17.7606C2.57146 17.5365 2.65163 17.3216 2.79435 17.1631C2.93706 17.0046 3.13066 16.9155 3.33261 16.9152H8.66746C8.86941 16.9155 9.06301 17.0046 9.20572 17.1631C9.34844 17.3216 9.42861 17.5365 9.42861 17.7606V23.677Z" fill="white"/>
</svg>
