<svg width="31" height="32" viewBox="0 0 31 32" fill="none" xmlns="http://www.w3.org/2000/svg">
<path d="M9.30169 13.1723C9.4332 13.3228 9.59851 13.4785 9.78071 13.6326C8.92061 14.0431 8.17516 14.6049 7.58661 15.3322L7.58653 15.3323C7.234 15.7682 6.95511 16.2444 6.74333 16.7515C6.24901 16.3101 5.06118 15.2964 3.85944 14.4847C2.50258 13.5682 0.972507 12.3314 0.684687 12.0925C0.679765 12.0844 0.666168 12.0608 0.651509 12.0148C0.626712 11.9369 0.606516 11.8157 0.618907 11.6534C0.643366 11.3329 0.796533 10.8434 1.30331 10.2347C1.85596 9.571 2.6057 8.77384 3.34368 8.29507C3.71329 8.05529 4.03982 7.92218 4.30866 7.89651C4.55183 7.87329 4.76002 7.93444 4.95667 8.13284L4.95674 8.1329C5.8288 9.01234 7.32013 10.8035 8.3499 12.0403C8.76663 12.5408 9.10777 12.9505 9.30169 13.1723ZM9.30169 13.1723L9.67825 12.8433M9.30169 13.1723C9.30175 13.1723 9.3018 13.1724 9.30186 13.1725L9.67825 12.8433M9.67825 12.8433C9.4978 12.637 9.17037 12.2438 8.76545 11.7575C7.73412 10.5189 6.20011 8.6767 5.31178 7.78084L10.2976 13.4093C10.0508 13.2142 9.8328 13.0203 9.67825 12.8433Z" stroke="white"/>
<path d="M9.56709 19.3534L9.56412 19.3508L9.54564 19.3372L9.25033 19.7407C9.54564 19.3372 9.54551 19.3371 9.54537 19.3371L9.5451 19.3369L9.54454 19.3364L9.54337 19.3356L9.5408 19.3337L9.53478 19.3295L9.51929 19.319C9.50748 19.3111 9.49249 19.3016 9.47463 19.2911C9.43938 19.2704 9.39048 19.2446 9.33069 19.2206C9.22581 19.1785 9.05807 19.1304 8.86068 19.154C8.84913 19.1494 8.83276 19.1419 8.81211 19.1303C8.7431 19.0918 8.67632 19.0364 8.63966 18.9955L9.56709 19.3534ZM9.56709 19.3534C9.56657 19.3498 9.56607 19.3461 9.56559 19.3425C9.48537 18.7424 9.75615 18.0275 10.6197 17.2177C11.4762 16.4144 12.1851 16.1439 12.748 16.1453C12.7977 16.1454 12.8456 16.1476 12.8916 16.1517C12.8621 16.102 12.8266 16.0607 12.7965 16.0309C12.7807 16.0153 12.768 16.0044 12.761 15.9987C12.7594 15.9974 12.7582 15.9964 12.7573 15.9957L12.5133 15.8247L12.5501 15.5506C12.5497 15.5493 12.5492 15.5483 12.5478 15.5466C12.5471 15.5457 12.5384 15.5346 12.51 15.52C12.5099 15.52 12.5098 15.5199 12.5097 15.5199L9.56709 19.3534ZM8.69809 16.2483C9.28475 15.5233 10.0752 14.9792 11.0373 14.6117L8.69809 16.2483ZM7.8271 17.9018C8.01598 17.2912 8.30313 16.7366 8.69801 16.2483L7.8271 17.9018Z" stroke="white"/>
<path d="M27.1927 17.5281C27.268 17.3406 27.3055 17.1771 27.3057 17.0399C27.306 16.8955 27.2652 16.788 27.1759 16.6923C27.0763 16.5854 26.8845 16.4606 26.5269 16.3615L27.1927 17.5281ZM27.1927 17.5281C27.1858 17.3324 27.1383 17.1441 27.0431 16.9659C26.8812 16.6627 26.6149 16.4586 26.3286 16.3148C26.3962 16.3281 26.4623 16.3435 26.5269 16.3614L27.1927 17.5281ZM24.2395 15.7912C23.8068 15.7152 23.4518 15.6411 23.1984 15.5343C23.115 15.4993 23.0451 15.463 22.9866 15.4266M24.2395 15.7912L23.9583 12.4752M24.2395 15.7912L24.2707 15.6228L24.2395 15.7912ZM22.9866 15.4266C22.9706 15.4 22.9555 15.3725 22.9415 15.3442C22.7978 15.0539 22.8018 14.7505 22.8614 14.4804M22.9866 15.4266C22.8429 15.3373 22.7679 15.2474 22.7319 15.1728C22.6877 15.081 22.6642 14.9335 22.7704 14.6834M22.9866 15.4266C23.034 15.5053 23.0899 15.5765 23.1535 15.6408C23.4002 15.8906 23.7614 16.0368 24.1795 16.1144C24.1795 16.1144 24.1795 16.1144 24.1795 16.1144L24.2395 15.7912L22.7704 14.6834M22.8614 14.4804C23.0269 14.1288 23.2382 13.7597 23.4677 13.3588C23.4843 13.3298 23.501 13.3007 23.5178 13.2713C23.6637 13.0162 23.8152 12.7495 23.9583 12.4752M22.8614 14.4804C22.8293 14.5487 22.7989 14.6163 22.7704 14.6834M22.8614 14.4804L22.7704 14.6834M23.9583 12.4752C23.9712 12.4525 23.9832 12.4305 23.9944 12.4092L23.9944 12.4091C24.0295 12.3417 24.0623 12.2752 24.0928 12.2094C24.0491 12.2987 24.0041 12.3874 23.9583 12.4752ZM18.5077 21.7311C18.549 21.8119 18.6306 22.0135 18.7281 22.4509L18.7281 22.4509C18.8123 22.8287 18.8952 23.1286 19.0138 23.4356L17.0577 21.5578C17.0263 21.2529 16.8578 20.9685 16.6403 20.7678C16.437 20.5801 16.1845 20.4543 15.9242 20.4183C15.6666 20.3827 15.3519 20.4331 15.1187 20.6717C14.8823 20.9135 14.8427 21.2329 14.895 21.4933C14.9472 21.7535 15.0937 21.9959 15.2967 22.1833L15.2969 22.1835C15.5036 22.3741 15.769 22.5053 16.0438 22.5347L18.2753 24.6625C17.378 24.3616 16.251 24.1155 15.1405 24.2317L15.1405 24.2317L15.138 24.2319C15.1337 24.2322 15.1256 24.2327 15.1148 24.2331C15.0923 24.2339 15.0631 24.2338 15.0338 24.2312C15.0236 24.2303 15.0149 24.2293 15.0075 24.2281L10.739 19.2995C10.733 19.267 10.7279 19.2142 10.736 19.1427C10.7546 18.9797 10.8501 18.658 11.2912 18.2202C11.7326 17.7824 12.1643 17.5346 12.5025 17.4249C12.8273 17.3196 12.9813 17.3632 13.0142 17.3752L13.0192 17.3797C13.044 17.4024 13.0806 17.4356 13.1277 17.4782C13.2221 17.5635 13.3591 17.6866 13.5304 17.8385C13.8729 18.1422 14.3532 18.5614 14.9044 19.0241C15.9847 19.9307 17.3591 21.0223 18.5077 21.7311Z" stroke="white"/>
</svg>
