<svg width="28" height="28" viewBox="0 0 28 28" fill="none" xmlns="http://www.w3.org/2000/svg">
<path d="M25.8125 8.75H24.0625V4.375C24.0625 3.89255 23.67 3.5 23.1875 3.5H21.4375V1.3125C21.4375 0.58882 20.8487 0 20.125 0H7.875C7.15132 0 6.5625 0.58882 6.5625 1.3125V3.5H4.8125C4.33005 3.5 3.9375 3.89255 3.9375 4.375V8.75H2.1875C0.981313 8.75 0 9.73131 0 10.9375V20.5625C0 21.7687 0.981313 22.75 2.1875 22.75H6.5625V26.6875C6.5625 27.4112 7.15132 28 7.875 28H20.125C20.8487 28 21.4375 27.4112 21.4375 26.6875V22.75H25.8125C27.0187 22.75 28 21.7687 28 20.5625V10.9375C28 9.73131 27.0187 8.75 25.8125 8.75ZM23.1875 4.375V8.75H21.4375V4.375H23.1875ZM7.4375 1.3125C7.4375 1.07127 7.63377 0.875 7.875 0.875H20.125C20.3662 0.875 20.5625 1.07127 20.5625 1.3125V8.75H7.4375C7.4375 8.66059 7.4375 1.62909 7.4375 1.3125ZM4.8125 4.375H6.5625V8.75H4.8125V4.375ZM20.5625 26.6875C20.5625 26.9287 20.3662 27.125 20.125 27.125H7.875C7.63377 27.125 7.4375 26.9287 7.4375 26.6875V19.25H20.5625V26.6875ZM27.125 20.5625C27.125 21.2862 26.5362 21.875 25.8125 21.875H21.4375V19.25H22.3125C22.5541 19.25 22.75 19.0541 22.75 18.8125C22.75 18.5709 22.5541 18.375 22.3125 18.375C20.7453 18.375 6.40484 18.375 5.6875 18.375C5.44589 18.375 5.25 18.5709 5.25 18.8125C5.25 19.0541 5.44589 19.25 5.6875 19.25H6.5625V21.875H2.1875C1.46382 21.875 0.875 21.2862 0.875 20.5625V10.9375C0.875 10.2138 1.46382 9.625 2.1875 9.625H25.8125C26.5362 9.625 27.125 10.2138 27.125 10.9375V20.5625Z" fill="#2586EF"/>
<path d="M24.9375 10.5C24.2138 10.5 23.625 11.0888 23.625 11.8125C23.625 12.5362 24.2138 13.125 24.9375 13.125C25.6612 13.125 26.25 12.5362 26.25 11.8125C26.25 11.0888 25.6612 10.5 24.9375 10.5ZM24.9375 12.25C24.6963 12.25 24.5 12.0537 24.5 11.8125C24.5 11.5713 24.6963 11.375 24.9375 11.375C25.1787 11.375 25.375 11.5713 25.375 11.8125C25.375 12.0537 25.1787 12.25 24.9375 12.25Z" fill="#2586EF"/>
<path d="M21.4375 10.5C20.7138 10.5 20.125 11.0888 20.125 11.8125C20.125 12.5362 20.7138 13.125 21.4375 13.125C22.1612 13.125 22.75 12.5362 22.75 11.8125C22.75 11.0888 22.1612 10.5 21.4375 10.5ZM21.4375 12.25C21.1963 12.25 21 12.0537 21 11.8125C21 11.5713 21.1963 11.375 21.4375 11.375C21.6787 11.375 21.875 11.5713 21.875 11.8125C21.875 12.0537 21.6787 12.25 21.4375 12.25Z" fill="#2586EF"/>
<path d="M18.8125 20.5625H9.625C9.38339 20.5625 9.1875 20.7584 9.1875 21C9.1875 21.2416 9.38339 21.4375 9.625 21.4375H18.8125C19.0541 21.4375 19.25 21.2416 19.25 21C19.25 20.7584 19.0541 20.5625 18.8125 20.5625Z" fill="#2586EF"/>
<path d="M18.8125 22.75H9.625C9.38339 22.75 9.1875 22.9459 9.1875 23.1875C9.1875 23.4291 9.38339 23.625 9.625 23.625H18.8125C19.0541 23.625 19.25 23.4291 19.25 23.1875C19.25 22.9459 19.0541 22.75 18.8125 22.75Z" fill="#2586EF"/>
<path d="M18.8125 24.9375H9.625C9.38339 24.9375 9.1875 25.1334 9.1875 25.375C9.1875 25.6166 9.38339 25.8125 9.625 25.8125H18.8125C19.0541 25.8125 19.25 25.6166 19.25 25.375C19.25 25.1334 19.0541 24.9375 18.8125 24.9375Z" fill="#2586EF"/>
</svg>
