<svg width="36" height="36" viewBox="0 0 36 36" fill="none" xmlns="http://www.w3.org/2000/svg">
<g clip-path="url(#clip0)">
<path d="M4.5 32.1328C4.31516 32.1328 4.13361 32.2081 4.00287 32.3388C3.87213 32.4695 3.79688 32.6511 3.79688 32.8359C3.79688 33.0208 3.87213 33.2023 4.00287 33.3331C4.13361 33.4638 4.31516 33.5391 4.5 33.5391C4.68484 33.5391 4.86639 33.4638 4.99713 33.3331C5.12787 33.2023 5.20312 33.0208 5.20312 32.8359C5.20312 32.6511 5.12787 32.4695 4.99713 32.3388C4.86639 32.2081 4.68484 32.1328 4.5 32.1328Z" fill="#999999"/>
<path d="M18 32.1328C17.8152 32.1328 17.6336 32.2081 17.5029 32.3388C17.3721 32.4695 17.2969 32.6511 17.2969 32.8359C17.2969 33.0208 17.3721 33.2023 17.5029 33.3331C17.6336 33.4638 17.8152 33.5391 18 33.5391C18.1848 33.5391 18.3664 33.4638 18.4971 33.3331C18.6279 33.2023 18.7031 33.0208 18.7031 32.8359C18.7031 32.6511 18.6279 32.4695 18.4971 32.3388C18.3664 32.2081 18.1848 32.1328 18 32.1328Z" fill="#999999"/>
<path d="M13.5 32.1328C13.3152 32.1328 13.1336 32.2081 13.0029 32.3388C12.8721 32.4695 12.7969 32.6511 12.7969 32.8359C12.7969 33.0208 12.8721 33.2023 13.0029 33.3331C13.1336 33.4638 13.3152 33.5391 13.5 33.5391C13.6848 33.5391 13.8664 33.4638 13.9971 33.3331C14.1279 33.2023 14.2031 33.0208 14.2031 32.8359C14.2031 32.6511 14.1279 32.4695 13.9971 32.3388C13.8664 32.2081 13.6848 32.1328 13.5 32.1328Z" fill="#999999"/>
<path d="M9 32.1328C8.81516 32.1328 8.63361 32.2081 8.50287 32.3388C8.37213 32.4695 8.29688 32.6511 8.29688 32.8359C8.29688 33.0208 8.37213 33.2023 8.50287 33.3331C8.63361 33.4638 8.81516 33.5391 9 33.5391C9.18484 33.5391 9.36639 33.4638 9.49713 33.3331C9.62787 33.2023 9.70312 33.0208 9.70312 32.8359C9.70312 32.6511 9.62787 32.4695 9.49713 32.3388C9.36639 32.2081 9.18484 32.1328 9 32.1328Z" fill="#999999"/>
<path d="M31.5 32.1328C31.3152 32.1328 31.1336 32.2081 31.0029 32.3388C30.8721 32.4695 30.7969 32.6511 30.7969 32.8359C30.7969 33.0208 30.8721 33.2023 31.0029 33.3331C31.1336 33.4638 31.3152 33.5391 31.5 33.5391C31.6848 33.5391 31.8664 33.4638 31.9971 33.3331C32.1279 33.2023 32.2031 33.0208 32.2031 32.8359C32.2031 32.6511 32.1279 32.4695 31.9971 32.3388C31.8664 32.2081 31.6848 32.1328 31.5 32.1328Z" fill="#999999"/>
<path d="M22.5 32.1328C22.3152 32.1328 22.1336 32.2081 22.0029 32.3388C21.8721 32.4695 21.7969 32.6511 21.7969 32.8359C21.7969 33.0208 21.8721 33.2023 22.0029 33.3331C22.1336 33.4638 22.3152 33.5391 22.5 33.5391C22.6848 33.5391 22.8664 33.4638 22.9971 33.3331C23.1279 33.2023 23.2031 33.0208 23.2031 32.8359C23.2031 32.6511 23.1279 32.4695 22.9971 32.3388C22.8664 32.2081 22.6848 32.1328 22.5 32.1328Z" fill="#999999"/>
<path d="M27 32.1328C26.8152 32.1328 26.6336 32.2081 26.5029 32.3388C26.3721 32.4695 26.2969 32.6511 26.2969 32.8359C26.2969 33.0208 26.3721 33.2023 26.5029 33.3331C26.6336 33.4638 26.8152 33.5391 27 33.5391C27.1848 33.5391 27.3664 33.4638 27.4971 33.3331C27.6279 33.2023 27.7031 33.0208 27.7031 32.8359C27.7031 32.6511 27.6279 32.4695 27.4971 32.3388C27.3664 32.2081 27.1848 32.1328 27 32.1328Z" fill="#999999"/>
<path d="M7.03125 1.40625C7.21609 1.40625 7.39764 1.33099 7.52838 1.20026C7.65912 1.06952 7.73438 0.88797 7.73438 0.703125C7.73438 0.51828 7.65912 0.336731 7.52838 0.205994C7.39764 0.0752563 7.21609 0 7.03125 0C6.84641 0 6.66486 0.0752563 6.53412 0.205994C6.40338 0.336731 6.32812 0.51828 6.32812 0.703125C6.32812 0.88797 6.40338 1.06952 6.53412 1.20026C6.66486 1.33099 6.84641 1.40625 7.03125 1.40625Z" fill="#999999"/>
<path d="M18.8086 10.4062C18.9934 10.4062 19.175 10.331 19.3057 10.2003C19.4365 10.0695 19.5117 9.88797 19.5117 9.70312C19.5117 9.51828 19.4365 9.33673 19.3057 9.20599C19.175 9.07526 18.9934 9 18.8086 9C18.6237 9 18.4422 9.07526 18.3115 9.20599C18.1807 9.33673 18.1055 9.51828 18.1055 9.70312C18.1055 9.88797 18.1807 10.0695 18.3115 10.2003C18.4422 10.331 18.6237 10.4062 18.8086 10.4062Z" fill="#999999"/>
<path d="M28.1827 17.0997L29.8878 15.3946C30.0196 15.2628 30.0938 15.084 30.0938 14.8975V10.4062H33.75C34.1384 10.4062 34.4531 10.0915 34.4531 9.70312V7.03125H35.2969C35.6852 7.03125 36 6.71649 36 6.32812V0.703125C36 0.314758 35.6852 0 35.2969 0H10.1017C9.71329 0 9.39853 0.314758 9.39853 0.703125C9.39853 1.09149 9.71329 1.40625 10.1017 1.40625H34.5938V5.625H1.40625V1.40625H3.90262C4.29099 1.40625 4.60574 1.09149 4.60574 0.703125C4.60574 0.314758 4.29099 0 3.90262 0H0.703125C0.314758 0 0 0.314758 0 0.703125V6.32812C0 6.71649 0.314758 7.03125 0.703125 7.03125H1.54688V9.70312C1.54688 10.0915 1.86163 10.4062 2.25 10.4062H7.3125V14.8975C7.3125 15.084 7.38666 15.2628 7.51849 15.3946L9.22357 17.0997C9.35541 17.2315 9.53421 17.3057 9.7207 17.3057H10.1173V18.2093L9.90363 18.716C9.72675 19.1354 9.31833 19.4062 8.86349 19.4062C7.46548 19.4062 6.32812 20.5436 6.32812 21.9416V22.7639C5.32315 23.3193 4.64062 24.3899 4.64062 25.6171V25.7344H3.79688C3.40851 25.7344 3.09375 26.0491 3.09375 26.4375V29.6735C1.38153 29.7114 0 31.1149 0 32.8359C0 34.5806 1.41943 36 3.16406 36H32.8359C34.5806 36 36 34.5806 36 32.8359C36 31.1149 34.6185 29.7114 32.9062 29.6735V26.4375C32.9062 26.0491 32.5915 25.7344 32.2031 25.7344H31.3594V25.6171C31.3594 24.2243 30.4802 23.0331 29.2481 22.5681C29.5156 22.157 29.6719 21.6667 29.6719 21.1407V20.9575C29.6719 20.2843 29.4109 19.6504 28.9369 19.1725L27.8361 18.0621V17.2889C27.9662 17.2603 28.0871 17.1955 28.1827 17.0997ZM28.6875 14.606L27.3944 15.8994H26.3243L25.0312 14.606V10.4062H28.6875V14.606ZM2.95312 7.03125H33.0469V9H21.9727C21.5843 9 21.2695 9.31476 21.2695 9.70312C21.2695 10.0915 21.5843 10.4062 21.9727 10.4062H23.625V14.8975C23.625 15.084 23.6992 15.2628 23.831 15.3946L25.5361 17.0997C25.6679 17.2315 25.8467 17.3057 26.0332 17.3057H26.4298V18.2093L26.2161 18.716C26.0392 19.1354 25.6308 19.4062 25.176 19.4062C23.778 19.4062 22.6406 20.5436 22.6406 21.9416V22.7639C21.6357 23.3193 20.9531 24.3899 20.9531 25.6171V25.7344H20.1094C19.721 25.7344 19.4062 26.0491 19.4062 26.4375V29.6719H16.5938V26.4375C16.5938 26.0491 16.279 25.7344 15.8906 25.7344H15.0469V25.6171C15.0469 24.2243 14.1677 23.0331 12.9356 22.5681C13.2031 22.157 13.3594 21.6667 13.3594 21.1407V20.9575C13.3594 20.2843 13.0984 19.6504 12.6244 19.1725L11.5236 18.0621V17.2889C11.6537 17.2603 11.7746 17.1955 11.8702 17.0997L13.5753 15.3946C13.7071 15.2628 13.7812 15.084 13.7812 14.8975V10.4062H15.7148C16.1032 10.4062 16.418 10.0915 16.418 9.70312C16.418 9.31476 16.1032 9 15.7148 9H2.95312V7.03125ZM8.71875 14.606V10.4062H12.375V14.606L11.0819 15.8994H10.0118L8.71875 14.606ZM7.73438 21.9416C7.73438 21.319 8.24084 20.8125 8.86349 20.8125C9.76767 20.8125 10.5897 20.336 11.0424 19.5741L11.6257 20.1624C11.8369 20.3752 11.9531 20.6579 11.9531 20.9575V21.1407C11.9531 21.8128 11.4063 22.3594 10.7345 22.3594H7.89862C7.84341 22.3594 7.78876 22.3607 7.73438 22.3635V21.9416ZM6.04688 25.6171C6.04688 24.5962 6.87744 23.7656 7.89835 23.7656H11.7889C12.8101 23.7656 13.6406 24.5962 13.6406 25.6171V25.7344H6.04688V25.6171ZM4.5 27.1406H15.1875V29.6719H4.5V27.1406ZM34.5938 32.8359C34.5938 33.8052 33.8052 34.5938 32.8359 34.5938H3.16406C2.19479 34.5938 1.40625 33.8052 1.40625 32.8359C1.40625 31.8667 2.19479 31.0781 3.16406 31.0781H32.8359C33.8052 31.0781 34.5938 31.8667 34.5938 32.8359ZM31.5 29.6719H20.8125V27.1406H31.5V29.6719ZM29.9531 25.6171V25.7344H22.3594V25.6171C22.3594 24.5962 23.1899 23.7656 24.2108 23.7656H28.1014C29.1226 23.7656 29.9531 24.5962 29.9531 25.6171ZM28.2656 20.9575V21.1407C28.2656 21.8128 27.7188 22.3594 27.047 22.3594H24.2111C24.1559 22.3594 24.1013 22.3607 24.0469 22.3635V21.9416C24.0469 21.319 24.5533 20.8125 25.176 20.8125C26.0802 20.8125 26.9025 20.336 27.3549 19.5738L27.9385 20.1624C28.1494 20.3752 28.2656 20.6579 28.2656 20.9575Z" fill="#999999"/>
</g>
<defs>
<clipPath id="clip0">
<rect width="36" height="36" fill="white"/>
</clipPath>
</defs>
</svg>
