<svg width="72" height="72" viewBox="0 0 72 72" fill="none" xmlns="http://www.w3.org/2000/svg">
<path d="M56.3654 34.1993L59.7755 30.7892C60.0392 30.5255 60.1875 30.1679 60.1875 29.7949V20.8125H67.5C68.2767 20.8125 68.9062 20.183 68.9062 19.4062V14.0625H70.5938C71.3705 14.0625 72 13.433 72 12.6562V1.40625C72 0.629517 71.3705 0 70.5938 0H20.2033C19.4266 0 18.7971 0.629517 18.7971 1.40625C18.7971 2.18298 19.4266 2.8125 20.2033 2.8125H69.1875V11.25H2.8125V2.8125H7.80524C8.58197 2.8125 9.21149 2.18298 9.21149 1.40625C9.21149 0.629517 8.58197 0 7.80524 0H1.40625C0.629517 0 0 0.629517 0 1.40625V12.6562C0 13.433 0.629517 14.0625 1.40625 14.0625H3.09375V19.4062C3.09375 20.183 3.72327 20.8125 4.5 20.8125H14.625V29.7949C14.625 30.1679 14.7733 30.5255 15.037 30.7892L18.4471 34.1993C18.7108 34.463 19.0684 34.6113 19.4414 34.6113H20.2346V36.4186L19.8073 37.4321C19.4535 38.2709 18.6367 38.8125 17.727 38.8125C14.931 38.8125 12.6562 41.0872 12.6562 43.8832V45.5279C10.6463 46.6386 9.28125 48.7798 9.28125 51.2342V51.4688H7.59375C6.81702 51.4688 6.1875 52.0983 6.1875 52.875V59.347C2.76306 59.4229 0 62.2299 0 65.6719C0 69.1611 2.83887 72 6.32812 72H65.6719C69.1611 72 72 69.1611 72 65.6719C72 62.2299 69.2369 59.4229 65.8125 59.347V52.875C65.8125 52.0983 65.183 51.4688 64.4062 51.4688H62.7188V51.2342C62.7188 48.4486 60.9604 46.0662 58.4962 45.1362C59.0312 44.3139 59.3438 43.3334 59.3438 42.2814V41.915C59.3438 40.5687 58.8219 39.3008 57.8738 38.345L55.6721 36.1241V34.5778C55.9325 34.5207 56.1742 34.3911 56.3654 34.1993ZM57.375 29.2121L54.7888 31.7988H52.6487L50.0625 29.2121V20.8125H57.375V29.2121ZM5.90625 14.0625H66.0938V18H43.9453C43.1686 18 42.5391 18.6295 42.5391 19.4062C42.5391 20.183 43.1686 20.8125 43.9453 20.8125H47.25V29.7949C47.25 30.1679 47.3983 30.5255 47.662 30.7892L51.0721 34.1993C51.3358 34.463 51.6934 34.6113 52.0664 34.6113H52.8596V36.4186L52.4323 37.4321C52.0785 38.2709 51.2617 38.8125 50.352 38.8125C47.556 38.8125 45.2812 41.0872 45.2812 43.8832V45.5279C43.2713 46.6386 41.9062 48.7798 41.9062 51.2342V51.4688H40.2188C39.442 51.4688 38.8125 52.0983 38.8125 52.875V59.3438H33.1875V52.875C33.1875 52.0983 32.558 51.4688 31.7812 51.4688H30.0938V51.2342C30.0938 48.4486 28.3354 46.0662 25.8712 45.1362C26.4062 44.3139 26.7188 43.3334 26.7188 42.2814V41.915C26.7188 40.5687 26.1969 39.3008 25.2488 38.345L23.0471 36.1241V34.5778C23.3075 34.5207 23.5492 34.3911 23.7404 34.1993L27.1505 30.7892C27.4142 30.5255 27.5625 30.1679 27.5625 29.7949V20.8125H31.4297C32.2064 20.8125 32.8359 20.183 32.8359 19.4062C32.8359 18.6295 32.2064 18 31.4297 18H5.90625V14.0625ZM17.4375 29.2121V20.8125H24.75V29.2121L22.1638 31.7988H20.0237L17.4375 29.2121ZM15.4688 43.8832C15.4688 42.6379 16.4817 41.625 17.727 41.625C19.5353 41.625 21.1794 40.6719 22.0847 39.1481L23.2515 40.3248C23.6739 40.7505 23.9062 41.3157 23.9062 41.915V42.2814C23.9062 43.6256 22.8126 44.7188 21.4689 44.7188H15.7972C15.6868 44.7188 15.5775 44.7215 15.4688 44.727V43.8832ZM12.0938 51.2342C12.0938 49.1924 13.7549 47.5312 15.7967 47.5312H23.5778C25.6201 47.5312 27.2812 49.1924 27.2812 51.2342V51.4688H12.0938V51.2342ZM9 54.2812H30.375V59.3438H9V54.2812ZM69.1875 65.6719C69.1875 67.6104 67.6104 69.1875 65.6719 69.1875H6.32812C4.38959 69.1875 2.8125 67.6104 2.8125 65.6719C2.8125 63.7333 4.38959 62.1562 6.32812 62.1562H65.6719C67.6104 62.1562 69.1875 63.7333 69.1875 65.6719ZM63 59.3438H41.625V54.2812H63V59.3438ZM59.9062 51.2342V51.4688H44.7188V51.2342C44.7188 49.1924 46.3799 47.5312 48.4217 47.5312H56.2028C58.2451 47.5312 59.9062 49.1924 59.9062 51.2342ZM56.5312 41.915V42.2814C56.5312 43.6256 55.4376 44.7188 54.0939 44.7188H48.4222C48.3118 44.7188 48.2025 44.7215 48.0938 44.727V43.8832C48.0938 42.6379 49.1067 41.625 50.352 41.625C52.1603 41.625 53.805 40.6719 54.7097 39.1476L55.877 40.3248C56.2989 40.7505 56.5312 41.3157 56.5312 41.915Z" fill="#999999"/>
</svg>
