<svg width="24" height="24" viewBox="0 0 24 24" fill="none" xmlns="http://www.w3.org/2000/svg">
<path d="M11.8996 1.94629C13.6676 1.94629 15.4384 2.44815 17.0206 3.39772C18.0241 4.00153 18.9259 4.76037 19.6919 5.64649L17.0487 5.5593C16.7383 5.54893 16.4783 5.79239 16.4681 6.10299C16.4579 6.41342 16.7012 6.67358 17.0118 6.6836L20.6689 6.80436C20.879 6.89084 21.1205 6.8425 21.2812 6.68166C21.4417 6.52082 21.4896 6.2793 21.4028 6.06924L21.2824 2.41299C21.2754 2.10238 21.0179 1.85629 20.7072 1.86315C20.3968 1.87018 20.1504 2.1277 20.1574 2.43813C20.1574 2.44235 20.1574 2.44621 20.1578 2.45026L20.2274 4.55963C19.4536 3.73276 18.5692 3.0168 17.5994 2.43268C15.8425 1.37852 13.8715 0.821289 11.8996 0.821289C8.74955 0.821289 5.84529 2.12014 3.72291 4.47842C1.84275 6.56758 0.720215 9.37956 0.720215 12.0006C0.720215 12.3112 0.971934 12.5631 1.28271 12.5631C1.5935 12.5631 1.84521 12.3112 1.84521 12.0006C1.84521 9.64991 2.85965 7.11918 4.5591 5.23112C6.46563 3.11313 9.07229 1.94629 11.8996 1.94629Z" fill="#666666" stroke="#666666" stroke-width="0.5"/>
<path d="M22.6574 11.438C22.3467 11.438 22.0949 12.0005 22.0949 12.0005C22.0949 14.351 21.0805 16.8819 19.3811 18.7702C17.4745 20.8882 14.8679 22.0546 12.0406 22.0546C10.2726 22.0546 8.50179 21.5531 6.91958 20.6036C5.91604 19.9996 5.01429 19.2407 4.24823 18.3548L6.89145 18.442C7.20188 18.452 7.46186 18.2085 7.47206 17.8981C7.48225 17.5877 7.23897 17.3277 6.92837 17.3173L3.27124 17.1968C3.06118 17.1103 2.81966 17.1588 2.65899 17.3194C2.4985 17.4803 2.45052 17.7216 2.53735 17.9317L2.65776 21.5879C2.66479 21.8987 2.92231 22.145 3.23292 22.138C3.54335 22.1311 3.78979 21.8736 3.78276 21.563C3.78276 21.5589 3.78276 21.5551 3.78241 21.5508L3.7128 19.4415C4.48659 20.2685 5.37095 20.9841 6.34073 21.5686C8.09766 22.6229 10.0687 23.18 12.0406 23.18C15.1906 23.18 18.0949 21.8813 20.2173 19.523C22.0974 17.4337 23.2199 14.6217 23.2199 12.0005C23.2199 11.6897 22.9682 11.438 22.6574 11.438Z" fill="#666666" stroke="#666666" stroke-width="0.5"/>
</svg>
