<svg width="24" height="28" viewBox="0 0 24 28" fill="none" xmlns="http://www.w3.org/2000/svg">
<path d="M13.7143 1.57593C13.487 1.57593 13.269 1.67611 13.1082 1.85444C12.9475 2.03276 12.8572 2.27463 12.8572 2.52682V12.0357C12.8572 12.2879 12.9475 12.5298 13.1082 12.7081C13.269 12.8865 13.487 12.9866 13.7143 12.9866H22.2857C22.5131 12.9866 22.7311 12.8865 22.8918 12.7081C23.0526 12.5298 23.1429 12.2879 23.1429 12.0357C23.1399 9.26264 22.1456 6.60404 20.3781 4.64315C18.6105 2.68226 16.214 1.5792 13.7143 1.57593ZM14.5715 11.0849V3.53096C16.3096 3.74949 17.9295 4.61556 19.1664 5.98764C20.4034 7.35973 21.1843 9.15668 21.3815 11.0849H14.5715Z" fill="#666666"/>
<path d="M18.8571 14.9617H11.1429V6.33041C11.1429 6.07822 11.0525 5.83635 10.8918 5.65803C10.7311 5.4797 10.513 5.37952 10.2857 5.37952C9.02448 5.37894 7.77597 5.65909 6.61408 6.20338C5.45219 6.74766 4.40054 7.54503 3.5214 8.54826C2.64225 9.55149 1.95347 10.7402 1.49584 12.044C1.03821 13.3478 0.821021 14.7403 0.857138 16.1389C0.952593 18.7967 1.94607 21.3174 3.64009 23.1999C5.33411 25.0824 7.60462 26.1888 10.0003 26.2991H10.2891C12.7766 26.2982 15.1629 25.2069 16.9283 23.2628C18.6937 21.3188 19.6951 18.6796 19.7143 15.9202C19.7152 15.7946 19.6937 15.6702 19.651 15.5539C19.6083 15.4377 19.5454 15.332 19.4657 15.2429C19.386 15.1537 19.2912 15.083 19.1867 15.0348C19.0823 14.9865 18.9703 14.9617 18.8571 14.9617ZM15.6343 22.004C14.8962 22.7985 14.0214 23.4199 13.0622 23.8311C12.1029 24.2423 11.0787 24.4349 10.0509 24.3974C8.09106 24.3071 6.23363 23.402 4.84784 21.862C3.46205 20.322 2.64939 18.2599 2.57142 16.0856C2.51651 13.9389 3.19112 11.8478 4.46136 10.2272C5.73161 8.60667 7.50464 7.57516 9.42857 7.3374V15.9164C9.42857 16.1685 9.51888 16.4104 9.67962 16.5887C9.84037 16.7671 10.0584 16.8672 10.2857 16.8672H17.9426C17.7343 18.8249 16.9182 20.6411 15.6343 22.004Z" fill="#666666"/>
</svg>
