<svg width="20" height="23" viewBox="0 0 20 23" fill="none" xmlns="http://www.w3.org/2000/svg">
<path d="M11.8199 22.5181H8.17992C7.71003 22.5181 7.30347 22.1504 7.20292 21.6343L6.79592 19.516C6.25297 19.2486 5.73814 18.9141 5.26092 18.5187L3.42392 19.1765C2.97592 19.3371 2.4889 19.1251 2.25392 18.6671L0.429918 15.1243C0.197506 14.6662 0.277577 14.0882 0.622918 13.7312L2.04792 12.2696C1.98312 11.6075 1.98312 10.9393 2.04792 10.2772L0.622918 8.81894C0.277068 8.46181 0.196966 7.88317 0.429918 7.42475L2.24992 3.87966C2.48491 3.42171 2.97192 3.2097 3.41992 3.37033L5.25692 4.02808C5.50098 3.82475 5.75505 3.63706 6.01792 3.4659C6.27026 3.3059 6.52995 3.16103 6.79592 3.0319L7.20392 0.915871C7.30399 0.399758 7.71011 0.0315617 8.17992 0.0310059H11.8199C12.2897 0.0315617 12.6958 0.399758 12.7959 0.915871L13.2079 3.03303C13.4887 3.1719 13.7622 3.32882 14.0269 3.50301C14.2739 3.66358 14.5126 3.83963 14.7419 4.03033L16.5799 3.37258C17.0276 3.21255 17.514 3.42448 17.7489 3.88191L19.5689 7.42699C19.8013 7.88515 19.7213 8.4631 19.3759 8.82007L17.9509 10.2817C18.0157 10.9438 18.0157 11.612 17.9509 12.2741L19.3759 13.7357C19.7213 14.0927 19.8013 14.6707 19.5689 15.1288L17.7489 18.6739C17.514 19.1313 17.0276 19.3433 16.5799 19.1832L14.7419 18.5255C14.5093 18.7181 14.2677 18.8964 14.0179 19.0595C13.7557 19.2303 13.4853 19.3846 13.2079 19.5217L12.7959 21.6343C12.6954 22.15 12.2894 22.5176 11.8199 22.5181ZM5.61992 16.0294L6.43992 16.704C6.62477 16.8571 6.81743 16.9979 7.01692 17.1257C7.20462 17.2479 7.39788 17.359 7.59592 17.4585L8.52892 17.9183L8.98592 20.2693H11.0159L11.4729 17.9172L12.4059 17.4573C12.8132 17.2554 13.1998 17.0043 13.5589 16.7085L14.3799 16.0339L16.4209 16.7647L17.4359 14.7881L15.8529 13.1657L15.9649 12.0278C16.0141 11.5302 16.0141 11.0279 15.9649 10.5302L15.8529 9.39236L17.4369 7.76655L16.4209 5.78881L14.3799 6.51964L13.5589 5.84503C13.1997 5.54788 12.8132 5.29495 12.4059 5.09059L11.4729 4.63073L11.0159 2.27971H8.98592L8.52692 4.63186L7.59592 5.09059C7.39772 5.18846 7.20444 5.29843 7.01692 5.42003C6.81866 5.54745 6.62701 5.68747 6.44292 5.83941L5.62192 6.51402L3.58192 5.78319L2.56492 7.76655L4.14792 9.38674L4.03592 10.5257C3.98672 11.0234 3.98672 11.5257 4.03592 12.0233L4.14792 13.1612L2.56492 14.7836L3.57992 16.7602L5.61992 16.0294ZM9.99592 15.7719C7.78678 15.7719 5.99592 13.7584 5.99592 11.2745C5.99592 8.79068 7.78678 6.77712 9.99592 6.77712C12.2051 6.77712 13.9959 8.79068 13.9959 11.2745C13.9932 13.7571 12.2039 15.7688 9.99592 15.7719ZM9.99592 9.02582C8.90331 9.02707 8.01381 10.014 7.99815 11.2423C7.98249 12.4707 8.84648 13.4858 9.93861 13.5222C11.0307 13.5587 11.9468 12.6029 11.9959 11.3757V11.8255V11.2745C11.9959 10.0326 11.1005 9.02582 9.99592 9.02582Z" fill="#666666"/>
</svg>
