<svg width="28" height="24" viewBox="0 0 28 24" fill="none" xmlns="http://www.w3.org/2000/svg">
<path d="M7.95843 14.29L7.63024 14.59V7C7.63024 6.73478 7.51102 6.48043 7.29879 6.29289C7.08656 6.10536 6.79872 6 6.49858 6C6.19845 6 5.91061 6.10536 5.69838 6.29289C5.48615 6.48043 5.36692 6.73478 5.36692 7V14.59L5.03874 14.29C4.82564 14.1017 4.53662 13.9959 4.23526 13.9959C3.9339 13.9959 3.64488 14.1017 3.43178 14.29C3.21868 14.4783 3.09897 14.7337 3.09897 15C3.09897 15.2663 3.21868 15.5217 3.43178 15.71L5.6951 17.71C5.80273 17.801 5.92964 17.8724 6.06855 17.92C6.20401 17.9729 6.35048 18.0002 6.49858 18.0002C6.64668 18.0002 6.79315 17.9729 6.92861 17.92C7.06753 17.8724 7.19444 17.801 7.30206 17.71L9.56539 15.71C9.6709 15.6168 9.7546 15.5061 9.8117 15.3842C9.86881 15.2624 9.8982 15.1319 9.8982 15C9.8982 14.8681 9.86881 14.7376 9.8117 14.6158C9.7546 14.4939 9.6709 14.3832 9.56539 14.29C9.45987 14.1968 9.33461 14.1228 9.19675 14.0723C9.05888 14.0219 8.91113 13.9959 8.76191 13.9959C8.61269 13.9959 8.46493 14.0219 8.32707 14.0723C8.1892 14.1228 8.06394 14.1968 7.95843 14.29ZM13.2886 8H24.6052C24.9053 8 25.1931 7.89464 25.4054 7.70711C25.6176 7.51957 25.7368 7.26522 25.7368 7C25.7368 6.73478 25.6176 6.48043 25.4054 6.29289C25.1931 6.10536 24.9053 6 24.6052 6H13.2886C12.9884 6 12.7006 6.10536 12.4883 6.29289C12.2761 6.48043 12.1569 6.73478 12.1569 7C12.1569 7.26522 12.2761 7.51957 12.4883 7.70711C12.7006 7.89464 12.9884 8 13.2886 8ZM24.6052 11H13.2886C12.9884 11 12.7006 11.1054 12.4883 11.2929C12.2761 11.4804 12.1569 11.7348 12.1569 12C12.1569 12.2652 12.2761 12.5196 12.4883 12.7071C12.7006 12.8946 12.9884 13 13.2886 13H24.6052C24.9053 13 25.1931 12.8946 25.4054 12.7071C25.6176 12.5196 25.7368 12.2652 25.7368 12C25.7368 11.7348 25.6176 11.4804 25.4054 11.2929C25.1931 11.1054 24.9053 11 24.6052 11ZM24.6052 16H13.2886C12.9884 16 12.7006 16.1054 12.4883 16.2929C12.2761 16.4804 12.1569 16.7348 12.1569 17C12.1569 17.2652 12.2761 17.5196 12.4883 17.7071C12.7006 17.8946 12.9884 18 13.2886 18H24.6052C24.9053 18 25.1931 17.8946 25.4054 17.7071C25.6176 17.5196 25.7368 17.2652 25.7368 17C25.7368 16.7348 25.6176 16.4804 25.4054 16.2929C25.1931 16.1054 24.9053 16 24.6052 16Z" fill="#BCC1CD"/>
</svg>
