<svg width="72" height="72" viewBox="0 0 72 72" fill="none" xmlns="http://www.w3.org/2000/svg">
<path d="M12.756 30.2149L12.7555 30.2137L25.7882 21.3696L25.3172 21.5377C25.3173 21.5377 25.3173 21.5378 25.3173 21.5379C25.6415 22.4462 26.2366 23.5401 26.9126 24.6305C23.5751 24.6144 20.458 25.3286 17.7059 26.8869L17.7058 26.887C15.8823 27.9201 14.3193 29.2753 12.9996 30.8888C12.908 30.5998 12.8246 30.3635 12.756 30.2149Z" stroke="#666666"/>
<path d="M19.2611 41.0482C19.1533 41.0239 19.0393 40.9945 18.9226 40.959C18.307 40.7719 17.7235 40.4493 17.4551 39.9238L17.4447 39.9034L17.4325 39.884L17.0098 40.1512C17.4325 39.884 17.4324 39.8839 17.4323 39.8838L17.4321 39.8835L17.4317 39.8828L17.4308 39.8814L17.4286 39.878L17.4227 39.8689C17.418 39.8619 17.412 39.853 17.4045 39.8424C17.3897 39.8212 17.3693 39.793 17.3433 39.76C17.2918 39.6942 17.2168 39.6067 17.1193 39.5146C16.9288 39.3347 16.6253 39.1117 16.2197 39.0305L16.2195 39.0305C16.1156 39.0097 15.9176 38.8844 15.6841 38.5991C15.4666 38.3335 15.2847 38.0099 15.1874 37.7484C15.1151 37.5528 14.9225 36.832 14.6745 35.8924C14.6545 35.8168 14.6343 35.7402 14.6138 35.6625C14.407 34.8787 14.1748 33.9981 13.9619 33.2358C15.2978 31.4655 16.9085 30.0062 18.8155 28.9257L19.2611 41.0482ZM19.2611 41.0482C19.1867 40.6671 19.162 40.1779 19.2984 39.6263C19.6265 38.2994 20.8336 36.7918 23.9755 35.544M19.2611 41.0482L31.4998 31.2938C31.7977 31.6325 31.8402 31.941 31.8251 32.1557C31.8171 32.2691 31.7921 32.3632 31.7699 32.4269C31.759 32.4584 31.7491 32.4814 31.7432 32.4942C31.7421 32.4966 31.7411 32.4987 31.7403 32.5004C31.7396 32.5018 31.739 32.5029 31.7386 32.5038L31.5931 32.7645L31.7596 33.0163C31.7595 33.0162 31.7595 33.0163 31.7596 33.0164C31.7597 33.0165 31.7599 33.0168 31.76 33.017C31.7601 33.0171 31.76 33.017 31.7601 33.0172L31.7604 33.0175L31.7663 33.0271C31.7726 33.0373 31.7829 33.0546 31.7961 33.0782C31.8227 33.1257 31.8608 33.1984 31.902 33.2918C31.985 33.4801 32.077 33.744 32.1174 34.0498C32.1812 34.5326 32.1216 35.1376 31.6441 35.7474C31.379 35.4628 30.9672 35.1329 30.3573 34.8909C29.1056 34.3942 27.108 34.2997 23.9755 35.544M23.9755 35.544L24.16 36.0087L23.9755 35.544ZM28.1793 26.8119C29.5227 28.8429 31.0114 30.7408 31.4992 31.2931L28.1793 26.8119ZM28.1793 26.8119C24.7362 26.6943 21.569 27.3666 18.8157 28.9256L28.1793 26.8119Z" stroke="#666666"/>
<path d="M41.8632 69.0764C41.8658 69.0816 41.8765 69.1005 41.9045 69.1338C41.9114 69.142 41.9189 69.1506 41.9271 69.1595L41.9404 69.0095L41.6466 69.1444L41.5561 68.9472C41.4906 68.9678 41.4429 68.9979 41.413 69.036L41.6836 69.62C42.315 70.183 43.9062 70.9258 46.3752 71.2245C56.0715 72.3973 59.8638 72.3249 69.2081 70.4175C70.1669 70.2223 70.1838 69.0424 69.554 68.4236L41.8626 69.075C41.8626 69.075 41.8628 69.0755 41.8632 69.0764ZM41.8632 69.0764C41.8657 69.0823 41.8742 69.1057 41.8748 69.1457C41.8757 69.2031 41.8585 69.2734 41.8132 69.3357C41.7713 69.3932 41.7258 69.416 41.7123 69.4218C41.7105 69.4225 41.7097 69.4229 41.7097 69.423C41.7099 69.4237 41.7636 69.4083 41.9054 69.4199M41.8632 69.0764L41.9054 69.4199M41.9054 69.4199C41.9477 69.4237 41.9903 69.4276 42.0334 69.4316L42.0334 69.4318L42.0699 69.435L41.9054 69.4199ZM42.4966 68.5992L42.5554 68.7271L42.6152 68.8573L42.6184 68.8215C42.6232 68.6812 42.6079 68.5803 42.6079 68.5803M42.4966 68.5992L41.966 55.1262C41.966 55.1262 42.4332 55.3975 41.966 58.3702C41.4988 61.3439 41.6008 62.6337 42.6079 68.5803M42.4966 68.5992L42.6079 68.5803M42.4966 68.5992L42.4958 68.5974C42.53 68.5922 42.5673 68.5865 42.6079 68.5803M30.9689 37.154L30.9732 37.1627L31.0231 37.2645C31.0669 37.3539 31.1318 37.4855 31.216 37.6552C31.3843 37.9944 31.6299 38.4858 31.9395 39.0949C32.5585 40.3131 33.4337 42.0031 34.4584 43.891C36.5039 47.6597 39.159 52.2423 41.5672 55.4277L41.5957 55.4654C41.6078 55.4993 41.6285 55.5711 41.6456 55.6993C41.6947 56.0693 41.7026 56.8256 41.4721 58.2926L41.4721 58.2926C41.0319 61.0944 41.0914 62.4694 41.8792 67.2548L35.7233 53.8512C36.0335 53.1947 35.9725 52.3349 35.6071 51.5791L30.9689 37.154ZM30.9689 37.154C30.7014 36.749 29.9557 36.3432 28.6953 36.2652C27.4504 36.1882 25.8165 36.4444 23.9834 37.2325C22.1033 38.0414 21.2888 38.9738 20.9312 39.646C20.7506 39.9856 20.6792 40.2721 20.6516 40.4644C20.6377 40.5608 20.6348 40.6341 20.6348 40.679C20.6348 40.6807 20.6348 40.6824 20.6348 40.6841L27.2699 59.533C27.317 59.6473 27.4863 59.7983 27.7677 59.939C27.8933 60.0019 28.0149 60.0497 28.1058 60.0818C28.1508 60.0977 28.1871 60.1093 28.2112 60.1167L28.2375 60.1246L28.2421 60.1259L28.2423 60.126L28.2425 60.126L28.2427 60.1261L28.2428 60.1261L28.2431 60.1262L28.2448 60.1266C31.4675 61.0221 34.3655 63.0284 36.5281 64.9052C38.1506 66.3133 39.3819 67.6686 40.0497 68.4725M30.9689 37.154L40.0497 68.4725M40.0497 68.4725L33.6492 54.6589C33.0133 54.4312 32.443 53.8891 32.1013 53.1827L32.1012 53.1825C31.8199 52.6004 31.724 51.976 31.8224 51.426C31.9209 50.8757 32.2267 50.3608 32.7751 50.1149C33.3194 49.8708 33.9131 49.9769 34.4023 50.2522C34.8939 50.5289 35.3257 50.9966 35.6071 51.579L40.0497 68.4725ZM66.8811 36.6541L66.8811 36.6542C66.4726 37.009 65.9041 37.4014 65.259 37.8466C65.0698 37.9771 64.874 38.1122 64.6738 38.2522C63.8143 38.8532 62.8917 39.5332 62.1997 40.2698C61.5172 40.9963 60.9726 41.8689 61.0555 42.8496C61.1397 43.8455 61.8507 44.7549 63.1978 45.5971C64.1094 46.1672 65.1221 46.6219 66.0988 47.0606C66.2326 47.1206 66.3657 47.1804 66.4977 47.2401C67.6109 47.7435 68.6611 48.2472 69.55 48.9171C70.5273 49.6536 71.0754 50.3491 71.3265 50.9863C71.5719 51.6094 71.55 52.2178 71.3059 52.8342C70.7978 54.1168 69.3314 55.4217 67.2914 56.6819C64.0175 58.7042 59.5727 60.4355 56.3021 61.7095C55.5277 62.0112 54.8192 62.2871 54.2076 62.5353L53.122 62.9758L54.1912 63.4549C56.1523 64.3337 58.2955 64.7465 60.3619 65.1445C60.9764 65.2629 61.5842 65.3799 62.1784 65.5075C64.808 66.0723 67.2394 66.8487 69.2034 68.7801L69.2036 68.7803C69.4109 68.984 69.5075 69.282 69.48 69.5226C69.456 69.7323 69.3492 69.8786 69.1084 69.9276L69.1081 69.9277C64.4465 70.8792 61.194 71.3678 57.9071 71.4763C54.6185 71.585 51.2773 71.3138 46.4353 70.7281C44.3719 70.4785 42.9829 69.9149 42.2919 69.4556L42.9167 69.5137L42.915 69.5101C44.1174 69.6196 45.3281 69.7458 46.5442 69.8726C53.1624 70.5628 59.9435 71.2699 66.4502 69.3833L67.5284 69.0706L66.5748 68.4783C64.3378 67.0889 61.6763 66.5523 59.1007 66.0329C58.9997 66.0126 58.8989 65.9922 58.7982 65.9719C56.0918 65.4246 53.488 64.8589 51.3167 63.3956C51.1785 63.3022 51.0909 63.1223 51.102 62.8955C51.1133 62.6656 51.2233 62.475 51.37 62.3839L51.3701 62.3839C53.3984 61.1252 55.7986 60.3728 58.2671 59.599C58.5264 59.5177 58.7865 59.4362 59.047 59.3538C61.7535 58.4979 64.4979 57.5509 66.6631 55.7874L66.6631 55.7873C68.2018 54.5339 68.8729 53.3112 68.7311 52.0854C68.5941 50.9013 67.7122 49.9128 66.6687 49.073C65.7091 48.3008 64.5125 47.5778 63.3732 46.8894C63.2561 46.8187 63.1396 46.7483 63.024 46.6782C61.7596 45.9119 60.6158 45.1931 59.8681 44.4623C59.0958 43.7077 58.7155 42.9753 58.6653 42.2992C58.6163 41.6377 58.8762 40.9317 59.595 40.2004C60.5806 39.1976 61.794 38.2253 63.0692 37.2036C63.153 37.1365 63.237 37.0692 63.3213 37.0016C64.6766 35.9148 66.0821 34.7717 67.2706 33.5121C68.4607 32.251 69.4572 30.849 69.9749 29.2314C70.1954 28.5426 70.3271 27.8208 70.3527 27.0617C70.7128 28.6904 70.7008 30.1876 70.3221 31.5799C69.8308 33.3868 68.7085 35.0668 66.8811 36.6541ZM42.0554 69.2806C42.0022 69.2358 41.9602 69.1957 41.9283 69.1609L41.9409 69.0093L42.101 68.9357L42.119 68.7416C42.1201 68.7897 42.1183 68.8484 42.1096 68.9083L42.1059 68.9335L42.0929 69.0227L42.0554 69.2806ZM42.0756 68.4313C42.048 68.4287 42.0202 68.4262 41.9923 68.4237L41.9895 68.4235C41.9476 68.42 41.9051 68.4175 41.8624 68.4163L42.0756 68.4313ZM42.6765 68.9907L43.0991 69.0522C43.1005 69.0431 43.1017 69.0341 43.1029 69.0252C44.2743 69.1329 45.449 69.2552 46.6251 69.3776C53.0118 70.0423 59.4427 70.7115 65.6405 69.088C65.7778 69.1648 65.9133 69.2447 66.0472 69.3278L66.311 68.9031L66.1717 68.4228C66.0164 68.4679 65.8609 68.5114 65.7052 68.5534C63.6777 67.4666 61.3321 66.9933 58.9686 66.5164C56.1862 65.9549 53.3792 65.3885 51.0373 63.8102L42.6765 68.9907Z" stroke="#666666"/>
</svg>
